{
  "header": {
    "PPQ": 480,
    "timeSignature": [
      4,
      4
    ],
    "bpm": 140.00014000014,
    "name": ""
  },
  "startTime": 1.7142840000000004,
  "duration": 250.3658210624997,
  "tracks": [
    {
      "startTime": 1.7142840000000004,
      "duration": 250.3658210624997,
      "length": 1491,
      "notes": [
        {
          "name": "G#4",
          "midi": 68,
          "time": 1.7142840000000004,
          "velocity": 0.2755905511811024,
          "duration": 2.9517827625000006
        },
        {
          "name": "F4",
          "midi": 65,
          "time": 1.7294625562500003,
          "velocity": 0.30708661417322836,
          "duration": 2.9687470312500004
        },
        {
          "name": "G#5",
          "midi": 80,
          "time": 2.3857119000000004,
          "velocity": 0.33858267716535434,
          "duration": 0.7964277750000002
        },
        {
          "name": "F5",
          "midi": 77,
          "time": 2.3982118875000005,
          "velocity": 0.2440944881889764,
          "duration": 0.7839277875000001
        },
        {
          "name": "C#5",
          "midi": 73,
          "time": 3.7062462937500005,
          "velocity": 0.29133858267716534,
          "duration": 1.2312487687500004
        },
        {
          "name": "F5",
          "midi": 77,
          "time": 3.7178534250000004,
          "velocity": 0.2440944881889764,
          "duration": 1.2598201687500001
        },
        {
          "name": "F#4",
          "midi": 66,
          "time": 5.27767329375,
          "velocity": 0.33070866141732286,
          "duration": 2.3598190687500002
        },
        {
          "name": "A4",
          "midi": 69,
          "time": 5.29017328125,
          "velocity": 0.2755905511811024,
          "duration": 2.3160691125
        },
        {
          "name": "D#5",
          "midi": 75,
          "time": 5.82945845625,
          "velocity": 0.3543307086614173,
          "duration": 0.3446425125000001
        },
        {
          "name": "C5",
          "midi": 72,
          "time": 5.849994150000001,
          "velocity": 0.33070866141732286,
          "duration": 0.31160683124999977
        },
        {
          "name": "C#5",
          "midi": 73,
          "time": 6.237493762500001,
          "velocity": 0.18110236220472442,
          "duration": 0.29999969999999987
        },
        {
          "name": "F5",
          "midi": 77,
          "time": 6.237493762500001,
          "velocity": 0.30708661417322836,
          "duration": 0.28839256874999997
        },
        {
          "name": "D#5",
          "midi": 75,
          "time": 6.5499934500000005,
          "velocity": 0.2992125984251969,
          "duration": 1.4839270875000015
        },
        {
          "name": "C5",
          "midi": 72,
          "time": 6.5616005812500005,
          "velocity": 0.2440944881889764,
          "duration": 1.4482128375000007
        },
        {
          "name": "F4",
          "midi": 65,
          "time": 8.269634587500002,
          "velocity": 0.3228346456692913,
          "duration": 3.1401754312500003
        },
        {
          "name": "G#4",
          "midi": 68,
          "time": 8.269634587500002,
          "velocity": 0.25196850393700787,
          "duration": 3.1803539625
        },
        {
          "name": "A#4",
          "midi": 70,
          "time": 8.790169781250002,
          "velocity": 0.3858267716535433,
          "duration": 0.31607111249999953
        },
        {
          "name": "C#5",
          "midi": 73,
          "time": 8.798205487500002,
          "velocity": 0.3228346456692913,
          "duration": 0.30803540624999926
        },
        {
          "name": "D#5",
          "midi": 75,
          "time": 9.153562275000002,
          "velocity": 0.4409448818897638,
          "duration": 0.3482139375000006
        },
        {
          "name": "C5",
          "midi": 72,
          "time": 9.174097968750003,
          "velocity": 0.33858267716535434,
          "duration": 0.3035711249999995
        },
        {
          "name": "A#4",
          "midi": 70,
          "time": 9.498204787500002,
          "velocity": 0.3464566929133858,
          "duration": 2.2392834750000006
        },
        {
          "name": "C#5",
          "midi": 73,
          "time": 9.501776212500003,
          "velocity": 0.3779527559055118,
          "duration": 0.6437493562499998
        },
        {
          "name": "F5",
          "midi": 77,
          "time": 10.137489862500003,
          "velocity": 0.3228346456692913,
          "duration": 1.1803559625000002
        },
        {
          "name": "C#5",
          "midi": 73,
          "time": 11.306238693750002,
          "velocity": 0.2440944881889764,
          "duration": 0.5232137625000011
        },
        {
          "name": "F#4",
          "midi": 66,
          "time": 11.909809518750002,
          "velocity": 0.2677165354330709,
          "duration": 2.0723193562500004
        },
        {
          "name": "D#4",
          "midi": 63,
          "time": 11.917845225000002,
          "velocity": 0.29133858267716534,
          "duration": 2.05624794375
        },
        {
          "name": "G#4",
          "midi": 68,
          "time": 12.337487662500003,
          "velocity": 0.29133858267716534,
          "duration": 0.33660680624999983
        },
        {
          "name": "C5",
          "midi": 72,
          "time": 12.345523368750003,
          "velocity": 0.29133858267716534,
          "duration": 0.3446425125000001
        },
        {
          "name": "C#5",
          "midi": 73,
          "time": 12.706237293750004,
          "velocity": 0.31496062992125984,
          "duration": 0.23928547500000086
        },
        {
          "name": "A#4",
          "midi": 70,
          "time": 12.714273000000004,
          "velocity": 0.2755905511811024,
          "duration": 0.29999970000000076
        },
        {
          "name": "G#4",
          "midi": 68,
          "time": 13.029451256250004,
          "velocity": 0.30708661417322836,
          "duration": 1.2366059062499986
        },
        {
          "name": "C5",
          "midi": 72,
          "time": 13.049986950000005,
          "velocity": 0.2755905511811024,
          "duration": 1.2321416249999988
        },
        {
          "name": "F#4",
          "midi": 66,
          "time": 14.629449656250003,
          "velocity": 0.36220472440944884,
          "duration": 1.976783737500007
        },
        {
          "name": "C#4",
          "midi": 61,
          "time": 14.649985350000003,
          "velocity": 0.28346456692913385,
          "duration": 1.8437481562500064
        },
        {
          "name": "D#4",
          "midi": 63,
          "time": 14.649985350000003,
          "velocity": 0.25196850393700787,
          "duration": 1.859819568750007
        },
        {
          "name": "A#4",
          "midi": 70,
          "time": 15.137484862500003,
          "velocity": 0.44881889763779526,
          "duration": 0.399999600000001
        },
        {
          "name": "C5",
          "midi": 72,
          "time": 15.529448756250003,
          "velocity": 0.47244094488188976,
          "duration": 0.3883924687500002
        },
        {
          "name": "A#4",
          "midi": 70,
          "time": 15.885698400000004,
          "velocity": 0.4645669291338583,
          "duration": 0.34374965625000264
        },
        {
          "name": "D#5",
          "midi": 75,
          "time": 16.222305206250006,
          "velocity": 0.44881889763779526,
          "duration": 0.28392828750000376
        },
        {
          "name": "A#4",
          "midi": 70,
          "time": 16.49373350625001,
          "velocity": 0.4645669291338583,
          "duration": 0.10446418125000179
        },
        {
          "name": "D#4",
          "midi": 63,
          "time": 16.82230460625001,
          "velocity": 0.2755905511811024,
          "duration": 0.8714276999999946
        },
        {
          "name": "F#4",
          "midi": 66,
          "time": 16.82230460625001,
          "velocity": 0.2440944881889764,
          "duration": 0.8598205687499956
        },
        {
          "name": "G#4",
          "midi": 68,
          "time": 16.82230460625001,
          "velocity": 0.33858267716535434,
          "duration": 0.4196424374999985
        },
        {
          "name": "C4",
          "midi": 60,
          "time": 16.84998315000001,
          "velocity": 0.25196850393700787,
          "duration": 0.8160706124999955
        },
        {
          "name": "A#4",
          "midi": 70,
          "time": 17.249982750000008,
          "velocity": 0.41732283464566927,
          "duration": 0.2955354187499992
        },
        {
          "name": "G#4",
          "midi": 68,
          "time": 17.598196687500007,
          "velocity": 0.3543307086614173,
          "duration": 0.7196421374999993
        },
        {
          "name": "D#4",
          "midi": 63,
          "time": 17.993732006250006,
          "velocity": 0.25196850393700787,
          "duration": 2.2999977000000023
        },
        {
          "name": "C#4",
          "midi": 61,
          "time": 18.006231993750006,
          "velocity": 0.25196850393700787,
          "duration": 2.255354887500001
        },
        {
          "name": "A#3",
          "midi": 58,
          "time": 18.058017656250005,
          "velocity": 0.1889763779527559,
          "duration": 2.219640637500003
        },
        {
          "name": "F#4",
          "midi": 66,
          "time": 18.622302806250005,
          "velocity": 0.3779527559055118,
          "duration": 0.44374955624999757
        },
        {
          "name": "G#4",
          "midi": 68,
          "time": 19.058016656250004,
          "velocity": 0.4015748031496063,
          "duration": 0.42410671875000006
        },
        {
          "name": "F#4",
          "midi": 66,
          "time": 19.498194787500005,
          "velocity": 0.30708661417322836,
          "duration": 0.8312491687500057
        },
        {
          "name": "F4",
          "midi": 65,
          "time": 20.62587223125001,
          "velocity": 0.25984251968503935,
          "duration": 0.7999991999999949
        },
        {
          "name": "A3",
          "midi": 57,
          "time": 20.63747936250001,
          "velocity": 0.2204724409448819,
          "duration": 0.6767850374999966
        },
        {
          "name": "C4",
          "midi": 60,
          "time": 20.63747936250001,
          "velocity": 0.2440944881889764,
          "duration": 0.7080350062499967
        },
        {
          "name": "D#4",
          "midi": 63,
          "time": 20.63747936250001,
          "velocity": 0.2047244094488189,
          "duration": 0.7241064187499973
        },
        {
          "name": "C#4",
          "midi": 61,
          "time": 22.133906437500006,
          "velocity": 0.33070866141732286,
          "duration": 2.967854175000003
        },
        {
          "name": "A#3",
          "midi": 58,
          "time": 22.137477862500006,
          "velocity": 0.2283464566929134,
          "duration": 1.832141025000002
        },
        {
          "name": "G#3",
          "midi": 56,
          "time": 22.149977850000006,
          "velocity": 0.25984251968503935,
          "duration": 1.8116053312500036
        },
        {
          "name": "F4",
          "midi": 65,
          "time": 22.558013156250006,
          "velocity": 0.3858267716535433,
          "duration": 0.37946390624999893
        },
        {
          "name": "F#4",
          "midi": 66,
          "time": 22.941941343750006,
          "velocity": 0.4409448818897638,
          "duration": 0.31160683124999977
        },
        {
          "name": "F4",
          "midi": 65,
          "time": 23.258012456250007,
          "velocity": 0.44881889763779526,
          "duration": 0.3517853625000029
        },
        {
          "name": "A#4",
          "midi": 70,
          "time": 23.58211927500001,
          "velocity": 0.4645669291338583,
          "duration": 0.2794640062499987
        },
        {
          "name": "F4",
          "midi": 65,
          "time": 23.83747616250001,
          "velocity": 0.48031496062992124,
          "duration": 0.12053559374999878
        },
        {
          "name": "D#4",
          "midi": 63,
          "time": 24.174082968750007,
          "velocity": 0.36220472440944884,
          "duration": 0.3874996124999974
        },
        {
          "name": "A#3",
          "midi": 58,
          "time": 24.182118675000005,
          "velocity": 0.2755905511811024,
          "duration": 0.8919633937500038
        },
        {
          "name": "F#3",
          "midi": 54,
          "time": 24.193725806250004,
          "velocity": 0.2677165354330709,
          "duration": 0.8919633937500038
        },
        {
          "name": "F4",
          "midi": 65,
          "time": 24.561582581250004,
          "velocity": 0.3858267716535433,
          "duration": 0.36071392500000243
        },
        {
          "name": "D#4",
          "midi": 63,
          "time": 24.929439356250008,
          "velocity": 0.31496062992125984,
          "duration": 0.5767851374999999
        },
        {
          "name": "A#3",
          "midi": 58,
          "time": 25.40176031250001,
          "velocity": 0.28346456692913385,
          "duration": 2.159819268749999
        },
        {
          "name": "G#3",
          "midi": 56,
          "time": 25.41426030000001,
          "velocity": 0.25196850393700787,
          "duration": 2.1080336062500002
        },
        {
          "name": "F3",
          "midi": 53,
          "time": 25.437474562500007,
          "velocity": 0.2440944881889764,
          "duration": 2.0687479312500017
        },
        {
          "name": "C#4",
          "midi": 61,
          "time": 25.84997415000001,
          "velocity": 0.3543307086614173,
          "duration": 0.4437495562500011
        },
        {
          "name": "D#4",
          "midi": 63,
          "time": 26.29015228125001,
          "velocity": 0.30708661417322836,
          "duration": 0.5392851749999998
        },
        {
          "name": "C#4",
          "midi": 61,
          "time": 26.853544575000008,
          "velocity": 0.30708661417322836,
          "duration": 0.6285708000000021
        },
        {
          "name": "D#3",
          "midi": 51,
          "time": 27.982114875000008,
          "velocity": 0.25196850393700787,
          "duration": 0.3241068187499927
        },
        {
          "name": "G#3",
          "midi": 56,
          "time": 27.993722006250007,
          "velocity": 0.30708661417322836,
          "duration": 1.880355262499993
        },
        {
          "name": "F#3",
          "midi": 54,
          "time": 28.001757712500005,
          "velocity": 0.2204724409448819,
          "duration": 0.22767834374999651
        },
        {
          "name": "C4",
          "midi": 60,
          "time": 28.009793418750004,
          "velocity": 0.25984251968503935,
          "duration": 2.0276765437499975
        },
        {
          "name": "G#2",
          "midi": 44,
          "time": 29.0338995375,
          "velocity": 0.3543307086614173,
          "duration": 1.1357131499999973
        },
        {
          "name": "C#2",
          "midi": 37,
          "time": 30.12943415625,
          "velocity": 0.4409448818897638,
          "duration": 0.34464251249999833
        },
        {
          "name": "G#3",
          "midi": 56,
          "time": 30.709790718749996,
          "velocity": 0.41732283464566927,
          "duration": 0.16428555000000244
        },
        {
          "name": "F3",
          "midi": 53,
          "time": 30.714254999999998,
          "velocity": 0.41732283464566927,
          "duration": 0.14732128125000088
        },
        {
          "name": "G#4",
          "midi": 68,
          "time": 31.10621889375,
          "velocity": 0.4094488188976378,
          "duration": 2.5874974124999888
        },
        {
          "name": "F4",
          "midi": 65,
          "time": 31.10979031875,
          "velocity": 0.4015748031496063,
          "duration": 2.5999973999999852
        },
        {
          "name": "G#5",
          "midi": 80,
          "time": 31.75800395625,
          "velocity": 0.44881889763779526,
          "duration": 0.9678561749999943
        },
        {
          "name": "F5",
          "midi": 77,
          "time": 31.7660396625,
          "velocity": 0.4015748031496063,
          "duration": 0.7714277999999979
        },
        {
          "name": "C#5",
          "midi": 73,
          "time": 33.28210957499999,
          "velocity": 0.28346456692913385,
          "duration": 1.3196415374999901
        },
        {
          "name": "F5",
          "midi": 77,
          "time": 33.29014528124999,
          "velocity": 0.25984251968503935,
          "duration": 1.4839270874999855
        },
        {
          "name": "C#3",
          "midi": 49,
          "time": 34.533894037499984,
          "velocity": 0.3779527559055118,
          "duration": 0.1437498562499968
        },
        {
          "name": "F#2",
          "midi": 42,
          "time": 34.545501168749986,
          "velocity": 0.3228346456692913,
          "duration": 0.14821413749999124
        },
        {
          "name": "C#4",
          "midi": 61,
          "time": 35.077643493749974,
          "velocity": 0.25984251968503935,
          "duration": 1.4723199562499971
        },
        {
          "name": "D#5",
          "midi": 75,
          "time": 35.08567919999997,
          "velocity": 0.4409448818897638,
          "duration": 0.5366066062499968
        },
        {
          "name": "C#3",
          "midi": 49,
          "time": 35.090143481249974,
          "velocity": 0.2204724409448819,
          "duration": 1.6276769437499965
        },
        {
          "name": "A#3",
          "midi": 58,
          "time": 35.109786318749975,
          "velocity": 0.2677165354330709,
          "duration": 1.440177131249996
        },
        {
          "name": "F#4",
          "midi": 66,
          "time": 35.11425059999998,
          "velocity": 0.1889763779527559,
          "duration": 1.9276766437499973
        },
        {
          "name": "F#3",
          "midi": 54,
          "time": 35.117822024999974,
          "velocity": 0.2125984251968504,
          "duration": 1.4160700125000005
        },
        {
          "name": "A#4",
          "midi": 70,
          "time": 35.117822024999974,
          "velocity": 0.1968503937007874,
          "duration": 1.9357123500000029
        },
        {
          "name": "F5",
          "midi": 77,
          "time": 35.61425009999997,
          "velocity": 0.3858267716535433,
          "duration": 0.3473210812500014
        },
        {
          "name": "D#5",
          "midi": 75,
          "time": 35.97407116874997,
          "velocity": 0.3228346456692913,
          "duration": 1.0999989000000028
        },
        {
          "name": "C#3",
          "midi": 49,
          "time": 37.382105474999975,
          "velocity": 0.3858267716535433,
          "duration": 0.08749991250000022
        },
        {
          "name": "F2",
          "midi": 41,
          "time": 37.39014118124997,
          "velocity": 0.36220472440944884,
          "duration": 0.09196419375000175
        },
        {
          "name": "F3",
          "midi": 53,
          "time": 37.782105074999976,
          "velocity": 0.4409448818897638,
          "duration": 0.07946420624999462
        },
        {
          "name": "C#4",
          "midi": 61,
          "time": 37.78567649999997,
          "velocity": 0.4409448818897638,
          "duration": 0.12857129999999728
        },
        {
          "name": "C#5",
          "midi": 73,
          "time": 37.78567649999997,
          "velocity": 0.44881889763779526,
          "duration": 0.13214272499999424
        },
        {
          "name": "G#3",
          "midi": 56,
          "time": 37.79371220624997,
          "velocity": 0.3858267716535433,
          "duration": 0.11249988750000028
        },
        {
          "name": "G#4",
          "midi": 68,
          "time": 37.80174791249997,
          "velocity": 0.4094488188976378,
          "duration": 0.3357139499999917
        },
        {
          "name": "D#4",
          "midi": 63,
          "time": 38.106211893749965,
          "velocity": 0.5039370078740157,
          "duration": 0.05982136874999355
        },
        {
          "name": "D#5",
          "midi": 75,
          "time": 38.11424759999996,
          "velocity": 0.5511811023622047,
          "duration": 0.10357132499999722
        },
        {
          "name": "C#4",
          "midi": 61,
          "time": 38.52228290624996,
          "velocity": 0.3779527559055118,
          "duration": 0.7874992124999878
        },
        {
          "name": "G#4",
          "midi": 68,
          "time": 38.52585433124996,
          "velocity": 0.48031496062992124,
          "duration": 0.7357135499999927
        },
        {
          "name": "G#5",
          "midi": 80,
          "time": 38.52585433124996,
          "velocity": 0.5590551181102362,
          "duration": 0.7723206562499882
        },
        {
          "name": "F4",
          "midi": 65,
          "time": 38.53389003749996,
          "velocity": 0.33070866141732286,
          "duration": 0.6678564749999936
        },
        {
          "name": "C#5",
          "midi": 73,
          "time": 38.537461462499955,
          "velocity": 0.3858267716535433,
          "duration": 0.7446421124999958
        },
        {
          "name": "F5",
          "midi": 77,
          "time": 39.774067368749954,
          "velocity": 0.4645669291338583,
          "duration": 1.6553554874999818
        },
        {
          "name": "F4",
          "midi": 65,
          "time": 39.77763879374995,
          "velocity": 0.36220472440944884,
          "duration": 1.5999983999999827
        },
        {
          "name": "C#5",
          "midi": 73,
          "time": 39.78567449999995,
          "velocity": 0.30708661417322836,
          "duration": 1.6044626812499843
        },
        {
          "name": "C#4",
          "midi": 61,
          "time": 39.79371020624995,
          "velocity": 0.31496062992125984,
          "duration": 0.41249958749999394
        },
        {
          "name": "G#3",
          "midi": 56,
          "time": 39.80621019374995,
          "velocity": 0.31496062992125984,
          "duration": 0.3839281874999969
        },
        {
          "name": "C#3",
          "midi": 49,
          "time": 41.14192314374994,
          "velocity": 0.3700787401574803,
          "duration": 0.1999997999999934
        },
        {
          "name": "F#2",
          "midi": 42,
          "time": 41.14549456874994,
          "velocity": 0.3464566929133858,
          "duration": 0.1999997999999934
        },
        {
          "name": "C#4",
          "midi": 61,
          "time": 41.80174391249994,
          "velocity": 0.28346456692913385,
          "duration": 2.4080333062499903
        },
        {
          "name": "F#4",
          "midi": 66,
          "time": 41.80174391249994,
          "velocity": 0.3543307086614173,
          "duration": 2.7321401249999937
        },
        {
          "name": "D#5",
          "midi": 75,
          "time": 41.80174391249994,
          "velocity": 0.3779527559055118,
          "duration": 0.6160708124999914
        },
        {
          "name": "A#3",
          "midi": 58,
          "time": 41.809779618749936,
          "velocity": 0.2440944881889764,
          "duration": 2.4044618812499934
        },
        {
          "name": "A#4",
          "midi": 70,
          "time": 41.81424389999994,
          "velocity": 0.25984251968503935,
          "duration": 2.579461706249994
        },
        {
          "name": "C#3",
          "midi": 49,
          "time": 41.817815324999934,
          "velocity": 0.1968503937007874,
          "duration": 2.5241046187499947
        },
        {
          "name": "F#3",
          "midi": 54,
          "time": 41.845493868749934,
          "velocity": 0.15748031496062992,
          "duration": 2.348211937499997
        },
        {
          "name": "F5",
          "midi": 77,
          "time": 42.40174331249993,
          "velocity": 0.3543307086614173,
          "duration": 0.3999995999999939
        },
        {
          "name": "D#5",
          "midi": 75,
          "time": 42.78567149999993,
          "velocity": 0.33858267716535434,
          "duration": 1.180355962500002
        },
        {
          "name": "C#5",
          "midi": 73,
          "time": 43.99370600624993,
          "velocity": 0.2440944881889764,
          "duration": 0.588392268749999
        },
        {
          "name": "G#2",
          "midi": 44,
          "time": 44.99013358124993,
          "velocity": 0.36220472440944884,
          "duration": 0.10357132499999722
        },
        {
          "name": "C#5",
          "midi": 73,
          "time": 45.374061768749925,
          "velocity": 0.4251968503937008,
          "duration": 0.11964273750000132
        },
        {
          "name": "C#4",
          "midi": 61,
          "time": 45.37763319374992,
          "velocity": 0.3858267716535433,
          "duration": 0.12053559375000589
        },
        {
          "name": "F3",
          "midi": 53,
          "time": 45.39013318124992,
          "velocity": 0.3937007874015748,
          "duration": 0.08392848750000326
        },
        {
          "name": "G#4",
          "midi": 68,
          "time": 45.401740312499925,
          "velocity": 0.4094488188976378,
          "duration": 0.383928187500004
        },
        {
          "name": "B3",
          "midi": 59,
          "time": 45.414240299999925,
          "velocity": 0.30708661417322836,
          "duration": 0.19553551875000608
        },
        {
          "name": "D#4",
          "midi": 63,
          "time": 45.73745426249993,
          "velocity": 0.47244094488188976,
          "duration": 0.07678563749999512
        },
        {
          "name": "D#5",
          "midi": 75,
          "time": 45.74995424999993,
          "velocity": 0.44881889763779526,
          "duration": 0.09553561874999161
        },
        {
          "name": "A#4",
          "midi": 70,
          "time": 46.12941815624992,
          "velocity": 0.4645669291338583,
          "duration": 0.4642852499999961
        },
        {
          "name": "A#5",
          "midi": 82,
          "time": 46.13388243749992,
          "velocity": 0.49606299212598426,
          "duration": 0.4562495437499976
        },
        {
          "name": "B3",
          "midi": 59,
          "time": 46.14191814374992,
          "velocity": 0.4094488188976378,
          "duration": 2.151783562499986
        },
        {
          "name": "C#4",
          "midi": 61,
          "time": 46.14191814374992,
          "velocity": 0.3858267716535433,
          "duration": 2.0562479437499874
        },
        {
          "name": "F5",
          "midi": 77,
          "time": 46.14191814374992,
          "velocity": 0.41732283464566927,
          "duration": 0.6874993124999946
        },
        {
          "name": "F4",
          "midi": 65,
          "time": 46.145489568749916,
          "velocity": 0.3543307086614173,
          "duration": 1.4482128374999945
        },
        {
          "name": "G#5",
          "midi": 80,
          "time": 46.933881637499915,
          "velocity": 0.48031496062992124,
          "duration": 0.6160708124999985
        },
        {
          "name": "G#4",
          "midi": 68,
          "time": 46.93745306249991,
          "velocity": 0.44881889763779526,
          "duration": 0.7044635812499962
        },
        {
          "name": "F4",
          "midi": 65,
          "time": 48.24548746874991,
          "velocity": 0.4566929133858268,
          "duration": 1.0607132250000006
        },
        {
          "name": "F5",
          "midi": 77,
          "time": 48.24548746874991,
          "velocity": 0.4645669291338583,
          "duration": 0.9964275749999985
        },
        {
          "name": "A#2",
          "midi": 46,
          "time": 48.929415356249905,
          "velocity": 0.41732283464566927,
          "duration": 0.12053559374999878
        },
        {
          "name": "D#5",
          "midi": 75,
          "time": 49.51780762499991,
          "velocity": 0.4330708661417323,
          "duration": 0.60803510625
        },
        {
          "name": "D#4",
          "midi": 63,
          "time": 49.52137904999991,
          "velocity": 0.2755905511811024,
          "duration": 1.2642844500000052
        },
        {
          "name": "F4",
          "midi": 65,
          "time": 49.52137904999991,
          "velocity": 0.4094488188976378,
          "duration": 3.488389368749999
        },
        {
          "name": "F3",
          "midi": 53,
          "time": 49.52584333124991,
          "velocity": 0.28346456692913385,
          "duration": 1.8642838499999996
        },
        {
          "name": "A#3",
          "midi": 58,
          "time": 49.52584333124991,
          "velocity": 0.31496062992125984,
          "duration": 1.8839266875000007
        },
        {
          "name": "A#4",
          "midi": 70,
          "time": 49.52584333124991,
          "velocity": 0.3858267716535433,
          "duration": 1.7276768437500039
        },
        {
          "name": "F5",
          "midi": 77,
          "time": 50.14191414374991,
          "velocity": 0.36220472440944884,
          "duration": 0.49196379375000276
        },
        {
          "name": "D#5",
          "midi": 75,
          "time": 50.61423509999991,
          "velocity": 0.33858267716535434,
          "duration": 0.6714279000000047
        },
        {
          "name": "C#4",
          "midi": 61,
          "time": 51.177627393749916,
          "velocity": 0.25984251968503935,
          "duration": 0.2883925687499911
        },
        {
          "name": "C#5",
          "midi": 73,
          "time": 51.19369880624991,
          "velocity": 0.30708661417322836,
          "duration": 1.6723197562499905
        },
        {
          "name": "A#4",
          "midi": 70,
          "time": 52.937447062499906,
          "velocity": 0.2992125984251969,
          "duration": 0.26071402499999863
        },
        {
          "name": "D#1",
          "midi": 27,
          "time": 54.469588387499904,
          "velocity": 0.47244094488188976,
          "duration": 0.40446388125000254
        },
        {
          "name": "D#2",
          "midi": 39,
          "time": 54.469588387499904,
          "velocity": 0.4409448818897638,
          "duration": 0.4883923687500058
        },
        {
          "name": "F6",
          "midi": 89,
          "time": 55.36601606249991,
          "velocity": 0.5196850393700787,
          "duration": 1.267855874999995
        },
        {
          "name": "F5",
          "midi": 77,
          "time": 55.37405176874991,
          "velocity": 0.3700787401574803,
          "duration": 1.2437487562499996
        },
        {
          "name": "A#5",
          "midi": 82,
          "time": 55.37405176874991,
          "velocity": 0.3464566929133858,
          "duration": 1.3196415374999901
        },
        {
          "name": "A#4",
          "midi": 70,
          "time": 55.382087474999906,
          "velocity": 0.33070866141732286,
          "duration": 1.3160701124999932
        },
        {
          "name": "F4",
          "midi": 65,
          "time": 55.39369460624991,
          "velocity": 0.3228346456692913,
          "duration": 1.283927287499992
        },
        {
          "name": "F#4",
          "midi": 66,
          "time": 55.40619459374991,
          "velocity": 0.28346456692913385,
          "duration": 1.271427299999992
        },
        {
          "name": "D#6",
          "midi": 87,
          "time": 57.0981571874999,
          "velocity": 0.4881889763779528,
          "duration": 0.46339239374999863
        },
        {
          "name": "A#4",
          "midi": 70,
          "time": 57.1061928937499,
          "velocity": 0.3700787401574803,
          "duration": 0.3437496562499973
        },
        {
          "name": "D#5",
          "midi": 75,
          "time": 57.109764318749896,
          "velocity": 0.41732283464566927,
          "duration": 0.45178526250000317
        },
        {
          "name": "A#5",
          "midi": 82,
          "time": 57.117800024999895,
          "velocity": 0.3543307086614173,
          "duration": 0.4437495562500047
        },
        {
          "name": "D#4",
          "midi": 63,
          "time": 57.12137144999989,
          "velocity": 0.2992125984251969,
          "duration": 0.3687496312500045
        },
        {
          "name": "F#4",
          "midi": 66,
          "time": 57.12137144999989,
          "velocity": 0.25196850393700787,
          "duration": 0.32410681875000336
        },
        {
          "name": "D#6",
          "midi": 87,
          "time": 57.8258350312499,
          "velocity": 0.44881889763779526,
          "duration": 0.2321426249999945
        },
        {
          "name": "D#5",
          "midi": 75,
          "time": 57.8338707374999,
          "velocity": 0.3779527559055118,
          "duration": 0.2160712124999975
        },
        {
          "name": "A#4",
          "midi": 70,
          "time": 57.8374421624999,
          "velocity": 0.3464566929133858,
          "duration": 0.22053549374999903
        },
        {
          "name": "A#5",
          "midi": 82,
          "time": 57.8374421624999,
          "velocity": 0.3779527559055118,
          "duration": 0.21249978750000054
        },
        {
          "name": "F#4",
          "midi": 66,
          "time": 57.845477868749896,
          "velocity": 0.29133858267716534,
          "duration": 0.22053549374999903
        },
        {
          "name": "D#4",
          "midi": 63,
          "time": 57.857977856249896,
          "velocity": 0.28346456692913385,
          "duration": 0.21160693124999597
        },
        {
          "name": "D#6",
          "midi": 87,
          "time": 58.24994174999989,
          "velocity": 0.41732283464566927,
          "duration": 0.09999989999999315
        },
        {
          "name": "D#5",
          "midi": 75,
          "time": 58.25351317499989,
          "velocity": 0.41732283464566927,
          "duration": 0.12410701874999575
        },
        {
          "name": "A#5",
          "midi": 82,
          "time": 58.26601316249989,
          "velocity": 0.3228346456692913,
          "duration": 0.05982136874999355
        },
        {
          "name": "F#4",
          "midi": 66,
          "time": 58.27404886874989,
          "velocity": 0.29133858267716534,
          "duration": 0.10803560624999875
        },
        {
          "name": "A#4",
          "midi": 70,
          "time": 58.277620293749884,
          "velocity": 0.25196850393700787,
          "duration": 0.12053559375000589
        },
        {
          "name": "D#4",
          "midi": 63,
          "time": 58.29369170624988,
          "velocity": 0.2125984251968504,
          "duration": 0.09999990000000736
        },
        {
          "name": "C#6",
          "midi": 85,
          "time": 58.62940565624989,
          "velocity": 0.5118110236220472,
          "duration": 0.18482124374999387
        },
        {
          "name": "C#5",
          "midi": 73,
          "time": 58.637441362499885,
          "velocity": 0.44881889763779526,
          "duration": 0.1919640937499949
        },
        {
          "name": "A#4",
          "midi": 70,
          "time": 58.649941349999885,
          "velocity": 0.4251968503937008,
          "duration": 0.11160703124999571
        },
        {
          "name": "C#4",
          "midi": 61,
          "time": 58.657977056249884,
          "velocity": 0.3700787401574803,
          "duration": 0.1357141499999983
        },
        {
          "name": "A#5",
          "midi": 82,
          "time": 58.66154848124988,
          "velocity": 0.2440944881889764,
          "duration": 0.1839283874999964
        },
        {
          "name": "F#4",
          "midi": 66,
          "time": 58.66601276249988,
          "velocity": 0.30708661417322836,
          "duration": 0.05178566250000216
        },
        {
          "name": "C#5",
          "midi": 73,
          "time": 59.001726712499874,
          "velocity": 0.5039370078740157,
          "duration": 0.1437498562499897
        },
        {
          "name": "C#6",
          "midi": 85,
          "time": 59.001726712499874,
          "velocity": 0.5118110236220472,
          "duration": 0.1437498562499897
        },
        {
          "name": "A#5",
          "midi": 82,
          "time": 59.01779812499987,
          "velocity": 0.36220472440944884,
          "duration": 0.1276784437499927
        },
        {
          "name": "C#4",
          "midi": 61,
          "time": 59.02136954999987,
          "velocity": 0.3779527559055118,
          "duration": 0.12410701874999575
        },
        {
          "name": "A#4",
          "midi": 70,
          "time": 59.02136954999987,
          "velocity": 0.3779527559055118,
          "duration": 0.10803560624999875
        },
        {
          "name": "F#4",
          "midi": 66,
          "time": 59.029405256249866,
          "velocity": 0.33858267716535434,
          "duration": 0.11607131249999725
        },
        {
          "name": "C#5",
          "midi": 73,
          "time": 59.317797824999865,
          "velocity": 0.5433070866141733,
          "duration": 0.10803560625000586
        },
        {
          "name": "C#6",
          "midi": 85,
          "time": 59.317797824999865,
          "velocity": 0.4881889763779528,
          "duration": 0.14374985625000392
        },
        {
          "name": "A#4",
          "midi": 70,
          "time": 59.337440662499866,
          "velocity": 0.3700787401574803,
          "duration": 0.10803560625000586
        },
        {
          "name": "A#5",
          "midi": 82,
          "time": 59.337440662499866,
          "velocity": 0.25196850393700787,
          "duration": 0.052678518749999625
        },
        {
          "name": "F#4",
          "midi": 66,
          "time": 59.345476368749864,
          "velocity": 0.2992125984251969,
          "duration": 0.056249943750003695
        },
        {
          "name": "C#4",
          "midi": 61,
          "time": 59.349940649999866,
          "velocity": 0.28346456692913385,
          "duration": 0.05178566250000216
        },
        {
          "name": "C5",
          "midi": 72,
          "time": 59.617797524999865,
          "velocity": 0.44881889763779526,
          "duration": 0.21160693124999597
        },
        {
          "name": "C6",
          "midi": 84,
          "time": 59.617797524999865,
          "velocity": 0.48031496062992124,
          "duration": 0.1999997999999934
        },
        {
          "name": "F#5",
          "midi": 78,
          "time": 59.625833231249864,
          "velocity": 0.4251968503937008,
          "duration": 0.1758926812499979
        },
        {
          "name": "A#5",
          "midi": 82,
          "time": 59.64190464374986,
          "velocity": 0.28346456692913385,
          "duration": 0.191964093750002
        },
        {
          "name": "F#4",
          "midi": 66,
          "time": 59.65351177499986,
          "velocity": 0.3858267716535433,
          "duration": 0.1839283874999964
        },
        {
          "name": "A#4",
          "midi": 70,
          "time": 59.65351177499986,
          "velocity": 0.3700787401574803,
          "duration": 0.1919640937499949
        },
        {
          "name": "C4",
          "midi": 60,
          "time": 59.66154748124986,
          "velocity": 0.3779527559055118,
          "duration": 0.17232125625000094
        },
        {
          "name": "C5",
          "midi": 72,
          "time": 59.95797575624986,
          "velocity": 0.49606299212598426,
          "duration": 0.1758926812499908
        },
        {
          "name": "A#5",
          "midi": 82,
          "time": 59.95797575624986,
          "velocity": 0.4330708661417323,
          "duration": 0.1758926812499908
        },
        {
          "name": "F#5",
          "midi": 78,
          "time": 59.96601146249986,
          "velocity": 0.4330708661417323,
          "duration": 0.1357141499999983
        },
        {
          "name": "C6",
          "midi": 84,
          "time": 59.96601146249986,
          "velocity": 0.47244094488188976,
          "duration": 0.1437498562499968
        },
        {
          "name": "C4",
          "midi": 60,
          "time": 59.97761859374986,
          "velocity": 0.41732283464566927,
          "duration": 0.14821413749999124
        },
        {
          "name": "A#4",
          "midi": 70,
          "time": 59.98208287499986,
          "velocity": 0.3228346456692913,
          "duration": 0.1357141499999912
        },
        {
          "name": "F#4",
          "midi": 66,
          "time": 59.99815428749986,
          "velocity": 0.29133858267716534,
          "duration": 0.07589278124999765
        },
        {
          "name": "C5",
          "midi": 72,
          "time": 60.30618969374985,
          "velocity": 0.49606299212598426,
          "duration": 0.1839283874999964
        },
        {
          "name": "F#5",
          "midi": 78,
          "time": 60.31422539999985,
          "velocity": 0.44881889763779526,
          "duration": 0.19553551874999187
        },
        {
          "name": "C6",
          "midi": 84,
          "time": 60.31422539999985,
          "velocity": 0.4566929133858268,
          "duration": 0.1598212687500009
        },
        {
          "name": "C4",
          "midi": 60,
          "time": 60.32136824999985,
          "velocity": 0.44881889763779526,
          "duration": 0.10446418125000179
        },
        {
          "name": "A#4",
          "midi": 70,
          "time": 60.32583253124985,
          "velocity": 0.3779527559055118,
          "duration": 0.1999997999999863
        },
        {
          "name": "F#4",
          "midi": 66,
          "time": 60.33386823749985,
          "velocity": 0.36220472440944884,
          "duration": 0.1598212687499938
        },
        {
          "name": "C#5",
          "midi": 73,
          "time": 60.882081974999835,
          "velocity": 0.4251968503937008,
          "duration": 0.3035711249999977
        },
        {
          "name": "C#6",
          "midi": 85,
          "time": 60.89011768124983,
          "velocity": 0.41732283464566927,
          "duration": 0.26785687499999966
        },
        {
          "name": "A#4",
          "midi": 70,
          "time": 60.909760518749835,
          "velocity": 0.3464566929133858,
          "duration": 0.17232125624999384
        },
        {
          "name": "C#4",
          "midi": 61,
          "time": 60.914224799999836,
          "velocity": 0.3464566929133858,
          "duration": 0.17946410624999487
        },
        {
          "name": "A#5",
          "midi": 82,
          "time": 60.91779622499983,
          "velocity": 0.25196850393700787,
          "duration": 0.2321426250000016
        },
        {
          "name": "F#4",
          "midi": 66,
          "time": 60.92583193124983,
          "velocity": 0.25984251968503935,
          "duration": 0.1999998000000005
        },
        {
          "name": "A#3",
          "midi": 58,
          "time": 61.56600986249983,
          "velocity": 0.30708661417322836,
          "duration": 0.4482138374999991
        },
        {
          "name": "F#4",
          "midi": 66,
          "time": 61.56600986249983,
          "velocity": 0.33070866141732286,
          "duration": 0.3437496562499973
        },
        {
          "name": "A#4",
          "midi": 70,
          "time": 61.56600986249983,
          "velocity": 0.3937007874015748,
          "duration": 0.5357137499999993
        },
        {
          "name": "A#5",
          "midi": 82,
          "time": 61.56600986249983,
          "velocity": 0.3779527559055118,
          "duration": 0.3919638937499954
        },
        {
          "name": "F#5",
          "midi": 78,
          "time": 61.577616993749835,
          "velocity": 0.29133858267716534,
          "duration": 0.40446388124999544
        },
        {
          "name": "C#4",
          "midi": 61,
          "time": 61.59368840624983,
          "velocity": 0.2755905511811024,
          "duration": 0.4276781437500006
        },
        {
          "name": "A#2",
          "midi": 46,
          "time": 63.04190124374983,
          "velocity": 0.3779527559055118,
          "duration": 0.2794640062499951
        },
        {
          "name": "D#1",
          "midi": 27,
          "time": 63.049936949999825,
          "velocity": 0.4015748031496063,
          "duration": 0.1758926812499979
        },
        {
          "name": "D#2",
          "midi": 39,
          "time": 63.05350837499982,
          "velocity": 0.3228346456692913,
          "duration": 0.3205353937499993
        },
        {
          "name": "F6",
          "midi": 89,
          "time": 64.17404296874982,
          "velocity": 0.48031496062992124,
          "duration": 0.8633919937499854
        },
        {
          "name": "A#5",
          "midi": 82,
          "time": 64.19011438124981,
          "velocity": 0.31496062992125984,
          "duration": 0.9116062312499906
        },
        {
          "name": "F5",
          "midi": 77,
          "time": 64.19368580624982,
          "velocity": 0.2440944881889764,
          "duration": 0.8517848624999829
        },
        {
          "name": "A#4",
          "midi": 70,
          "time": 64.20618579374981,
          "velocity": 0.29133858267716534,
          "duration": 0.7839277874999908
        },
        {
          "name": "F4",
          "midi": 65,
          "time": 64.21422149999981,
          "velocity": 0.2992125984251969,
          "duration": 0.6116065312500041
        },
        {
          "name": "F#4",
          "midi": 66,
          "time": 64.21779292499981,
          "velocity": 0.2440944881889764,
          "duration": 0.6598207687499951
        },
        {
          "name": "D#5",
          "midi": 75,
          "time": 65.5454701687498,
          "velocity": 0.3700787401574803,
          "duration": 0.12410701874999575
        },
        {
          "name": "F#6",
          "midi": 90,
          "time": 65.5454701687498,
          "velocity": 0.44881889763779526,
          "duration": 0.2080355062499848
        },
        {
          "name": "F#5",
          "midi": 78,
          "time": 65.5499344499998,
          "velocity": 0.4015748031496063,
          "duration": 0.1678569749999923
        },
        {
          "name": "A#4",
          "midi": 70,
          "time": 65.5535058749998,
          "velocity": 0.33858267716535434,
          "duration": 0.12053559374999168
        },
        {
          "name": "F#4",
          "midi": 66,
          "time": 65.5579701562498,
          "velocity": 0.3228346456692913,
          "duration": 0.1437498562499968
        },
        {
          "name": "A#5",
          "midi": 82,
          "time": 65.5579701562498,
          "velocity": 0.30708661417322836,
          "duration": 0.2955354187499921
        },
        {
          "name": "F6",
          "midi": 89,
          "time": 66.0213625499998,
          "velocity": 0.5275590551181102,
          "duration": 0.11607131249999725
        },
        {
          "name": "A#5",
          "midi": 82,
          "time": 66.02939825624979,
          "velocity": 0.4409448818897638,
          "duration": 0.14017843125000695
        },
        {
          "name": "F5",
          "midi": 77,
          "time": 66.03386253749979,
          "velocity": 0.4330708661417323,
          "duration": 0.08749991250000733
        },
        {
          "name": "F4",
          "midi": 65,
          "time": 66.03743396249979,
          "velocity": 0.4330708661417323,
          "duration": 0.12857130000000438
        },
        {
          "name": "A#4",
          "midi": 70,
          "time": 66.03743396249979,
          "velocity": 0.4094488188976378,
          "duration": 0.12410701875000996
        },
        {
          "name": "F#4",
          "midi": 66,
          "time": 66.07404106874979,
          "velocity": 0.25984251968503935,
          "duration": 0.08392848750000326
        },
        {
          "name": "D#5",
          "midi": 75,
          "time": 66.4061835937498,
          "velocity": 0.48031496062992124,
          "duration": 0.10803560624999875
        },
        {
          "name": "D#6",
          "midi": 87,
          "time": 66.4177907249998,
          "velocity": 0.4645669291338583,
          "duration": 0.12767844374999981
        },
        {
          "name": "A#5",
          "midi": 82,
          "time": 66.42136214999981,
          "velocity": 0.4094488188976378,
          "duration": 0.19285694999999237
        },
        {
          "name": "D#4",
          "midi": 63,
          "time": 66.4258264312498,
          "velocity": 0.3937007874015748,
          "duration": 0.11607131249999725
        },
        {
          "name": "A#4",
          "midi": 70,
          "time": 66.4258264312498,
          "velocity": 0.4330708661417323,
          "duration": 0.10357132500000432
        },
        {
          "name": "F#4",
          "midi": 66,
          "time": 66.4374335624998,
          "velocity": 0.30708661417322836,
          "duration": 0.12053559374999168
        },
        {
          "name": "F6",
          "midi": 89,
          "time": 66.7213618499998,
          "velocity": 0.5039370078740157,
          "duration": 0.09285704999999211
        },
        {
          "name": "F5",
          "midi": 77,
          "time": 66.73743326249979,
          "velocity": 0.4330708661417323,
          "duration": 0.07678563749999512
        },
        {
          "name": "A#5",
          "midi": 82,
          "time": 66.73743326249979,
          "velocity": 0.44881889763779526,
          "duration": 0.10446418124999468
        },
        {
          "name": "F4",
          "midi": 65,
          "time": 66.74189754374979,
          "velocity": 0.41732283464566927,
          "duration": 0.09999990000000025
        },
        {
          "name": "A#4",
          "midi": 70,
          "time": 66.74189754374979,
          "velocity": 0.44881889763779526,
          "duration": 0.10803560624999875
        },
        {
          "name": "F#4",
          "midi": 66,
          "time": 66.75796895624978,
          "velocity": 0.3700787401574803,
          "duration": 0.08749991250000733
        },
        {
          "name": "A#4",
          "midi": 70,
          "time": 67.02939725624978,
          "velocity": 0.4251968503937008,
          "duration": 0.09642847499999618
        },
        {
          "name": "D#6",
          "midi": 87,
          "time": 67.03386153749977,
          "velocity": 0.4881889763779528,
          "duration": 0.08035706249999919
        },
        {
          "name": "D#4",
          "midi": 63,
          "time": 67.03743296249978,
          "velocity": 0.4015748031496063,
          "duration": 0.06428565000000219
        },
        {
          "name": "D#5",
          "midi": 75,
          "time": 67.03743296249978,
          "velocity": 0.4645669291338583,
          "duration": 0.07678563749999512
        },
        {
          "name": "F#4",
          "midi": 66,
          "time": 67.04546866874978,
          "velocity": 0.3779527559055118,
          "duration": 0.052678518749999625
        },
        {
          "name": "A#5",
          "midi": 82,
          "time": 67.04546866874978,
          "velocity": 0.3858267716535433,
          "duration": 0.03214282499999399
        },
        {
          "name": "C#5",
          "midi": 73,
          "time": 67.32582553124978,
          "velocity": 0.4881889763779528,
          "duration": 0.08392848749998905
        },
        {
          "name": "C#6",
          "midi": 85,
          "time": 67.32939695624978,
          "velocity": 0.49606299212598426,
          "duration": 0.11607131249998304
        },
        {
          "name": "A#4",
          "midi": 70,
          "time": 67.34546836874978,
          "velocity": 0.4015748031496063,
          "duration": 0.09196419374998754
        },
        {
          "name": "C#4",
          "midi": 61,
          "time": 67.34993264999977,
          "velocity": 0.4094488188976378,
          "duration": 0.09196419374998754
        },
        {
          "name": "F#4",
          "midi": 66,
          "time": 67.35350407499978,
          "velocity": 0.36220472440944884,
          "duration": 0.04017853124999249
        },
        {
          "name": "A#5",
          "midi": 82,
          "time": 67.36600406249977,
          "velocity": 0.18110236220472442,
          "duration": 0.04374995624999656
        },
        {
          "name": "D#5",
          "midi": 75,
          "time": 67.66957518749977,
          "velocity": 0.4645669291338583,
          "duration": 0.14464271249998717
        },
        {
          "name": "D#6",
          "midi": 87,
          "time": 67.66957518749977,
          "velocity": 0.47244094488188976,
          "duration": 0.13660700624998867
        },
        {
          "name": "A#4",
          "midi": 70,
          "time": 67.68564659999977,
          "velocity": 0.3779527559055118,
          "duration": 0.14821413749999124
        },
        {
          "name": "A#5",
          "midi": 82,
          "time": 67.68564659999977,
          "velocity": 0.3700787401574803,
          "duration": 0.11607131249999725
        },
        {
          "name": "F#4",
          "midi": 66,
          "time": 67.69814658749976,
          "velocity": 0.29133858267716534,
          "duration": 0.10357132500000432
        },
        {
          "name": "D#4",
          "midi": 63,
          "time": 67.70171801249977,
          "velocity": 0.33858267716535434,
          "duration": 0.13214272499999424
        },
        {
          "name": "C#5",
          "midi": 73,
          "time": 68.05796765624976,
          "velocity": 0.4330708661417323,
          "duration": 0.15624984374998974
        },
        {
          "name": "C#6",
          "midi": 85,
          "time": 68.06153908124976,
          "velocity": 0.4409448818897638,
          "duration": 0.14017843124999274
        },
        {
          "name": "A#4",
          "midi": 70,
          "time": 68.07403906874976,
          "velocity": 0.3464566929133858,
          "duration": 0.12767844374999981
        },
        {
          "name": "C#4",
          "midi": 61,
          "time": 68.08207477499975,
          "velocity": 0.31496062992125984,
          "duration": 0.10357132500000432
        },
        {
          "name": "F#4",
          "midi": 66,
          "time": 68.08564619999976,
          "velocity": 0.30708661417322836,
          "duration": 0.11607131249999725
        },
        {
          "name": "A#5",
          "midi": 82,
          "time": 68.09368190624976,
          "velocity": 0.1732283464566929,
          "duration": 0.03571424999999806
        },
        {
          "name": "F#5",
          "midi": 78,
          "time": 68.45796725624974,
          "velocity": 0.3779527559055118,
          "duration": 0.1598212687499938
        },
        {
          "name": "A#4",
          "midi": 70,
          "time": 68.46600296249974,
          "velocity": 0.3464566929133858,
          "duration": 0.208035506249999
        },
        {
          "name": "C6",
          "midi": 84,
          "time": 68.46600296249974,
          "velocity": 0.3543307086614173,
          "duration": 0.11160703124998861
        },
        {
          "name": "C5",
          "midi": 72,
          "time": 68.46957438749975,
          "velocity": 0.2677165354330709,
          "duration": 0.11607131249998304
        },
        {
          "name": "C4",
          "midi": 60,
          "time": 68.47403866874974,
          "velocity": 0.36220472440944884,
          "duration": 0.1196427374999871
        },
        {
          "name": "F#4",
          "midi": 66,
          "time": 68.48207437499974,
          "velocity": 0.30708661417322836,
          "duration": 0.14732128125000088
        },
        {
          "name": "A#5",
          "midi": 82,
          "time": 68.49011008124974,
          "velocity": 0.2204724409448819,
          "duration": 0.12410701874999575
        },
        {
          "name": "D#6",
          "midi": 87,
          "time": 68.83743116249974,
          "velocity": 0.3858267716535433,
          "duration": 0.09642847499999618
        },
        {
          "name": "C#4",
          "midi": 61,
          "time": 69.00618099374974,
          "velocity": 0.3464566929133858,
          "duration": 0.175892681250005
        },
        {
          "name": "A#4",
          "midi": 70,
          "time": 69.00618099374974,
          "velocity": 0.33858267716535434,
          "duration": 0.1357141499999983
        },
        {
          "name": "F#4",
          "midi": 66,
          "time": 69.02135954999974,
          "velocity": 0.2440944881889764,
          "duration": 0.12410701874999575
        },
        {
          "name": "C#5",
          "midi": 73,
          "time": 69.03385953749974,
          "velocity": 0.2204724409448819,
          "duration": 0.15982126875000802
        },
        {
          "name": "A#5",
          "midi": 82,
          "time": 69.03743096249974,
          "velocity": 0.2992125984251969,
          "duration": 0.21249978750000764
        },
        {
          "name": "C#6",
          "midi": 85,
          "time": 69.03743096249974,
          "velocity": 0.4330708661417323,
          "duration": 0.21249978750000764
        },
        {
          "name": "A#4",
          "midi": 70,
          "time": 69.70618029374975,
          "velocity": 0.29133858267716534,
          "duration": 1.5392841749999917
        },
        {
          "name": "F#4",
          "midi": 66,
          "time": 69.70975171874976,
          "velocity": 0.28346456692913385,
          "duration": 0.25982116874999406
        },
        {
          "name": "A#5",
          "midi": 82,
          "time": 69.70975171874976,
          "velocity": 0.28346456692913385,
          "duration": 1.4678556749999814
        },
        {
          "name": "C#4",
          "midi": 61,
          "time": 69.72135884999976,
          "velocity": 0.2677165354330709,
          "duration": 0.37678533749998167
        },
        {
          "name": "F#5",
          "midi": 78,
          "time": 69.72582313124975,
          "velocity": 0.2440944881889764,
          "duration": 1.488391368749987
        },
        {
          "name": "A#3",
          "midi": 58,
          "time": 69.74189454374975,
          "velocity": 0.2440944881889764,
          "duration": 0.3437496562499973
        },
        {
          "name": "G#1",
          "midi": 32,
          "time": 70.80617919374974,
          "velocity": 0.4645669291338583,
          "duration": 0.1999998000000005
        },
        {
          "name": "G#2",
          "midi": 44,
          "time": 70.80617919374974,
          "velocity": 0.4251968503937008,
          "duration": 0.29999970000000076
        },
        {
          "name": "F#5",
          "midi": 78,
          "time": 71.72582113124975,
          "velocity": 0.47244094488188976,
          "duration": 0.25982116874999406
        },
        {
          "name": "F#4",
          "midi": 66,
          "time": 71.73385683749974,
          "velocity": 0.3858267716535433,
          "duration": 0.25624974374999
        },
        {
          "name": "F#3",
          "midi": 54,
          "time": 71.74189254374974,
          "velocity": 0.3543307086614173,
          "duration": 0.5437494562499978
        },
        {
          "name": "D#4",
          "midi": 63,
          "time": 71.74189254374974,
          "velocity": 0.36220472440944884,
          "duration": 0.34017823124999325
        },
        {
          "name": "C4",
          "midi": 60,
          "time": 71.76153538124974,
          "velocity": 0.30708661417322836,
          "duration": 0.4883923687499987
        },
        {
          "name": "C5",
          "midi": 72,
          "time": 71.76599966249974,
          "velocity": 0.29133858267716534,
          "duration": 0.5482137375000065
        },
        {
          "name": "G#4",
          "midi": 68,
          "time": 72.40974901874975,
          "velocity": 0.5275590551181102,
          "duration": 0.09999990000000025
        },
        {
          "name": "G#5",
          "midi": 80,
          "time": 72.40974901874975,
          "velocity": 0.5433070866141733,
          "duration": 0.12767844374999981
        },
        {
          "name": "G#3",
          "midi": 56,
          "time": 72.41778472499975,
          "velocity": 0.5039370078740157,
          "duration": 0.4241067187499965
        },
        {
          "name": "C6",
          "midi": 84,
          "time": 72.80617719374975,
          "velocity": 0.5669291338582677,
          "duration": 0.11160703124998861
        },
        {
          "name": "C5",
          "midi": 72,
          "time": 72.81421289999975,
          "velocity": 0.5511811023622047,
          "duration": 0.10357132499999011
        },
        {
          "name": "C4",
          "midi": 60,
          "time": 72.82582003124975,
          "velocity": 0.5118110236220472,
          "duration": 0.07589278124999055
        },
        {
          "name": "A#5",
          "midi": 82,
          "time": 73.29814098749974,
          "velocity": 0.5196850393700787,
          "duration": 0.36339249374998417
        },
        {
          "name": "A#4",
          "midi": 70,
          "time": 73.30171241249974,
          "velocity": 0.5433070866141733,
          "duration": 0.3919638937499883
        },
        {
          "name": "F#5",
          "midi": 78,
          "time": 73.30974811874974,
          "velocity": 0.4330708661417323,
          "duration": 0.37232105624998724
        },
        {
          "name": "F#4",
          "midi": 66,
          "time": 73.31421239999973,
          "velocity": 0.44881889763779526,
          "duration": 0.22767834374998586
        },
        {
          "name": "C#4",
          "midi": 61,
          "time": 73.32135524999973,
          "velocity": 0.3700787401574803,
          "duration": 0.3044639812499952
        },
        {
          "name": "A#3",
          "midi": 58,
          "time": 73.32581953124972,
          "velocity": 0.3937007874015748,
          "duration": 0.3196425375000018
        },
        {
          "name": "F#4",
          "midi": 66,
          "time": 74.03742596249973,
          "velocity": 0.48031496062992124,
          "duration": 1.1723202562500035
        },
        {
          "name": "F#5",
          "midi": 78,
          "time": 74.03742596249973,
          "velocity": 0.49606299212598426,
          "duration": 1.144641712500004
        },
        {
          "name": "F#3",
          "midi": 54,
          "time": 74.06153308124972,
          "velocity": 0.3937007874015748,
          "duration": 0.2482140375000057
        },
        {
          "name": "A2",
          "midi": 45,
          "time": 74.83385373749972,
          "velocity": 0.5196850393700787,
          "duration": 0.15624984375000395
        },
        {
          "name": "A1",
          "midi": 33,
          "time": 74.83742516249973,
          "velocity": 0.5905511811023622,
          "duration": 0.09196419375000175
        },
        {
          "name": "F#4",
          "midi": 66,
          "time": 75.34546036874973,
          "velocity": 0.5433070866141733,
          "duration": 0.21249978749997922
        },
        {
          "name": "F#5",
          "midi": 78,
          "time": 75.34546036874973,
          "velocity": 0.5196850393700787,
          "duration": 0.2080355062499848
        },
        {
          "name": "D#5",
          "midi": 75,
          "time": 75.36153178124972,
          "velocity": 0.3543307086614173,
          "duration": 0.1999997999999863
        },
        {
          "name": "C4",
          "midi": 60,
          "time": 75.36599606249972,
          "velocity": 0.3937007874015748,
          "duration": 0.1999997999999863
        },
        {
          "name": "D#4",
          "midi": 63,
          "time": 75.36599606249972,
          "velocity": 0.3858267716535433,
          "duration": 0.20357122499999036
        },
        {
          "name": "C5",
          "midi": 72,
          "time": 75.36599606249972,
          "velocity": 0.3700787401574803,
          "duration": 0.1999997999999863
        },
        {
          "name": "F#3",
          "midi": 54,
          "time": 75.37403176874972,
          "velocity": 0.3779527559055118,
          "duration": 0.1357141499999983
        },
        {
          "name": "F#4",
          "midi": 66,
          "time": 75.6936743062497,
          "velocity": 0.5511811023622047,
          "duration": 0.1678569749999923
        },
        {
          "name": "F#5",
          "midi": 78,
          "time": 75.6936743062497,
          "velocity": 0.5433070866141733,
          "duration": 0.1598212687499938
        },
        {
          "name": "D#4",
          "midi": 63,
          "time": 75.6981385874997,
          "velocity": 0.4094488188976378,
          "duration": 0.16339269374999787
        },
        {
          "name": "F#3",
          "midi": 54,
          "time": 75.7061742937497,
          "velocity": 0.4409448818897638,
          "duration": 0.14732128125000088
        },
        {
          "name": "C4",
          "midi": 60,
          "time": 75.7097457187497,
          "velocity": 0.41732283464566927,
          "duration": 0.13214272499999424
        },
        {
          "name": "D#5",
          "midi": 75,
          "time": 75.7097457187497,
          "velocity": 0.3779527559055118,
          "duration": 0.1598212687499938
        },
        {
          "name": "C5",
          "midi": 72,
          "time": 75.7142099999997,
          "velocity": 0.4409448818897638,
          "duration": 0.15535698749999938
        },
        {
          "name": "F#5",
          "midi": 78,
          "time": 75.98563829999969,
          "velocity": 0.5354330708661418,
          "duration": 0.1357141499999841
        },
        {
          "name": "F#4",
          "midi": 66,
          "time": 75.99010258124969,
          "velocity": 0.5275590551181102,
          "duration": 0.13124986874998967
        },
        {
          "name": "D#5",
          "midi": 75,
          "time": 75.99367400624969,
          "velocity": 0.4015748031496063,
          "duration": 0.1357141499999841
        },
        {
          "name": "F#3",
          "midi": 54,
          "time": 75.99813828749969,
          "velocity": 0.4566929133858268,
          "duration": 0.13124986874998967
        },
        {
          "name": "D#4",
          "midi": 63,
          "time": 75.99813828749969,
          "velocity": 0.4330708661417323,
          "duration": 0.11607131249999725
        },
        {
          "name": "C4",
          "midi": 60,
          "time": 76.00974541874969,
          "velocity": 0.44881889763779526,
          "duration": 0.10446418124999468
        },
        {
          "name": "C5",
          "midi": 72,
          "time": 76.00974541874969,
          "velocity": 0.4409448818897638,
          "duration": 0.1196427374999871
        },
        {
          "name": "F#4",
          "midi": 66,
          "time": 76.24545946874967,
          "velocity": 0.5669291338582677,
          "duration": 0.12857129999999017
        },
        {
          "name": "F#5",
          "midi": 78,
          "time": 76.24545946874967,
          "velocity": 0.5669291338582677,
          "duration": 0.14464271249998717
        },
        {
          "name": "D#5",
          "midi": 75,
          "time": 76.26153088124967,
          "velocity": 0.4015748031496063,
          "duration": 0.15267841874998567
        },
        {
          "name": "D#4",
          "midi": 63,
          "time": 76.26599516249966,
          "velocity": 0.4566929133858268,
          "duration": 0.1839283874999893
        },
        {
          "name": "C5",
          "midi": 72,
          "time": 76.26599516249966,
          "velocity": 0.4645669291338583,
          "duration": 0.1437498562499968
        },
        {
          "name": "F#3",
          "midi": 54,
          "time": 76.27403086874966,
          "velocity": 0.47244094488188976,
          "duration": 0.1357141499999983
        },
        {
          "name": "C4",
          "midi": 60,
          "time": 76.27403086874966,
          "velocity": 0.47244094488188976,
          "duration": 0.11964273750000132
        },
        {
          "name": "D#4",
          "midi": 63,
          "time": 76.53385203749966,
          "velocity": 0.4566929133858268,
          "duration": 0.12410701874999575
        },
        {
          "name": "G#5",
          "midi": 80,
          "time": 76.53385203749966,
          "velocity": 0.5748031496062992,
          "duration": 0.13214272499999424
        },
        {
          "name": "G#4",
          "midi": 68,
          "time": 76.54188774374965,
          "velocity": 0.5039370078740157,
          "duration": 0.08749991250000733
        },
        {
          "name": "C4",
          "midi": 60,
          "time": 76.54992344999965,
          "velocity": 0.47244094488188976,
          "duration": 0.08749991250000733
        },
        {
          "name": "G#3",
          "midi": 56,
          "time": 76.55349487499966,
          "velocity": 0.4566929133858268,
          "duration": 0.09999990000000025
        },
        {
          "name": "C5",
          "midi": 72,
          "time": 76.55349487499966,
          "velocity": 0.4409448818897638,
          "duration": 0.08035706249999919
        },
        {
          "name": "D#5",
          "midi": 75,
          "time": 76.55349487499966,
          "velocity": 0.4251968503937008,
          "duration": 0.07589278125000476
        },
        {
          "name": "F#4",
          "midi": 66,
          "time": 76.83385173749966,
          "velocity": 0.5511811023622047,
          "duration": 1.6517840625000133
        },
        {
          "name": "F#5",
          "midi": 78,
          "time": 76.83385173749966,
          "velocity": 0.5590551181102362,
          "duration": 1.6241055187500137
        },
        {
          "name": "D#4",
          "midi": 63,
          "time": 76.84992314999965,
          "velocity": 0.47244094488188976,
          "duration": 0.4276781437500006
        },
        {
          "name": "C5",
          "midi": 72,
          "time": 76.84992314999965,
          "velocity": 0.47244094488188976,
          "duration": 1.5598198687500116
        },
        {
          "name": "D#5",
          "midi": 75,
          "time": 76.84992314999965,
          "velocity": 0.41732283464566927,
          "duration": 1.5562484437500075
        },
        {
          "name": "F#3",
          "midi": 54,
          "time": 76.86153028124966,
          "velocity": 0.4409448818897638,
          "duration": 0.6160708124999985
        },
        {
          "name": "C4",
          "midi": 60,
          "time": 76.86153028124966,
          "velocity": 0.4251968503937008,
          "duration": 0.5598208687499948
        },
        {
          "name": "A#2",
          "midi": 46,
          "time": 78.18563609999966,
          "velocity": 0.49606299212598426,
          "duration": 0.14821413750000545
        },
        {
          "name": "A#1",
          "midi": 34,
          "time": 78.19367180624965,
          "velocity": 0.5039370078740157,
          "duration": 0.09999990000000025
        },
        {
          "name": "F#4",
          "midi": 66,
          "time": 78.76599266249967,
          "velocity": 0.5433070866141733,
          "duration": 0.2401783312500072
        },
        {
          "name": "F#5",
          "midi": 78,
          "time": 78.76599266249967,
          "velocity": 0.5354330708661418,
          "duration": 0.191964093750002
        },
        {
          "name": "C#4",
          "midi": 61,
          "time": 78.77402836874967,
          "velocity": 0.49606299212598426,
          "duration": 0.3999996000000152
        },
        {
          "name": "F#3",
          "midi": 54,
          "time": 78.77759979374967,
          "velocity": 0.48031496062992124,
          "duration": 0.4999995000000155
        },
        {
          "name": "A#4",
          "midi": 70,
          "time": 78.78206407499967,
          "velocity": 0.44881889763779526,
          "duration": 0.45535668750001435
        },
        {
          "name": "C#5",
          "midi": 73,
          "time": 78.78563549999967,
          "velocity": 0.3779527559055118,
          "duration": 0.4723209562500159
        },
        {
          "name": "A#3",
          "midi": 58,
          "time": 78.79009978124967,
          "velocity": 0.3543307086614173,
          "duration": 0.3874996125000223
        },
        {
          "name": "G#4",
          "midi": 68,
          "time": 79.30617069374969,
          "velocity": 0.5511811023622047,
          "duration": 0.10357132500000432
        },
        {
          "name": "G#5",
          "midi": 80,
          "time": 79.30617069374969,
          "velocity": 0.5669291338582677,
          "duration": 0.15178556250000952
        },
        {
          "name": "G#3",
          "midi": 56,
          "time": 79.3213492499997,
          "velocity": 0.5196850393700787,
          "duration": 0.5160709125000125
        },
        {
          "name": "C#5",
          "midi": 73,
          "time": 79.7695630874997,
          "velocity": 0.5826771653543307,
          "duration": 0.13214272500000845
        },
        {
          "name": "C#6",
          "midi": 85,
          "time": 79.7695630874997,
          "velocity": 0.5669291338582677,
          "duration": 0.12053559375000589
        },
        {
          "name": "C#4",
          "midi": 61,
          "time": 79.79813448749971,
          "velocity": 0.49606299212598426,
          "duration": 0.12321416250000539
        },
        {
          "name": "A#5",
          "midi": 82,
          "time": 80.27402686874971,
          "velocity": 0.5511811023622047,
          "duration": 0.3357139499999988
        },
        {
          "name": "A#4",
          "midi": 70,
          "time": 80.28206257499971,
          "velocity": 0.5669291338582677,
          "duration": 0.3473210812500014
        },
        {
          "name": "F#4",
          "midi": 66,
          "time": 80.29009828124971,
          "velocity": 0.49606299212598426,
          "duration": 0.208035506249999
        },
        {
          "name": "F#5",
          "midi": 78,
          "time": 80.29009828124971,
          "velocity": 0.4566929133858268,
          "duration": 0.3392853750000029
        },
        {
          "name": "A#3",
          "midi": 58,
          "time": 80.30170541249971,
          "velocity": 0.44881889763779526,
          "duration": 0.208035506249999
        },
        {
          "name": "C#4",
          "midi": 61,
          "time": 80.30170541249971,
          "velocity": 0.41732283464566927,
          "duration": 0.29999970000000076
        },
        {
          "name": "F#5",
          "midi": 78,
          "time": 80.97402616874972,
          "velocity": 0.5590551181102362,
          "duration": 1.3160701125000003
        },
        {
          "name": "F#4",
          "midi": 66,
          "time": 80.97759759374972,
          "velocity": 0.5433070866141733,
          "duration": 1.3285700999999932
        },
        {
          "name": "F#3",
          "midi": 54,
          "time": 80.99009758124971,
          "velocity": 0.4881889763779528,
          "duration": 0.3276782437500003
        },
        {
          "name": "C2",
          "midi": 36,
          "time": 81.81420389999971,
          "velocity": 0.5748031496062992,
          "duration": 0.12767844374999981
        },
        {
          "name": "C3",
          "midi": 48,
          "time": 81.81777532499972,
          "velocity": 0.5275590551181102,
          "duration": 0.2160712124999975
        },
        {
          "name": "F#5",
          "midi": 78,
          "time": 82.5213460499997,
          "velocity": 0.5196850393700787,
          "duration": 0.24821403749997728
        },
        {
          "name": "F#3",
          "midi": 54,
          "time": 82.5293817562497,
          "velocity": 0.3937007874015748,
          "duration": 0.24017833124997878
        },
        {
          "name": "D#4",
          "midi": 63,
          "time": 82.5293817562497,
          "velocity": 0.4015748031496063,
          "duration": 0.24821403749997728
        },
        {
          "name": "F#4",
          "midi": 66,
          "time": 82.5293817562497,
          "velocity": 0.5118110236220472,
          "duration": 0.2241069187499818
        },
        {
          "name": "A#3",
          "midi": 58,
          "time": 82.5374174624997,
          "velocity": 0.36220472440944884,
          "duration": 0.24017833124997878
        },
        {
          "name": "A#4",
          "midi": 70,
          "time": 82.5499174499997,
          "velocity": 0.3543307086614173,
          "duration": 0.17946410624999487
        },
        {
          "name": "D#5",
          "midi": 75,
          "time": 82.5499174499997,
          "velocity": 0.31496062992125984,
          "duration": 0.2160712124999833
        },
        {
          "name": "F#4",
          "midi": 66,
          "time": 82.91420279999969,
          "velocity": 0.5905511811023622,
          "duration": 0.13124986875000388
        },
        {
          "name": "F#5",
          "midi": 78,
          "time": 82.91420279999969,
          "velocity": 0.5669291338582677,
          "duration": 0.1437498562499968
        },
        {
          "name": "D#4",
          "midi": 63,
          "time": 82.92580993124969,
          "velocity": 0.4645669291338583,
          "duration": 0.11964273750000132
        },
        {
          "name": "A#4",
          "midi": 70,
          "time": 82.92580993124969,
          "velocity": 0.4645669291338583,
          "duration": 0.0321428250000082
        },
        {
          "name": "F#3",
          "midi": 54,
          "time": 82.92938135624969,
          "velocity": 0.4566929133858268,
          "duration": 0.12857129999999017
        },
        {
          "name": "A#3",
          "midi": 58,
          "time": 82.92938135624969,
          "velocity": 0.4251968503937008,
          "duration": 0.12857129999999017
        },
        {
          "name": "D#5",
          "midi": 75,
          "time": 82.92938135624969,
          "velocity": 0.4015748031496063,
          "duration": 0.12410701874999575
        },
        {
          "name": "F#4",
          "midi": 66,
          "time": 83.18563109999968,
          "velocity": 0.5669291338582677,
          "duration": 0.10446418124999468
        },
        {
          "name": "F#5",
          "midi": 78,
          "time": 83.18563109999968,
          "velocity": 0.5511811023622047,
          "duration": 0.12053559374999168
        },
        {
          "name": "F#3",
          "midi": 54,
          "time": 83.19813108749968,
          "velocity": 0.4566929133858268,
          "duration": 0.09999990000000025
        },
        {
          "name": "D#4",
          "midi": 63,
          "time": 83.19813108749968,
          "velocity": 0.44881889763779526,
          "duration": 0.09999990000000025
        },
        {
          "name": "D#5",
          "midi": 75,
          "time": 83.19813108749968,
          "velocity": 0.41732283464566927,
          "duration": 0.10803560624999875
        },
        {
          "name": "A#4",
          "midi": 70,
          "time": 83.20170251249968,
          "velocity": 0.44881889763779526,
          "duration": 0.027678543749999562
        },
        {
          "name": "A#3",
          "midi": 58,
          "time": 83.20973821874968,
          "velocity": 0.4094488188976378,
          "duration": 0.09642847499999618
        },
        {
          "name": "F#4",
          "midi": 66,
          "time": 83.42938085624968,
          "velocity": 0.6299212598425197,
          "duration": 0.10803560624999875
        },
        {
          "name": "D#4",
          "midi": 63,
          "time": 83.43741656249968,
          "velocity": 0.5196850393700787,
          "duration": 0.10803560624999875
        },
        {
          "name": "F#5",
          "midi": 78,
          "time": 83.43741656249968,
          "velocity": 0.5433070866141733,
          "duration": 0.11249988749999318
        },
        {
          "name": "F#3",
          "midi": 54,
          "time": 83.44545226874968,
          "velocity": 0.44881889763779526,
          "duration": 0.11607131249999725
        },
        {
          "name": "A#4",
          "midi": 70,
          "time": 83.44545226874968,
          "velocity": 0.4881889763779528,
          "duration": 0.028571400000004132
        },
        {
          "name": "D#5",
          "midi": 75,
          "time": 83.44991654999967,
          "velocity": 0.4251968503937008,
          "duration": 0.10357132500000432
        },
        {
          "name": "A#3",
          "midi": 58,
          "time": 83.45348797499967,
          "velocity": 0.4330708661417323,
          "duration": 0.13214272499999424
        },
        {
          "name": "G#5",
          "midi": 80,
          "time": 83.66152348124967,
          "velocity": 0.5669291338582677,
          "duration": 0.11607131249999725
        },
        {
          "name": "C4",
          "midi": 60,
          "time": 83.67759489374967,
          "velocity": 0.47244094488188976,
          "duration": 0.08839276874999769
        },
        {
          "name": "F4",
          "midi": 65,
          "time": 83.67759489374967,
          "velocity": 0.4330708661417323,
          "duration": 0.08392848750000326
        },
        {
          "name": "G#4",
          "midi": 68,
          "time": 83.68205917499967,
          "velocity": 0.5511811023622047,
          "duration": 0.06785707500000626
        },
        {
          "name": "G#3",
          "midi": 56,
          "time": 83.69009488124966,
          "velocity": 0.44881889763779526,
          "duration": 0.09999990000000025
        },
        {
          "name": "C5",
          "midi": 72,
          "time": 83.69366630624967,
          "velocity": 0.48031496062992124,
          "duration": 0.0482142375000052
        },
        {
          "name": "D#4",
          "midi": 63,
          "time": 83.96152318124966,
          "velocity": 0.5433070866141733,
          "duration": 0.33660680624997497
        },
        {
          "name": "F#5",
          "midi": 78,
          "time": 83.96152318124966,
          "velocity": 0.5905511811023622,
          "duration": 1.47231995624999
        },
        {
          "name": "F#4",
          "midi": 66,
          "time": 83.96955888749966,
          "velocity": 0.5905511811023622,
          "duration": 1.491962793749991
        },
        {
          "name": "F#3",
          "midi": 54,
          "time": 83.97759459374966,
          "velocity": 0.49606299212598426,
          "duration": 0.5044637812499815
        },
        {
          "name": "A#3",
          "midi": 58,
          "time": 83.97759459374966,
          "velocity": 0.4645669291338583,
          "duration": 0.516070912499984
        },
        {
          "name": "A#4",
          "midi": 70,
          "time": 83.98205887499965,
          "velocity": 0.4881889763779528,
          "duration": 1.3116058312500058
        },
        {
          "name": "D#5",
          "midi": 75,
          "time": 83.98205887499965,
          "velocity": 0.44881889763779526,
          "duration": 1.395534318749995
        },
        {
          "name": "C#2",
          "midi": 37,
          "time": 85.14187914374965,
          "velocity": 0.5826771653543307,
          "duration": 0.12767844375001403
        },
        {
          "name": "C#3",
          "midi": 49,
          "time": 85.14545056874965,
          "velocity": 0.5511811023622047,
          "duration": 0.16071412499999838
        },
        {
          "name": "F#4",
          "midi": 66,
          "time": 85.70170001249964,
          "velocity": 0.6062992125984252,
          "duration": 0.1517855624999953
        },
        {
          "name": "F#5",
          "midi": 78,
          "time": 85.70170001249964,
          "velocity": 0.5905511811023622,
          "duration": 0.15624984374998974
        },
        {
          "name": "C#4",
          "midi": 61,
          "time": 85.70973571874964,
          "velocity": 0.5433070866141733,
          "duration": 0.3116068312499891
        },
        {
          "name": "A#4",
          "midi": 70,
          "time": 85.70973571874964,
          "velocity": 0.5118110236220472,
          "duration": 0.3919638937499883
        },
        {
          "name": "F#3",
          "midi": 54,
          "time": 85.71777142499964,
          "velocity": 0.5118110236220472,
          "duration": 0.40357102499999087
        },
        {
          "name": "A#3",
          "midi": 58,
          "time": 85.71777142499964,
          "velocity": 0.49606299212598426,
          "duration": 0.3035711249999906
        },
        {
          "name": "C#5",
          "midi": 73,
          "time": 85.71777142499964,
          "velocity": 0.4094488188976378,
          "duration": 0.41160673124998937
        },
        {
          "name": "G#4",
          "midi": 68,
          "time": 86.16152098124962,
          "velocity": 0.5984251968503937,
          "duration": 0.08392848749998905
        },
        {
          "name": "G#5",
          "midi": 80,
          "time": 86.16598526249962,
          "velocity": 0.5748031496062992,
          "duration": 0.12410701874999575
        },
        {
          "name": "G#3",
          "midi": 56,
          "time": 86.17402096874962,
          "velocity": 0.5748031496062992,
          "duration": 0.47142809999999713
        },
        {
          "name": "D#5",
          "midi": 75,
          "time": 86.60973481874962,
          "velocity": 0.5748031496062992,
          "duration": 0.09999990000000025
        },
        {
          "name": "D#6",
          "midi": 87,
          "time": 86.60973481874962,
          "velocity": 0.5826771653543307,
          "duration": 0.09999990000000025
        },
        {
          "name": "D#4",
          "midi": 63,
          "time": 86.62937765624962,
          "velocity": 0.5275590551181102,
          "duration": 0.10803560624999875
        },
        {
          "name": "C#6",
          "midi": 85,
          "time": 87.03741296249962,
          "velocity": 0.6141732283464567,
          "duration": 0.16071412499999838
        },
        {
          "name": "C#5",
          "midi": 73,
          "time": 87.04187724374961,
          "velocity": 0.6220472440944882,
          "duration": 0.16785697500000651
        },
        {
          "name": "G#5",
          "midi": 80,
          "time": 87.05348437499961,
          "velocity": 0.5196850393700787,
          "duration": 0.22053549375000614
        },
        {
          "name": "F#4",
          "midi": 66,
          "time": 87.05794865624961,
          "velocity": 0.5590551181102362,
          "duration": 0.30803540625001347
        },
        {
          "name": "C#4",
          "midi": 61,
          "time": 87.06152008124961,
          "velocity": 0.4881889763779528,
          "duration": 0.28392828750000376
        },
        {
          "name": "A#3",
          "midi": 58,
          "time": 87.06955578749961,
          "velocity": 0.49606299212598426,
          "duration": 0.18839266875001215
        },
        {
          "name": "A#5",
          "midi": 82,
          "time": 87.58562669999962,
          "velocity": 0.5826771653543307,
          "duration": 0.9642847500000045
        },
        {
          "name": "A#4",
          "midi": 70,
          "time": 87.59009098124962,
          "velocity": 0.5826771653543307,
          "duration": 1.0678560750000088
        },
        {
          "name": "A#3",
          "midi": 58,
          "time": 87.60169811249962,
          "velocity": 0.5669291338582677,
          "duration": 0.16428555000000244
        },
        {
          "name": "D#2",
          "midi": 39,
          "time": 88.19009038124962,
          "velocity": 0.6299212598425197,
          "duration": 0.20357122500000457
        },
        {
          "name": "D#3",
          "midi": 51,
          "time": 88.19009038124962,
          "velocity": 0.5905511811023622,
          "duration": 0.27589258125000526
        },
        {
          "name": "A#4",
          "midi": 70,
          "time": 88.79366120624962,
          "velocity": 0.5905511811023622,
          "duration": 0.25178546249999556
        },
        {
          "name": "A#5",
          "midi": 82,
          "time": 88.79812548749962,
          "velocity": 0.5275590551181102,
          "duration": 0.25535688749999963
        },
        {
          "name": "F#5",
          "midi": 78,
          "time": 88.80169691249962,
          "velocity": 0.5196850393700787,
          "duration": 0.23571404999999856
        },
        {
          "name": "F#4",
          "midi": 66,
          "time": 88.80973261874962,
          "velocity": 0.5354330708661418,
          "duration": 0.25624974374999
        },
        {
          "name": "A#3",
          "midi": 58,
          "time": 88.81419689999962,
          "velocity": 0.5118110236220472,
          "duration": 0.23124976875000414
        },
        {
          "name": "C#4",
          "midi": 61,
          "time": 88.82580403124962,
          "velocity": 0.3700787401574803,
          "duration": 0.240178331249993
        },
        {
          "name": "A#4",
          "midi": 70,
          "time": 89.17758939374961,
          "velocity": 0.6062992125984252,
          "duration": 0.11607131249999725
        },
        {
          "name": "A#5",
          "midi": 82,
          "time": 89.18205367499961,
          "velocity": 0.5118110236220472,
          "duration": 0.13214272499999424
        },
        {
          "name": "F#4",
          "midi": 66,
          "time": 89.18562509999961,
          "velocity": 0.5196850393700787,
          "duration": 0.10446418124999468
        },
        {
          "name": "F#5",
          "midi": 78,
          "time": 89.18562509999961,
          "velocity": 0.5196850393700787,
          "duration": 0.10803560624999875
        },
        {
          "name": "A#3",
          "midi": 58,
          "time": 89.19366080624961,
          "velocity": 0.47244094488188976,
          "duration": 0.09999990000000025
        },
        {
          "name": "C#4",
          "midi": 61,
          "time": 89.20169651249961,
          "velocity": 0.3858267716535433,
          "duration": 0.10446418124999468
        },
        {
          "name": "A#4",
          "midi": 70,
          "time": 89.4213391499996,
          "velocity": 0.6141732283464567,
          "duration": 0.10803560624999875
        },
        {
          "name": "A#5",
          "midi": 82,
          "time": 89.42580343124959,
          "velocity": 0.5196850393700787,
          "duration": 0.12767844374999981
        },
        {
          "name": "F#5",
          "midi": 78,
          "time": 89.4293748562496,
          "velocity": 0.5196850393700787,
          "duration": 0.09999990000000025
        },
        {
          "name": "F#4",
          "midi": 66,
          "time": 89.43383913749959,
          "velocity": 0.5275590551181102,
          "duration": 0.09999990000000025
        },
        {
          "name": "A#3",
          "midi": 58,
          "time": 89.44187484374959,
          "velocity": 0.4881889763779528,
          "duration": 0.10357132500000432
        },
        {
          "name": "C#4",
          "midi": 61,
          "time": 89.44544626874959,
          "velocity": 0.4566929133858268,
          "duration": 0.09999990000000025
        },
        {
          "name": "A#4",
          "midi": 70,
          "time": 89.66598176249958,
          "velocity": 0.6220472440944882,
          "duration": 0.09553561875000582
        },
        {
          "name": "F#5",
          "midi": 78,
          "time": 89.66955318749959,
          "velocity": 0.5196850393700787,
          "duration": 0.1839283874999893
        },
        {
          "name": "A#3",
          "midi": 58,
          "time": 89.67758889374959,
          "velocity": 0.5196850393700787,
          "duration": 0.13660700624998867
        },
        {
          "name": "A#5",
          "midi": 82,
          "time": 89.67758889374959,
          "velocity": 0.5196850393700787,
          "duration": 0.1598212687499938
        },
        {
          "name": "F#4",
          "midi": 66,
          "time": 89.68205317499958,
          "velocity": 0.5433070866141733,
          "duration": 0.10357132500000432
        },
        {
          "name": "C#4",
          "midi": 61,
          "time": 89.68562459999958,
          "velocity": 0.4409448818897638,
          "duration": 0.10446418124999468
        },
        {
          "name": "F#5",
          "midi": 78,
          "time": 89.91776722499958,
          "velocity": 0.5196850393700787,
          "duration": 0.1357141499999983
        },
        {
          "name": "G#4",
          "midi": 68,
          "time": 89.92133864999958,
          "velocity": 0.5590551181102362,
          "duration": 0.11607131249999725
        },
        {
          "name": "C6",
          "midi": 84,
          "time": 89.92580293124958,
          "velocity": 0.5905511811023622,
          "duration": 0.14821413750000545
        },
        {
          "name": "C5",
          "midi": 72,
          "time": 89.92937435624958,
          "velocity": 0.5669291338582677,
          "duration": 0.09642847499999618
        },
        {
          "name": "C4",
          "midi": 60,
          "time": 89.93383863749958,
          "velocity": 0.5196850393700787,
          "duration": 0.14821413750000545
        },
        {
          "name": "D#4",
          "midi": 63,
          "time": 89.96955288749957,
          "velocity": 0.2755905511811024,
          "duration": 0.04464281250000113
        },
        {
          "name": "A#4",
          "midi": 70,
          "time": 90.24187404374958,
          "velocity": 0.5905511811023622,
          "duration": 0.11607131249999725
        },
        {
          "name": "F#4",
          "midi": 66,
          "time": 90.24990974999957,
          "velocity": 0.5669291338582677,
          "duration": 0.11964273750000132
        },
        {
          "name": "F#5",
          "midi": 78,
          "time": 90.24990974999957,
          "velocity": 0.5275590551181102,
          "duration": 0.15624984374998974
        },
        {
          "name": "A#3",
          "midi": 58,
          "time": 90.25794545624957,
          "velocity": 0.5275590551181102,
          "duration": 0.1357141499999983
        },
        {
          "name": "A#5",
          "midi": 82,
          "time": 90.25794545624957,
          "velocity": 0.49606299212598426,
          "duration": 0.1357141499999983
        },
        {
          "name": "C#4",
          "midi": 61,
          "time": 90.27401686874957,
          "velocity": 0.44881889763779526,
          "duration": 0.10803560624999875
        },
        {
          "name": "C#4",
          "midi": 61,
          "time": 90.63740936249957,
          "velocity": 0.5433070866141733,
          "duration": 0.2687497312499971
        },
        {
          "name": "C#5",
          "midi": 73,
          "time": 90.64544506874957,
          "velocity": 0.5433070866141733,
          "duration": 0.18035696249999944
        },
        {
          "name": "F#5",
          "midi": 78,
          "time": 90.64544506874957,
          "velocity": 0.5433070866141733,
          "duration": 0.32410681874999625
        },
        {
          "name": "C#6",
          "midi": 85,
          "time": 90.64544506874957,
          "velocity": 0.5748031496062992,
          "duration": 0.18839266874999794
        },
        {
          "name": "F#4",
          "midi": 66,
          "time": 90.66151648124956,
          "velocity": 0.4645669291338583,
          "duration": 0.2160712124999975
        },
        {
          "name": "D#6",
          "midi": 87,
          "time": 90.94187334374956,
          "velocity": 0.2047244094488189,
          "duration": 0.04017853124999249
        },
        {
          "name": "D#6",
          "midi": 87,
          "time": 91.09365890624956,
          "velocity": 0.5905511811023622,
          "duration": 0.36428534999998874
        },
        {
          "name": "D#5",
          "midi": 75,
          "time": 91.09812318749955,
          "velocity": 0.5196850393700787,
          "duration": 0.23928547500000263
        },
        {
          "name": "D#4",
          "midi": 63,
          "time": 91.10169461249956,
          "velocity": 0.4566929133858268,
          "duration": 0.09999990000000025
        },
        {
          "name": "F#4",
          "midi": 66,
          "time": 91.10169461249956,
          "velocity": 0.48031496062992124,
          "duration": 0.10803560624999875
        },
        {
          "name": "F#5",
          "midi": 78,
          "time": 91.10615889374955,
          "velocity": 0.49606299212598426,
          "duration": 0.29196399375000226
        },
        {
          "name": "F4",
          "midi": 65,
          "time": 91.49365850624955,
          "velocity": 0.5275590551181102,
          "duration": 1.5080342062500165
        },
        {
          "name": "G#4",
          "midi": 68,
          "time": 91.57401556874954,
          "velocity": 0.4566929133858268,
          "duration": 1.5794627062500126
        },
        {
          "name": "C#5",
          "midi": 73,
          "time": 91.63740836249954,
          "velocity": 0.33858267716535434,
          "duration": 1.5241056187500135
        },
        {
          "name": "F5",
          "midi": 77,
          "time": 91.67758689374955,
          "velocity": 0.4015748031496063,
          "duration": 1.1562488437500065
        },
        {
          "name": "G#5",
          "midi": 80,
          "time": 91.74187254374955,
          "velocity": 0.3779527559055118,
          "duration": 2.095533618750011
        },
        {
          "name": "C#6",
          "midi": 85,
          "time": 91.80972961874956,
          "velocity": 0.41732283464566927,
          "duration": 1.999998000000005
        },
        {
          "name": "G#6",
          "midi": 92,
          "time": 91.93740806249956,
          "velocity": 0.4881889763779528,
          "duration": 1.8562481437500082
        },
        {
          "name": "E4",
          "midi": 64,
          "time": 93.68204917499956,
          "velocity": 0.4015748031496063,
          "duration": 0.18749981249999337
        },
        {
          "name": "G#4",
          "midi": 68,
          "time": 93.84544186874956,
          "velocity": 0.36220472440944884,
          "duration": 0.15267841874999988
        },
        {
          "name": "A#4",
          "midi": 70,
          "time": 93.94187034374956,
          "velocity": 0.3464566929133858,
          "duration": 0.07232135625000069
        },
        {
          "name": "C#5",
          "midi": 73,
          "time": 94.02222740624956,
          "velocity": 0.41732283464566927,
          "duration": 0.07946420624999462
        },
        {
          "name": "E5",
          "midi": 76,
          "time": 94.14187014374956,
          "velocity": 0.44881889763779526,
          "duration": 0.11607131249999725
        },
        {
          "name": "G#5",
          "midi": 80,
          "time": 94.21419149999956,
          "velocity": 0.3228346456692913,
          "duration": 1.09196319374999
        },
        {
          "name": "C#6",
          "midi": 85,
          "time": 94.28561999999955,
          "velocity": 0.3464566929133858,
          "duration": 0.9517847624999831
        },
        {
          "name": "G#6",
          "midi": 92,
          "time": 94.39811988749955,
          "velocity": 0.48031496062992124,
          "duration": 0.9080348062500008
        },
        {
          "name": "D#4",
          "midi": 63,
          "time": 95.16597626249954,
          "velocity": 0.4015748031496063,
          "duration": 1.040177531249995
        },
        {
          "name": "F#4",
          "midi": 66,
          "time": 95.29811898749955,
          "velocity": 0.1732283464566929,
          "duration": 0.9080348062499866
        },
        {
          "name": "G#4",
          "midi": 68,
          "time": 95.30972611874955,
          "velocity": 0.3464566929133858,
          "duration": 0.7839277874999908
        },
        {
          "name": "C#5",
          "midi": 73,
          "time": 95.40972601874955,
          "velocity": 0.29133858267716534,
          "duration": 0.8321420249999818
        },
        {
          "name": "D#5",
          "midi": 75,
          "time": 95.49365450624956,
          "velocity": 0.41732283464566927,
          "duration": 0.708035006249986
        },
        {
          "name": "G#5",
          "midi": 80,
          "time": 95.60615439374955,
          "velocity": 0.31496062992125984,
          "duration": 1.0874989124999672
        },
        {
          "name": "C#6",
          "midi": 85,
          "time": 95.69008288124955,
          "velocity": 0.3464566929133858,
          "duration": 0.9437490562499704
        },
        {
          "name": "G#6",
          "midi": 92,
          "time": 95.82222560624955,
          "velocity": 0.3858267716535433,
          "duration": 0.8071420499999817
        },
        {
          "name": "G#3",
          "midi": 56,
          "time": 97.39365260624952,
          "velocity": 0.33070866141732286,
          "duration": 0.2883925687499982
        },
        {
          "name": "D#4",
          "midi": 63,
          "time": 97.70168801249952,
          "velocity": 0.3543307086614173,
          "duration": 2.1241050187499866
        },
        {
          "name": "F#4",
          "midi": 66,
          "time": 97.92579493124951,
          "velocity": 0.3543307086614173,
          "duration": 1.8678552749999966
        },
        {
          "name": "C5",
          "midi": 72,
          "time": 98.12936615624952,
          "velocity": 0.30708661417322836,
          "duration": 1.692855449999982
        },
        {
          "name": "G#4",
          "midi": 68,
          "time": 98.36150878124951,
          "velocity": 0.2992125984251969,
          "duration": 1.408034306250002
        },
        {
          "name": "D#5",
          "midi": 75,
          "time": 98.65347277499951,
          "velocity": 0.23622047244094488,
          "duration": 1.1642845499999908
        },
        {
          "name": "G#5",
          "midi": 80,
          "time": 99.28204357499952,
          "velocity": 0.3228346456692913,
          "duration": 0.6874993124999804
        },
        {
          "name": "C#2",
          "midi": 37,
          "time": 100.1695426874995,
          "velocity": 0.3779527559055118,
          "duration": 0.7080350062500003
        },
        {
          "name": "G#4",
          "midi": 68,
          "time": 100.3257925312495,
          "velocity": 0.4015748031496063,
          "duration": 1.9116052312500074
        },
        {
          "name": "F4",
          "midi": 65,
          "time": 100.3338282374995,
          "velocity": 0.41732283464566927,
          "duration": 0.9116062312500048
        },
        {
          "name": "G#2",
          "midi": 44,
          "time": 100.8775776937495,
          "velocity": 0.30708661417322836,
          "duration": 0.23660690625000314
        },
        {
          "name": "C#3",
          "midi": 49,
          "time": 101.0856131999995,
          "velocity": 0.3543307086614173,
          "duration": 0.2803568625000139
        },
        {
          "name": "F3",
          "midi": 53,
          "time": 101.2418630437495,
          "velocity": 0.31496062992125984,
          "duration": 0.21964263750001578
        },
        {
          "name": "G#3",
          "midi": 56,
          "time": 101.37757719374952,
          "velocity": 0.33070866141732286,
          "duration": 0.21249978750000764
        },
        {
          "name": "C#4",
          "midi": 61,
          "time": 101.52579133124952,
          "velocity": 0.31496062992125984,
          "duration": 0.2482140374999915
        },
        {
          "name": "F2",
          "midi": 41,
          "time": 101.65346977499952,
          "velocity": 0.3464566929133858,
          "duration": 0.4883923687499845
        },
        {
          "name": "C3",
          "midi": 48,
          "time": 101.80614819374951,
          "velocity": 0.30708661417322836,
          "duration": 0.3517853624999958
        },
        {
          "name": "F3",
          "midi": 53,
          "time": 101.95346947499951,
          "velocity": 0.33070866141732286,
          "duration": 0.4803566625000002
        },
        {
          "name": "G#3",
          "midi": 56,
          "time": 102.08204077499951,
          "velocity": 0.30708661417322836,
          "duration": 0.1437498562499968
        },
        {
          "name": "C4",
          "midi": 60,
          "time": 102.2222192062495,
          "velocity": 0.3700787401574803,
          "duration": 0.12767844374999981
        },
        {
          "name": "F4",
          "midi": 65,
          "time": 102.36150478124951,
          "velocity": 0.4251968503937008,
          "duration": 0.056249943750003695
        },
        {
          "name": "G#2",
          "midi": 44,
          "time": 102.56150458124951,
          "velocity": 0.3464566929133858,
          "duration": 0.5964279749999974
        },
        {
          "name": "B4",
          "midi": 71,
          "time": 102.56150458124951,
          "velocity": 0.44881889763779526,
          "duration": 0.46071382499999913
        },
        {
          "name": "G#4",
          "midi": 68,
          "time": 102.5659688624995,
          "velocity": 0.3779527559055118,
          "duration": 0.4517852625000103
        },
        {
          "name": "E3",
          "midi": 52,
          "time": 102.7373972624995,
          "velocity": 0.3464566929133858,
          "duration": 0.3285711000000049
        },
        {
          "name": "G#3",
          "midi": 56,
          "time": 102.8775756937495,
          "velocity": 0.3543307086614173,
          "duration": 0.20446408124999493
        },
        {
          "name": "B3",
          "midi": 59,
          "time": 103.01418269999951,
          "velocity": 0.25196850393700787,
          "duration": 0.11517845624999268
        },
        {
          "name": "C#5",
          "midi": 73,
          "time": 103.2097182187495,
          "velocity": 0.4015748031496063,
          "duration": 0.1839283874999893
        },
        {
          "name": "E4",
          "midi": 64,
          "time": 103.2141824999995,
          "velocity": 0.33070866141732286,
          "duration": 0.23928547499998842
        },
        {
          "name": "G#4",
          "midi": 68,
          "time": 103.3775751937495,
          "velocity": 0.3228346456692913,
          "duration": 0.08035706249998498
        },
        {
          "name": "C#2",
          "midi": 37,
          "time": 103.58561069999948,
          "velocity": 0.33858267716535434,
          "duration": 0.28392828749998955
        },
        {
          "name": "G#4",
          "midi": 68,
          "time": 103.58561069999948,
          "velocity": 0.4409448818897638,
          "duration": 1.5437484562500146
        },
        {
          "name": "F4",
          "midi": 65,
          "time": 103.59811068749947,
          "velocity": 0.36220472440944884,
          "duration": 0.31607111249999775
        },
        {
          "name": "G#2",
          "midi": 44,
          "time": 103.86596756249946,
          "velocity": 0.23622047244094488,
          "duration": 0.1839283875000035
        },
        {
          "name": "C#3",
          "midi": 49,
          "time": 104.01418169999947,
          "velocity": 0.30708661417322836,
          "duration": 0.28749971250000783
        },
        {
          "name": "F3",
          "midi": 53,
          "time": 104.15346727499947,
          "velocity": 0.30708661417322836,
          "duration": 0.2562497437500042
        },
        {
          "name": "G#3",
          "midi": 56,
          "time": 104.29364570624948,
          "velocity": 0.30708661417322836,
          "duration": 0.26785687499999256
        },
        {
          "name": "C#4",
          "midi": 61,
          "time": 104.42578843124947,
          "velocity": 0.30708661417322836,
          "duration": 0.19642837500001065
        },
        {
          "name": "F2",
          "midi": 41,
          "time": 104.56150258124947,
          "velocity": 0.3228346456692913,
          "duration": 0.3919638937500167
        },
        {
          "name": "C3",
          "midi": 48,
          "time": 104.70614529374949,
          "velocity": 0.2992125984251969,
          "duration": 0.2794640062499951
        },
        {
          "name": "F3",
          "midi": 53,
          "time": 104.84185944374948,
          "velocity": 0.2755905511811024,
          "duration": 0.5321423250000095
        },
        {
          "name": "G#3",
          "midi": 56,
          "time": 104.96953788749948,
          "velocity": 0.2992125984251969,
          "duration": 0.14464271250000138
        },
        {
          "name": "C4",
          "midi": 60,
          "time": 105.08650205624949,
          "velocity": 0.33858267716535434,
          "duration": 0.13928557500000238
        },
        {
          "name": "F4",
          "midi": 65,
          "time": 105.23739476249949,
          "velocity": 0.3228346456692913,
          "duration": 0.06071422499999812
        },
        {
          "name": "G#2",
          "midi": 44,
          "time": 105.42578743124949,
          "velocity": 0.33070866141732286,
          "duration": 0.6723207562500164
        },
        {
          "name": "B4",
          "midi": 71,
          "time": 105.43382313749949,
          "velocity": 0.4881889763779528,
          "duration": 0.46785667500000727
        },
        {
          "name": "G#4",
          "midi": 68,
          "time": 105.44543026874949,
          "velocity": 0.3228346456692913,
          "duration": 0.45267811875000064
        },
        {
          "name": "E3",
          "midi": 52,
          "time": 105.60971581874949,
          "velocity": 0.3700787401574803,
          "duration": 0.41249958750000815
        },
        {
          "name": "G#3",
          "midi": 56,
          "time": 105.74185854374949,
          "velocity": 0.36220472440944884,
          "duration": 0.24374975625001127
        },
        {
          "name": "B3",
          "midi": 59,
          "time": 105.87757269374949,
          "velocity": 0.3228346456692913,
          "duration": 0.10446418125000889
        },
        {
          "name": "G#4",
          "midi": 68,
          "time": 106.0534653749995,
          "velocity": 0.5039370078740157,
          "duration": 0.23660690625000314
        },
        {
          "name": "E4",
          "midi": 64,
          "time": 106.2222152062495,
          "velocity": 0.29133858267716534,
          "duration": 0.08749991250000733
        },
        {
          "name": "C#2",
          "midi": 37,
          "time": 106.36596506249951,
          "velocity": 0.3937007874015748,
          "duration": 0.25178546250000977
        },
        {
          "name": "F4",
          "midi": 65,
          "time": 106.42935785624952,
          "velocity": 0.4881889763779528,
          "duration": 0.6124993874999944
        },
        {
          "name": "C#5",
          "midi": 73,
          "time": 106.42935785624952,
          "velocity": 0.47244094488188976,
          "duration": 0.6044636812499959
        },
        {
          "name": "G#2",
          "midi": 44,
          "time": 106.64989334999952,
          "velocity": 0.3464566929133858,
          "duration": 0.17232125625000094
        },
        {
          "name": "C#3",
          "midi": 49,
          "time": 106.79007178124952,
          "velocity": 0.4409448818897638,
          "duration": 0.11160703124998861
        },
        {
          "name": "F3",
          "midi": 53,
          "time": 106.91060737499951,
          "velocity": 0.4251968503937008,
          "duration": 0.07499992500000019
        },
        {
          "name": "G#3",
          "midi": 56,
          "time": 107.04185724374952,
          "velocity": 0.4645669291338583,
          "duration": 0.2321426249999945
        },
        {
          "name": "D#5",
          "midi": 75,
          "time": 107.04542866874952,
          "velocity": 0.5118110236220472,
          "duration": 0.240178331249993
        },
        {
          "name": "G#4",
          "midi": 68,
          "time": 107.04989294999952,
          "velocity": 0.49606299212598426,
          "duration": 0.22767834375000007
        },
        {
          "name": "C#4",
          "midi": 61,
          "time": 107.18203567499951,
          "velocity": 0.5433070866141733,
          "duration": 0.1517855624999953
        },
        {
          "name": "F4",
          "midi": 65,
          "time": 107.30971411874951,
          "velocity": 0.49606299212598426,
          "duration": 0.16428555000000244
        },
        {
          "name": "F5",
          "midi": 77,
          "time": 107.30971411874951,
          "velocity": 0.49606299212598426,
          "duration": 0.7080350062500003
        },
        {
          "name": "C#5",
          "midi": 73,
          "time": 107.3222141062495,
          "velocity": 0.4881889763779528,
          "duration": 0.6312493687500051
        },
        {
          "name": "G#4",
          "midi": 68,
          "time": 107.44542826874951,
          "velocity": 0.5039370078740157,
          "duration": 0.09999990000000025
        },
        {
          "name": "F4",
          "midi": 65,
          "time": 107.56596386249952,
          "velocity": 0.4330708661417323,
          "duration": 0.1357141499999983
        },
        {
          "name": "C#4",
          "midi": 61,
          "time": 107.69007088124951,
          "velocity": 0.5118110236220472,
          "duration": 0.12767844374999981
        },
        {
          "name": "G#3",
          "midi": 56,
          "time": 107.81774932499951,
          "velocity": 0.5196850393700787,
          "duration": 0.1517855624999953
        },
        {
          "name": "F3",
          "midi": 53,
          "time": 107.9418563437495,
          "velocity": 0.5275590551181102,
          "duration": 0.14017843125000695
        },
        {
          "name": "C#5",
          "midi": 73,
          "time": 108.07399906874952,
          "velocity": 0.5590551181102362,
          "duration": 0.399999600000001
        },
        {
          "name": "G#3",
          "midi": 56,
          "time": 108.07757049374952,
          "velocity": 0.5196850393700787,
          "duration": 0.09642847499999618
        },
        {
          "name": "F4",
          "midi": 65,
          "time": 108.08203477499951,
          "velocity": 0.49606299212598426,
          "duration": 0.4241067187499965
        },
        {
          "name": "F3",
          "midi": 53,
          "time": 108.20971321874951,
          "velocity": 0.5669291338582677,
          "duration": 0.12767844374999981
        },
        {
          "name": "C#3",
          "midi": 49,
          "time": 108.33739166249951,
          "velocity": 0.5905511811023622,
          "duration": 0.13214272500000845
        },
        {
          "name": "G#2",
          "midi": 44,
          "time": 108.46596296249952,
          "velocity": 0.5275590551181102,
          "duration": 0.1196427374999871
        },
        {
          "name": "C#3",
          "midi": 49,
          "time": 108.5981056874995,
          "velocity": 0.5511811023622047,
          "duration": 0.16339269374999787
        },
        {
          "name": "C#5",
          "midi": 73,
          "time": 108.6061413937495,
          "velocity": 0.5669291338582677,
          "duration": 0.1357141499999983
        },
        {
          "name": "F5",
          "midi": 77,
          "time": 108.6061413937495,
          "velocity": 0.5905511811023622,
          "duration": 0.12767844374999981
        },
        {
          "name": "G#2",
          "midi": 44,
          "time": 108.7418555437495,
          "velocity": 0.5275590551181102,
          "duration": 0.19553551875000608
        },
        {
          "name": "D#2",
          "midi": 39,
          "time": 108.9097125187495,
          "velocity": 0.5669291338582677,
          "duration": 0.2803568624999855
        },
        {
          "name": "G5",
          "midi": 79,
          "time": 108.9534624749995,
          "velocity": 0.6141732283464567,
          "duration": 0.34017823124999325
        },
        {
          "name": "D#5",
          "midi": 75,
          "time": 108.95792675624949,
          "velocity": 0.5984251968503937,
          "duration": 0.3437496562499973
        },
        {
          "name": "A#2",
          "midi": 46,
          "time": 109.19006938124949,
          "velocity": 0.5511811023622047,
          "duration": 0.17142839999999637
        },
        {
          "name": "D#3",
          "midi": 51,
          "time": 109.3222121062495,
          "velocity": 0.5433070866141733,
          "duration": 0.12321416249999118
        },
        {
          "name": "C#5",
          "midi": 73,
          "time": 109.32935495624949,
          "velocity": 0.5196850393700787,
          "duration": 0.20446408124999493
        },
        {
          "name": "F5",
          "midi": 77,
          "time": 109.32935495624949,
          "velocity": 0.5826771653543307,
          "duration": 0.24464261250000163
        },
        {
          "name": "G3",
          "midi": 55,
          "time": 109.45346197499948,
          "velocity": 0.5748031496062992,
          "duration": 0.08392848750000326
        },
        {
          "name": "A#3",
          "midi": 58,
          "time": 109.56596186249949,
          "velocity": 0.4566929133858268,
          "duration": 0.22767834374998586
        },
        {
          "name": "A#4",
          "midi": 70,
          "time": 109.57399756874949,
          "velocity": 0.5511811023622047,
          "duration": 0.1919640937499878
        },
        {
          "name": "C#5",
          "midi": 73,
          "time": 109.57399756874949,
          "velocity": 0.5433070866141733,
          "duration": 0.17946410624999487
        },
        {
          "name": "C#4",
          "midi": 61,
          "time": 109.69006888124949,
          "velocity": 0.5275590551181102,
          "duration": 0.13214272499999424
        },
        {
          "name": "G4",
          "midi": 67,
          "time": 109.82221160624948,
          "velocity": 0.5118110236220472,
          "duration": 0.1357141499999983
        },
        {
          "name": "A#4",
          "midi": 70,
          "time": 109.82935445624948,
          "velocity": 0.5196850393700787,
          "duration": 0.10803560624999875
        },
        {
          "name": "C#5",
          "midi": 73,
          "time": 109.82935445624948,
          "velocity": 0.5196850393700787,
          "duration": 0.09999990000000025
        },
        {
          "name": "C#4",
          "midi": 61,
          "time": 109.95792575624948,
          "velocity": 0.5826771653543307,
          "duration": 0.14017843124999274
        },
        {
          "name": "A#3",
          "midi": 58,
          "time": 110.08203277499948,
          "velocity": 0.5354330708661418,
          "duration": 0.07142849999999612
        },
        {
          "name": "F4",
          "midi": 65,
          "time": 110.08203277499948,
          "velocity": 0.6141732283464567,
          "duration": 0.2714282999999966
        },
        {
          "name": "G3",
          "midi": 55,
          "time": 110.20613979374947,
          "velocity": 0.5196850393700787,
          "duration": 0.011607131250002567
        },
        {
          "name": "C#4",
          "midi": 61,
          "time": 110.33381823749947,
          "velocity": 0.5905511811023622,
          "duration": 0.24374975624999706
        },
        {
          "name": "D#3",
          "midi": 51,
          "time": 110.34988964999947,
          "velocity": 0.3779527559055118,
          "duration": 0.07232135625000069
        },
        {
          "name": "A#2",
          "midi": 46,
          "time": 110.45346097499947,
          "velocity": 0.5196850393700787,
          "duration": 0.16428555000000244
        },
        {
          "name": "D#2",
          "midi": 39,
          "time": 110.61417509999947,
          "velocity": 0.4645669291338583,
          "duration": 0.20357122500000457
        },
        {
          "name": "C#4",
          "midi": 61,
          "time": 110.63738936249948,
          "velocity": 0.5433070866141733,
          "duration": 0.508035206250014
        },
        {
          "name": "A#2",
          "midi": 46,
          "time": 110.81417489999947,
          "velocity": 0.4094488188976378,
          "duration": 0.27946400625000933
        },
        {
          "name": "D#3",
          "midi": 51,
          "time": 110.95792475624948,
          "velocity": 0.3858267716535433,
          "duration": 0.18749981250000758
        },
        {
          "name": "G3",
          "midi": 55,
          "time": 111.13381743749949,
          "velocity": 0.3464566929133858,
          "duration": 0.16428555000000244
        },
        {
          "name": "A#3",
          "midi": 58,
          "time": 111.13381743749949,
          "velocity": 0.4566929133858268,
          "duration": 0.5955351187500213
        },
        {
          "name": "D#3",
          "midi": 51,
          "time": 111.3016744124995,
          "velocity": 0.33070866141732286,
          "duration": 0.19642837500001065
        },
        {
          "name": "A#2",
          "midi": 46,
          "time": 111.4900670812495,
          "velocity": 0.3464566929133858,
          "duration": 0.1357141499999983
        },
        {
          "name": "G#2",
          "midi": 44,
          "time": 111.7454239687495,
          "velocity": 0.3464566929133858,
          "duration": 0.2964282749999825
        },
        {
          "name": "A#4",
          "midi": 70,
          "time": 111.8016739124995,
          "velocity": 0.4409448818897638,
          "duration": 1.3241058187499988
        },
        {
          "name": "D#3",
          "midi": 51,
          "time": 112.03381653749949,
          "velocity": 0.2992125984251969,
          "duration": 0.3276782437500003
        },
        {
          "name": "F#3",
          "midi": 54,
          "time": 112.16953068749949,
          "velocity": 0.28346456692913385,
          "duration": 0.19642837499999644
        },
        {
          "name": "A#3",
          "midi": 58,
          "time": 112.29810198749949,
          "velocity": 0.3779527559055118,
          "duration": 0.11607131249999725
        },
        {
          "name": "C4",
          "midi": 60,
          "time": 112.42578043124949,
          "velocity": 0.33858267716535434,
          "duration": 0.12767844374999981
        },
        {
          "name": "F#4",
          "midi": 66,
          "time": 112.54988744999949,
          "velocity": 0.4015748031496063,
          "duration": 0.27946400625000933
        },
        {
          "name": "F#2",
          "midi": 42,
          "time": 112.66953018749949,
          "velocity": 0.3937007874015748,
          "duration": 0.572320856250002
        },
        {
          "name": "C#3",
          "midi": 49,
          "time": 112.7981014874995,
          "velocity": 0.3464566929133858,
          "duration": 0.49196379374998855
        },
        {
          "name": "F#3",
          "midi": 54,
          "time": 112.9177442249995,
          "velocity": 0.33858267716535434,
          "duration": 0.3678567749999928
        },
        {
          "name": "C#4",
          "midi": 61,
          "time": 113.04988694999949,
          "velocity": 0.33070866141732286,
          "duration": 0.3357139499999988
        },
        {
          "name": "F#4",
          "midi": 66,
          "time": 113.17756539374949,
          "velocity": 0.30708661417322836,
          "duration": 0.1598212687499938
        },
        {
          "name": "A#4",
          "midi": 70,
          "time": 113.30613669374948,
          "velocity": 0.3700787401574803,
          "duration": 0.07946420625000883
        },
        {
          "name": "F2",
          "midi": 41,
          "time": 113.48202937499948,
          "velocity": 0.3858267716535433,
          "duration": 0.19553551874999187
        },
        {
          "name": "C5",
          "midi": 72,
          "time": 113.49810078749948,
          "velocity": 0.4330708661417323,
          "duration": 0.17946410624999487
        },
        {
          "name": "C3",
          "midi": 48,
          "time": 113.62577923124948,
          "velocity": 0.33070866141732286,
          "duration": 0.10803560624999875
        },
        {
          "name": "F3",
          "midi": 53,
          "time": 113.75345767499948,
          "velocity": 0.3937007874015748,
          "duration": 0.07589278125000476
        },
        {
          "name": "G#3",
          "midi": 56,
          "time": 113.87399326874949,
          "velocity": 0.3858267716535433,
          "duration": 0.16339269374999787
        },
        {
          "name": "F5",
          "midi": 77,
          "time": 114.00970741874949,
          "velocity": 0.4409448818897638,
          "duration": 0.16428554999998823
        },
        {
          "name": "G#4",
          "midi": 68,
          "time": 114.01774312499948,
          "velocity": 0.2204724409448819,
          "duration": 0.1999997999999863
        },
        {
          "name": "C4",
          "midi": 60,
          "time": 114.02577883124948,
          "velocity": 0.3464566929133858,
          "duration": 0.08839276874999769
        },
        {
          "name": "F4",
          "midi": 65,
          "time": 114.19363580624947,
          "velocity": 0.3543307086614173,
          "duration": 0.14017843124999274
        },
        {
          "name": "G#2",
          "midi": 44,
          "time": 114.34542136874947,
          "velocity": 0.33070866141732286,
          "duration": 0.16071412499999838
        },
        {
          "name": "A#4",
          "midi": 70,
          "time": 114.35792135624946,
          "velocity": 0.4645669291338583,
          "duration": 1.4160700125000147
        },
        {
          "name": "D#3",
          "midi": 51,
          "time": 114.51417119999947,
          "velocity": 0.33070866141732286,
          "duration": 0.17946410624999487
        },
        {
          "name": "F#3",
          "midi": 54,
          "time": 114.64184964374947,
          "velocity": 0.3464566929133858,
          "duration": 0.208035506249999
        },
        {
          "name": "A#3",
          "midi": 58,
          "time": 114.75792095624946,
          "velocity": 0.3700787401574803,
          "duration": 0.10803560624999875
        },
        {
          "name": "C4",
          "midi": 60,
          "time": 114.88202797499946,
          "velocity": 0.33070866141732286,
          "duration": 0.13214272499999424
        },
        {
          "name": "F#4",
          "midi": 66,
          "time": 115.00970641874946,
          "velocity": 0.3937007874015748,
          "duration": 0.3124996875000079
        },
        {
          "name": "F#2",
          "midi": 42,
          "time": 115.14184914374945,
          "velocity": 0.41732283464566927,
          "duration": 0.20357122500001879
        },
        {
          "name": "C#3",
          "midi": 49,
          "time": 115.27399186874946,
          "velocity": 0.36220472440944884,
          "duration": 0.11607131250001146
        },
        {
          "name": "F#3",
          "midi": 54,
          "time": 115.39006318124947,
          "velocity": 0.3228346456692913,
          "duration": 0.11964273750000132
        },
        {
          "name": "A#3",
          "midi": 58,
          "time": 115.50970591874948,
          "velocity": 0.4015748031496063,
          "duration": 0.1437498562499968
        },
        {
          "name": "C#4",
          "midi": 61,
          "time": 115.63738436249947,
          "velocity": 0.3228346456692913,
          "duration": 0.20446408125000914
        },
        {
          "name": "F#4",
          "midi": 66,
          "time": 115.77756279374948,
          "velocity": 0.4015748031496063,
          "duration": 0.15624984375000395
        },
        {
          "name": "F2",
          "midi": 41,
          "time": 115.92220550624948,
          "velocity": 0.3937007874015748,
          "duration": 0.23124976875001835
        },
        {
          "name": "C5",
          "midi": 72,
          "time": 115.94184834374948,
          "velocity": 0.4645669291338583,
          "duration": 0.3919638937500167
        },
        {
          "name": "C3",
          "midi": 48,
          "time": 116.0855981999995,
          "velocity": 0.3464566929133858,
          "duration": 0.0964284750000104
        },
        {
          "name": "F3",
          "midi": 53,
          "time": 116.2097052187495,
          "velocity": 0.2992125984251969,
          "duration": 0.09196419375000175
        },
        {
          "name": "G#3",
          "midi": 56,
          "time": 116.3338122374995,
          "velocity": 0.4094488188976378,
          "duration": 0.16785697500000651
        },
        {
          "name": "C4",
          "midi": 60,
          "time": 116.4820263749995,
          "velocity": 0.3779527559055118,
          "duration": 0.06339279374999762
        },
        {
          "name": "F5",
          "midi": 77,
          "time": 116.48559779999951,
          "velocity": 0.49606299212598426,
          "duration": 0.18839266874999794
        },
        {
          "name": "G#4",
          "midi": 68,
          "time": 116.4900620812495,
          "velocity": 0.41732283464566927,
          "duration": 0.24374975625001127
        },
        {
          "name": "F4",
          "midi": 65,
          "time": 116.67756189374951,
          "velocity": 0.41732283464566927,
          "duration": 0.18839266874999794
        },
        {
          "name": "D#2",
          "midi": 39,
          "time": 116.86952598749951,
          "velocity": 0.4881889763779528,
          "duration": 0.5080352062499998
        },
        {
          "name": "F#5",
          "midi": 78,
          "time": 116.95345447499952,
          "velocity": 0.6141732283464567,
          "duration": 0.9124990874999668
        },
        {
          "name": "A#2",
          "midi": 46,
          "time": 117.24988274999951,
          "velocity": 0.44881889763779526,
          "duration": 0.16428554999998823
        },
        {
          "name": "D#3",
          "midi": 51,
          "time": 117.40970401874951,
          "velocity": 0.41732283464566927,
          "duration": 0.09999990000000025
        },
        {
          "name": "F#3",
          "midi": 54,
          "time": 117.5338110374995,
          "velocity": 0.47244094488188976,
          "duration": 0.1517855624999953
        },
        {
          "name": "A#3",
          "midi": 58,
          "time": 117.6695251874995,
          "velocity": 0.4881889763779528,
          "duration": 0.13660700624998867
        },
        {
          "name": "D#4",
          "midi": 63,
          "time": 117.7900607812495,
          "velocity": 0.5196850393700787,
          "duration": 0.07946420624999462
        },
        {
          "name": "F#4",
          "midi": 66,
          "time": 117.95791775624949,
          "velocity": 0.5433070866141733,
          "duration": 0.08749991249999312
        },
        {
          "name": "F#5",
          "midi": 78,
          "time": 117.97398916874948,
          "velocity": 0.5984251968503937,
          "duration": 0.25535688749999963
        },
        {
          "name": "A#4",
          "midi": 70,
          "time": 118.13738186249948,
          "velocity": 0.5433070866141733,
          "duration": 0.15267841874999988
        },
        {
          "name": "F#4",
          "midi": 66,
          "time": 118.25345317499948,
          "velocity": 0.5433070866141733,
          "duration": 0.10803560624999875
        },
        {
          "name": "F5",
          "midi": 77,
          "time": 118.35345307499948,
          "velocity": 0.5196850393700787,
          "duration": 0.26071402500001284
        },
        {
          "name": "F4",
          "midi": 65,
          "time": 118.36148878124948,
          "velocity": 0.5118110236220472,
          "duration": 0.2642854500000169
        },
        {
          "name": "A#4",
          "midi": 70,
          "time": 118.49006008124948,
          "velocity": 0.5433070866141733,
          "duration": 0.20357122500001879
        },
        {
          "name": "F#4",
          "midi": 66,
          "time": 118.59363140624949,
          "velocity": 0.5118110236220472,
          "duration": 0.0964284750000104
        },
        {
          "name": "D5",
          "midi": 74,
          "time": 118.7016670124995,
          "velocity": 0.49606299212598426,
          "duration": 0.288392568749984
        },
        {
          "name": "D4",
          "midi": 62,
          "time": 118.7097027187495,
          "velocity": 0.4409448818897638,
          "duration": 0.2482140374999915
        },
        {
          "name": "A#4",
          "midi": 70,
          "time": 118.8373811624995,
          "velocity": 0.4094488188976378,
          "duration": 0.21249978749997922
        },
        {
          "name": "F#4",
          "midi": 66,
          "time": 118.94184534374949,
          "velocity": 0.4330708661417323,
          "duration": 0.14821413749999124
        },
        {
          "name": "D#5",
          "midi": 75,
          "time": 119.06148808124948,
          "velocity": 0.4881889763779528,
          "duration": 0.17232125625000094
        },
        {
          "name": "D#4",
          "midi": 63,
          "time": 119.06952378749948,
          "velocity": 0.4015748031496063,
          "duration": 0.26785687500000677
        },
        {
          "name": "A#4",
          "midi": 70,
          "time": 119.20613079374948,
          "velocity": 0.3858267716535433,
          "duration": 0.12321416250000539
        },
        {
          "name": "F#4",
          "midi": 66,
          "time": 119.32934495624949,
          "velocity": 0.4566929133858268,
          "duration": 0.08035706249999919
        },
        {
          "name": "D4",
          "midi": 62,
          "time": 119.46952338749948,
          "velocity": 0.3779527559055118,
          "duration": 0.4883923687500129
        },
        {
          "name": "A#5",
          "midi": 82,
          "time": 119.49809478749948,
          "velocity": 0.5433070866141733,
          "duration": 0.6241065187500112
        },
        {
          "name": "F#4",
          "midi": 66,
          "time": 119.70166601249949,
          "velocity": 0.3543307086614173,
          "duration": 0.36428535000000295
        },
        {
          "name": "A#4",
          "midi": 70,
          "time": 119.82934445624949,
          "velocity": 0.4094488188976378,
          "duration": 0.0401785312500067
        },
        {
          "name": "A#4",
          "midi": 70,
          "time": 119.9534514749995,
          "velocity": 0.3937007874015748,
          "duration": 0.14821413749999124
        },
        {
          "name": "F#5",
          "midi": 78,
          "time": 120.08202277499949,
          "velocity": 0.33070866141732286,
          "duration": 0.27589258125000526
        },
        {
          "name": "A#5",
          "midi": 82,
          "time": 120.2141654999995,
          "velocity": 0.29133858267716534,
          "duration": 0.39553531874999237
        },
        {
          "name": "D#4",
          "midi": 63,
          "time": 120.3418439437495,
          "velocity": 0.3464566929133858,
          "duration": 0.3919638937499883
        },
        {
          "name": "F#4",
          "midi": 66,
          "time": 120.47398666874949,
          "velocity": 0.29133858267716534,
          "duration": 0.26785687499999256
        },
        {
          "name": "A#4",
          "midi": 70,
          "time": 120.59005798124949,
          "velocity": 0.3858267716535433,
          "duration": 0.04374995624999656
        },
        {
          "name": "A#4",
          "midi": 70,
          "time": 120.69809358749949,
          "velocity": 0.3700787401574803,
          "duration": 0.17946410625000908
        },
        {
          "name": "F#5",
          "midi": 78,
          "time": 120.83737916249949,
          "velocity": 0.25984251968503935,
          "duration": 0.13214272500000845
        },
        {
          "name": "A#5",
          "midi": 82,
          "time": 120.9695218874995,
          "velocity": 0.3464566929133858,
          "duration": 0.11607131249999725
        },
        {
          "name": "G#3",
          "midi": 56,
          "time": 121.1257717312495,
          "velocity": 0.2755905511811024,
          "duration": 0.8357134499999859
        },
        {
          "name": "G#5",
          "midi": 80,
          "time": 121.1257717312495,
          "velocity": 0.3228346456692913,
          "duration": 0.4080353062499995
        },
        {
          "name": "C4",
          "midi": 60,
          "time": 121.1293431562495,
          "velocity": 0.25196850393700787,
          "duration": 0.8401777312499803
        },
        {
          "name": "E4",
          "midi": 64,
          "time": 121.2936287062495,
          "velocity": 0.2204724409448819,
          "duration": 0.6160708124999843
        },
        {
          "name": "G#4",
          "midi": 68,
          "time": 121.4534499749995,
          "velocity": 0.28346456692913385,
          "duration": 0.42053529374999243
        },
        {
          "name": "C5",
          "midi": 72,
          "time": 121.6141640999995,
          "velocity": 0.2755905511811024,
          "duration": 0.18749981249999337
        },
        {
          "name": "E5",
          "midi": 76,
          "time": 121.7695210874995,
          "velocity": 0.31496062992125984,
          "duration": 0.25982116874997985
        },
        {
          "name": "G#5",
          "midi": 80,
          "time": 122.02219940624948,
          "velocity": 0.28346456692913385,
          "duration": 0.09999990000000025
        },
        {
          "name": "C#3",
          "midi": 49,
          "time": 122.32219910624949,
          "velocity": 0.3228346456692913,
          "duration": 0.3035711250000048
        },
        {
          "name": "G#5",
          "midi": 80,
          "time": 122.32219910624949,
          "velocity": 0.2992125984251969,
          "duration": 1.5312484687500216
        },
        {
          "name": "F5",
          "midi": 77,
          "time": 122.33737766249949,
          "velocity": 0.3228346456692913,
          "duration": 0.4723209562500017
        },
        {
          "name": "G#3",
          "midi": 56,
          "time": 122.63380593749949,
          "velocity": 0.29133858267716534,
          "duration": 0.19553551875000608
        },
        {
          "name": "C#4",
          "midi": 61,
          "time": 122.8096986187495,
          "velocity": 0.25196850393700787,
          "duration": 0.30803540624999926
        },
        {
          "name": "F4",
          "midi": 65,
          "time": 122.95344847499949,
          "velocity": 0.28346456692913385,
          "duration": 0.20446408125000914
        },
        {
          "name": "G#4",
          "midi": 68,
          "time": 123.0936269062495,
          "velocity": 0.2992125984251969,
          "duration": 0.17232125625000094
        },
        {
          "name": "C#5",
          "midi": 73,
          "time": 123.2293410562495,
          "velocity": 0.2677165354330709,
          "duration": 0.12857130000000438
        },
        {
          "name": "G#3",
          "midi": 56,
          "time": 123.3695194874995,
          "velocity": 0.36220472440944884,
          "duration": 0.4598209687500088
        },
        {
          "name": "F3",
          "midi": 53,
          "time": 123.3775551937495,
          "velocity": 0.3228346456692913,
          "duration": 0.4482138375000062
        },
        {
          "name": "C4",
          "midi": 60,
          "time": 123.5061264937495,
          "velocity": 0.33858267716535434,
          "duration": 0.3553567874999999
        },
        {
          "name": "F4",
          "midi": 65,
          "time": 123.6338049374995,
          "velocity": 0.3228346456692913,
          "duration": 0.3839281874999898
        },
        {
          "name": "G#4",
          "midi": 68,
          "time": 123.7695190874995,
          "velocity": 0.3543307086614173,
          "duration": 0.13660700624998867
        },
        {
          "name": "C5",
          "midi": 72,
          "time": 123.8936261062495,
          "velocity": 0.30708661417322836,
          "duration": 0.14017843124999274
        },
        {
          "name": "F5",
          "midi": 77,
          "time": 124.0373759624995,
          "velocity": 0.4015748031496063,
          "duration": 0.06071422499999812
        },
        {
          "name": "G#5",
          "midi": 80,
          "time": 124.2373757624995,
          "velocity": 0.36220472440944884,
          "duration": 0.48482094375000884
        },
        {
          "name": "B5",
          "midi": 83,
          "time": 124.2454114687495,
          "velocity": 0.4251968503937008,
          "duration": 0.4562495437500047
        },
        {
          "name": "B3",
          "midi": 59,
          "time": 124.24987574999949,
          "velocity": 0.2992125984251969,
          "duration": 0.5517851625000105
        },
        {
          "name": "G#3",
          "midi": 56,
          "time": 124.25791145624949,
          "velocity": 0.25196850393700787,
          "duration": 0.6241065187500112
        },
        {
          "name": "E4",
          "midi": 64,
          "time": 124.41773272499948,
          "velocity": 0.2440944881889764,
          "duration": 0.3839281875000182
        },
        {
          "name": "G#4",
          "midi": 68,
          "time": 124.55791115624949,
          "velocity": 0.30708661417322836,
          "duration": 0.25178546250000977
        },
        {
          "name": "B4",
          "midi": 71,
          "time": 124.6980895874995,
          "velocity": 0.2440944881889764,
          "duration": 0.11160703125000282
        },
        {
          "name": "C#6",
          "midi": 85,
          "time": 124.8855893999995,
          "velocity": 0.4330708661417323,
          "duration": 0.2803568624999855
        },
        {
          "name": "E5",
          "midi": 76,
          "time": 124.8900536812495,
          "velocity": 0.2204724409448819,
          "duration": 0.15535698749999938
        },
        {
          "name": "G#5",
          "midi": 80,
          "time": 125.0373749624995,
          "velocity": 0.28346456692913385,
          "duration": 0.08482134374999362
        },
        {
          "name": "C#3",
          "midi": 49,
          "time": 125.20166051249949,
          "velocity": 0.31496062992125984,
          "duration": 0.17232125624998673
        },
        {
          "name": "F5",
          "midi": 77,
          "time": 125.20612479374948,
          "velocity": 0.2755905511811024,
          "duration": 0.1598212687499938
        },
        {
          "name": "G#5",
          "midi": 80,
          "time": 125.20612479374948,
          "velocity": 0.25196850393700787,
          "duration": 1.3633914937499725
        },
        {
          "name": "G#3",
          "midi": 56,
          "time": 125.37398176874947,
          "velocity": 0.31496062992125984,
          "duration": 0.14821413749999124
        },
        {
          "name": "C#4",
          "midi": 61,
          "time": 125.49808878749947,
          "velocity": 0.31496062992125984,
          "duration": 0.22767834375000007
        },
        {
          "name": "F4",
          "midi": 65,
          "time": 125.63380293749947,
          "velocity": 0.3228346456692913,
          "duration": 0.19553551875000608
        },
        {
          "name": "G#4",
          "midi": 68,
          "time": 125.75344567499947,
          "velocity": 0.31496062992125984,
          "duration": 0.13660700625000288
        },
        {
          "name": "C#5",
          "midi": 73,
          "time": 125.88558839999948,
          "velocity": 0.3779527559055118,
          "duration": 0.1437498562499968
        },
        {
          "name": "G#3",
          "midi": 56,
          "time": 125.99808828749947,
          "velocity": 0.3858267716535433,
          "duration": 0.5035709249999911
        },
        {
          "name": "F3",
          "midi": 53,
          "time": 126.01415969999947,
          "velocity": 0.31496062992125984,
          "duration": 0.46785667499999306
        },
        {
          "name": "C4",
          "midi": 60,
          "time": 126.12933815624946,
          "velocity": 0.41732283464566927,
          "duration": 0.38839246874999844
        },
        {
          "name": "F4",
          "midi": 65,
          "time": 126.25790945624946,
          "velocity": 0.4330708661417323,
          "duration": 0.49196379374998855
        },
        {
          "name": "G#4",
          "midi": 68,
          "time": 126.38558789999946,
          "velocity": 0.5196850393700787,
          "duration": 0.20446408124999493
        },
        {
          "name": "C5",
          "midi": 72,
          "time": 126.51415919999945,
          "velocity": 0.5196850393700787,
          "duration": 0.14732128125000088
        },
        {
          "name": "F5",
          "midi": 77,
          "time": 126.64183764374945,
          "velocity": 0.5039370078740157,
          "duration": 0.0482142375000052
        },
        {
          "name": "G#5",
          "midi": 80,
          "time": 126.79362320624946,
          "velocity": 0.4881889763779528,
          "duration": 0.4080353062499995
        },
        {
          "name": "B5",
          "midi": 83,
          "time": 126.79362320624946,
          "velocity": 0.5354330708661418,
          "duration": 0.4964280749999972
        },
        {
          "name": "B3",
          "midi": 59,
          "time": 126.79808748749946,
          "velocity": 0.4409448818897638,
          "duration": 0.8437491562499986
        },
        {
          "name": "G#3",
          "midi": 56,
          "time": 126.81773032499946,
          "velocity": 0.2440944881889764,
          "duration": 0.8357134500000001
        },
        {
          "name": "E4",
          "midi": 64,
          "time": 126.93737306249946,
          "velocity": 0.47244094488188976,
          "duration": 0.7160707124999988
        },
        {
          "name": "G#4",
          "midi": 68,
          "time": 127.07398006874946,
          "velocity": 0.5433070866141733,
          "duration": 0.5794637062499959
        },
        {
          "name": "B4",
          "midi": 71,
          "time": 127.21415849999946,
          "velocity": 0.4645669291338583,
          "duration": 0.3116068312500033
        },
        {
          "name": "G#5",
          "midi": 80,
          "time": 127.37755119374945,
          "velocity": 0.5905511811023622,
          "duration": 0.26785687500000677
        },
        {
          "name": "E5",
          "midi": 76,
          "time": 127.53380103749946,
          "velocity": 0.36220472440944884,
          "duration": 0.11964273750000132
        },
        {
          "name": "C#4",
          "midi": 61,
          "time": 127.71415799999946,
          "velocity": 0.4015748031496063,
          "duration": 0.5232137625000064
        },
        {
          "name": "B3",
          "midi": 59,
          "time": 127.72576513124946,
          "velocity": 0.3700787401574803,
          "duration": 0.4517852625000103
        },
        {
          "name": "C#6",
          "midi": 85,
          "time": 127.72933655624946,
          "velocity": 0.6299212598425197,
          "duration": 0.6124993875000229
        },
        {
          "name": "E4",
          "midi": 64,
          "time": 127.94183634374946,
          "velocity": 0.3779527559055118,
          "duration": 0.2723211562500012
        },
        {
          "name": "G#4",
          "midi": 68,
          "time": 128.06951478749946,
          "velocity": 0.41732283464566927,
          "duration": 0.23660690625001735
        },
        {
          "name": "C#5",
          "midi": 73,
          "time": 128.17755039374947,
          "velocity": 0.4251968503937008,
          "duration": 0.21249978750000764
        },
        {
          "name": "G#5",
          "midi": 80,
          "time": 128.29808598749946,
          "velocity": 0.5118110236220472,
          "duration": 0.11607131250002567
        },
        {
          "name": "E5",
          "midi": 76,
          "time": 128.4141572999995,
          "velocity": 0.4409448818897638,
          "duration": 0.03124996874998942
        },
        {
          "name": "E4",
          "midi": 64,
          "time": 128.54987144999947,
          "velocity": 0.4566929133858268,
          "duration": 0.12410701874998153
        },
        {
          "name": "E6",
          "midi": 88,
          "time": 128.54987144999947,
          "velocity": 0.6377952755905512,
          "duration": 0.5116066312500038
        },
        {
          "name": "C#4",
          "midi": 61,
          "time": 128.55344287499946,
          "velocity": 0.4015748031496063,
          "duration": 0.34017823125000746
        },
        {
          "name": "G#4",
          "midi": 68,
          "time": 128.68201417499947,
          "velocity": 0.4645669291338583,
          "duration": 0.10803560625001296
        },
        {
          "name": "B4",
          "midi": 71,
          "time": 128.79362120624947,
          "velocity": 0.47244094488188976,
          "duration": 0.11249988750000739
        },
        {
          "name": "C#5",
          "midi": 73,
          "time": 128.90612109374948,
          "velocity": 0.4015748031496063,
          "duration": 0.047321381249986416
        },
        {
          "name": "E5",
          "midi": 76,
          "time": 128.90612109374948,
          "velocity": 0.4566929133858268,
          "duration": 0.17142839999999637
        },
        {
          "name": "C#6",
          "midi": 85,
          "time": 129.02219240624947,
          "velocity": 0.5590551181102362,
          "duration": 0.1357141499999841
        },
        {
          "name": "G#5",
          "midi": 80,
          "time": 129.13737086249947,
          "velocity": 0.47244094488188976,
          "duration": 0.03660710624998842
        },
        {
          "name": "G#4",
          "midi": 68,
          "time": 129.26594216249947,
          "velocity": 0.4409448818897638,
          "duration": 0.17142839999999637
        },
        {
          "name": "G#6",
          "midi": 92,
          "time": 129.26951358749946,
          "velocity": 0.6692913385826772,
          "duration": 0.444642412500059
        },
        {
          "name": "E4",
          "midi": 64,
          "time": 129.27754929374947,
          "velocity": 0.5590551181102362,
          "duration": 0.22857120000000464
        },
        {
          "name": "B4",
          "midi": 71,
          "time": 129.39362060624947,
          "velocity": 0.49606299212598426,
          "duration": 0.13214272500002266
        },
        {
          "name": "C#5",
          "midi": 73,
          "time": 129.5141561999995,
          "velocity": 0.5196850393700787,
          "duration": 0.06339279375001183
        },
        {
          "name": "E5",
          "midi": 76,
          "time": 129.6293346562495,
          "velocity": 0.5118110236220472,
          "duration": 0.06874993125001083
        },
        {
          "name": "G#5",
          "midi": 80,
          "time": 129.63737036249952,
          "velocity": 0.5118110236220472,
          "duration": 0.20446408124999493
        },
        {
          "name": "E6",
          "midi": 88,
          "time": 129.74987024999953,
          "velocity": 0.5511811023622047,
          "duration": 0.12767844374999981
        },
        {
          "name": "B5",
          "midi": 83,
          "time": 129.86951298749952,
          "velocity": 0.4881889763779528,
          "duration": 0.22410691875003863
        },
        {
          "name": "G#4",
          "midi": 68,
          "time": 130.03379853749954,
          "velocity": 0.5039370078740157,
          "duration": 0.7598206687500237
        },
        {
          "name": "G#6",
          "midi": 92,
          "time": 130.09808418749955,
          "velocity": 0.5984251968503937,
          "duration": 0.6276779437500011
        },
        {
          "name": "A4",
          "midi": 69,
          "time": 130.28201257499956,
          "velocity": 0.4645669291338583,
          "duration": 0.45535668750000013
        },
        {
          "name": "C#5",
          "midi": 73,
          "time": 130.43736956249955,
          "velocity": 0.44881889763779526,
          "duration": 0.3687496312500116
        },
        {
          "name": "F#5",
          "midi": 78,
          "time": 130.54986944999956,
          "velocity": 0.47244094488188976,
          "duration": 0.1999998000000005
        },
        {
          "name": "C#6",
          "midi": 85,
          "time": 130.66594076249956,
          "velocity": 0.44881889763779526,
          "duration": 0.13214272499999424
        },
        {
          "name": "A5",
          "midi": 81,
          "time": 130.78201207499956,
          "velocity": 0.4881889763779528,
          "duration": 0.10803560625001296
        },
        {
          "name": "F#6",
          "midi": 90,
          "time": 130.89808338749958,
          "velocity": 0.5590551181102362,
          "duration": 1.1473202812500176
        },
        {
          "name": "F#4",
          "midi": 66,
          "time": 130.90165481249957,
          "velocity": 0.44881889763779526,
          "duration": 0.35982106875002273
        },
        {
          "name": "A4",
          "midi": 69,
          "time": 131.02576183124958,
          "velocity": 0.44881889763779526,
          "duration": 0.2883925687500266
        },
        {
          "name": "C#5",
          "midi": 73,
          "time": 131.1337974374996,
          "velocity": 0.4881889763779528,
          "duration": 0.18839266875002636
        },
        {
          "name": "F#5",
          "midi": 78,
          "time": 131.2498687499996,
          "velocity": 0.4566929133858268,
          "duration": 0.14821413750004808
        },
        {
          "name": "C#6",
          "midi": 85,
          "time": 131.35790435624963,
          "velocity": 0.4409448818897638,
          "duration": 0.09553561875000582
        },
        {
          "name": "A5",
          "midi": 81,
          "time": 131.45790425624963,
          "velocity": 0.4409448818897638,
          "duration": 0.14821413750001966
        },
        {
          "name": "F#4",
          "midi": 66,
          "time": 131.56593986249965,
          "velocity": 0.44881889763779526,
          "duration": 0.39553531874997816
        },
        {
          "name": "F4",
          "midi": 65,
          "time": 131.57754699374965,
          "velocity": 0.4881889763779528,
          "duration": 0.3366068062499892
        },
        {
          "name": "A4",
          "midi": 69,
          "time": 131.67754689374965,
          "velocity": 0.4409448818897638,
          "duration": 0.3517853624999532
        },
        {
          "name": "C#5",
          "midi": 73,
          "time": 131.78201107499964,
          "velocity": 0.48031496062992124,
          "duration": 0.23214262499996607
        },
        {
          "name": "F#5",
          "midi": 78,
          "time": 131.88558239999963,
          "velocity": 0.4645669291338583,
          "duration": 0.19999979999997208
        },
        {
          "name": "C#6",
          "midi": 85,
          "time": 131.9980822874996,
          "velocity": 0.44881889763779526,
          "duration": 0.1196427374999871
        },
        {
          "name": "A5",
          "midi": 81,
          "time": 132.1061178937496,
          "velocity": 0.4409448818897638,
          "duration": 0.11160703125000282
        },
        {
          "name": "F#4",
          "midi": 66,
          "time": 132.2141534999996,
          "velocity": 0.4094488188976378,
          "duration": 0.3874996125000223
        },
        {
          "name": "E4",
          "midi": 64,
          "time": 132.2177249249996,
          "velocity": 0.5039370078740157,
          "duration": 0.35982106875002273
        },
        {
          "name": "F#6",
          "midi": 90,
          "time": 132.2534391749996,
          "velocity": 0.6456692913385826,
          "duration": 1.1687488312499852
        },
        {
          "name": "A4",
          "midi": 69,
          "time": 132.3695104874996,
          "velocity": 0.48031496062992124,
          "duration": 0.3124996875000079
        },
        {
          "name": "C#5",
          "midi": 73,
          "time": 132.48201037499962,
          "velocity": 0.4566929133858268,
          "duration": 0.13571415000001252
        },
        {
          "name": "F#5",
          "midi": 78,
          "time": 132.58558169999964,
          "velocity": 0.4881889763779528,
          "duration": 0.1437498562499684
        },
        {
          "name": "C#6",
          "midi": 85,
          "time": 132.69808158749962,
          "velocity": 0.4566929133858268,
          "duration": 0.10357132499999011
        },
        {
          "name": "A5",
          "midi": 81,
          "time": 132.8061171937496,
          "velocity": 0.48031496062992124,
          "duration": 0.2874997124999936
        },
        {
          "name": "F#4",
          "midi": 66,
          "time": 132.9141527999996,
          "velocity": 0.44881889763779526,
          "duration": 0.5151780562499937
        },
        {
          "name": "D#4",
          "midi": 63,
          "time": 132.9221885062496,
          "velocity": 0.5433070866141733,
          "duration": 0.5196423375000165
        },
        {
          "name": "A4",
          "midi": 69,
          "time": 133.0293312562496,
          "velocity": 0.5039370078740157,
          "duration": 0.0848213437499794
        },
        {
          "name": "C#5",
          "midi": 73,
          "time": 133.1373668624996,
          "velocity": 0.44881889763779526,
          "duration": 0.1999998000000005
        },
        {
          "name": "F#5",
          "midi": 78,
          "time": 133.25790245624958,
          "velocity": 0.4409448818897638,
          "duration": 0.2357140500000412
        },
        {
          "name": "C#6",
          "midi": 85,
          "time": 133.3614737812496,
          "velocity": 0.44881889763779526,
          "duration": 0.1285713000000328
        },
        {
          "name": "A5",
          "midi": 81,
          "time": 133.47754509374963,
          "velocity": 0.48031496062992124,
          "duration": 0.048214237499990986
        },
        {
          "name": "E4",
          "midi": 64,
          "time": 133.59808068749962,
          "velocity": 0.47244094488188976,
          "duration": 0.11607131249999725
        },
        {
          "name": "A6",
          "midi": 93,
          "time": 133.59808068749962,
          "velocity": 0.6062992125984252,
          "duration": 0.32410681874998204
        },
        {
          "name": "C#4",
          "midi": 61,
          "time": 133.6016521124996,
          "velocity": 0.5590551181102362,
          "duration": 0.13214272499999424
        },
        {
          "name": "A4",
          "midi": 69,
          "time": 133.7177234249996,
          "velocity": 0.5196850393700787,
          "duration": 0.03214282499999399
        },
        {
          "name": "C#5",
          "midi": 73,
          "time": 133.8221876062496,
          "velocity": 0.49606299212598426,
          "duration": 0.1517855624999811
        },
        {
          "name": "E5",
          "midi": 76,
          "time": 133.9373660624996,
          "velocity": 0.4881889763779528,
          "duration": 0.13660700624998867
        },
        {
          "name": "C#7",
          "midi": 97,
          "time": 134.07397306874958,
          "velocity": 0.5905511811023622,
          "duration": 0.12767844374999981
        },
        {
          "name": "C#6",
          "midi": 85,
          "time": 134.19361580624957,
          "velocity": 0.3543307086614173,
          "duration": 0.04821423750001941
        },
        {
          "name": "B3",
          "midi": 59,
          "time": 134.37397276874958,
          "velocity": 0.4251968503937008,
          "duration": 0.508035206250014
        },
        {
          "name": "F#5",
          "midi": 78,
          "time": 134.41772272499958,
          "velocity": 0.5905511811023622,
          "duration": 1.2562487437500636
        },
        {
          "name": "D#4",
          "midi": 63,
          "time": 134.6257582312496,
          "velocity": 0.4330708661417323,
          "duration": 0.10357132499999011
        },
        {
          "name": "F#4",
          "midi": 66,
          "time": 134.74986524999957,
          "velocity": 0.4881889763779528,
          "duration": 0.051785662500009266
        },
        {
          "name": "F#4",
          "midi": 66,
          "time": 134.85790085624959,
          "velocity": 0.44881889763779526,
          "duration": 0.15624984375000395
        },
        {
          "name": "C#5",
          "midi": 73,
          "time": 134.9659364624996,
          "velocity": 0.4251968503937008,
          "duration": 0.10803560624998454
        },
        {
          "name": "A4",
          "midi": 69,
          "time": 135.0695077874996,
          "velocity": 0.4251968503937008,
          "duration": 0.35982106875005115
        },
        {
          "name": "A3",
          "midi": 57,
          "time": 135.1820076749996,
          "velocity": 0.44881889763779526,
          "duration": 0.29553541875003475
        },
        {
          "name": "C#4",
          "midi": 61,
          "time": 135.28557899999961,
          "velocity": 0.4881889763779528,
          "duration": 0.30803540625001347
        },
        {
          "name": "E4",
          "midi": 64,
          "time": 135.39361460624963,
          "velocity": 0.44881889763779526,
          "duration": 0.44374955624999757
        },
        {
          "name": "F#4",
          "midi": 66,
          "time": 135.49004308124964,
          "velocity": 0.4645669291338583,
          "duration": 0.2241069187500102
        },
        {
          "name": "C#5",
          "midi": 73,
          "time": 135.60165011249964,
          "velocity": 0.4251968503937008,
          "duration": 0.09999990000000025
        },
        {
          "name": "A4",
          "midi": 69,
          "time": 135.70165001249964,
          "velocity": 0.47244094488188976,
          "duration": 0.03214282499999399
        },
        {
          "name": "A5",
          "midi": 81,
          "time": 135.84182844374962,
          "velocity": 0.5984251968503937,
          "duration": 0.29553541875000633
        },
        {
          "name": "G#3",
          "midi": 56,
          "time": 135.84986414999963,
          "velocity": 0.5354330708661418,
          "duration": 0.2401783312500072
        },
        {
          "name": "C#4",
          "midi": 61,
          "time": 135.96950688749962,
          "velocity": 0.4881889763779528,
          "duration": 0.11249988750000739
        },
        {
          "name": "E4",
          "midi": 64,
          "time": 136.09004248124964,
          "velocity": 0.47244094488188976,
          "duration": 0.0794642062499804
        },
        {
          "name": "A4",
          "midi": 69,
          "time": 136.2016495124996,
          "velocity": 0.4881889763779528,
          "duration": 0.08839276874999769
        },
        {
          "name": "E5",
          "midi": 76,
          "time": 136.34182794374962,
          "velocity": 0.4881889763779528,
          "duration": 0.34821393749999174
        },
        {
          "name": "C#6",
          "midi": 85,
          "time": 136.34182794374962,
          "velocity": 0.6141732283464567,
          "duration": 0.18035696250001365
        },
        {
          "name": "A5",
          "midi": 81,
          "time": 136.52575633124962,
          "velocity": 0.47244094488188976,
          "duration": 0.21160693124997465
        },
        {
          "name": "F#3",
          "midi": 54,
          "time": 136.7221847062496,
          "velocity": 0.6062992125984252,
          "duration": 0.3839281874999756
        },
        {
          "name": "E6",
          "midi": 88,
          "time": 136.7659346624996,
          "velocity": 0.6220472440944882,
          "duration": 0.3437496562499689
        },
        {
          "name": "C#6",
          "midi": 85,
          "time": 136.7695060874996,
          "velocity": 0.5748031496062992,
          "duration": 0.34017823124997904
        },
        {
          "name": "C#4",
          "midi": 61,
          "time": 136.9855772999996,
          "velocity": 0.5196850393700787,
          "duration": 0.1330355812499988
        },
        {
          "name": "E4",
          "midi": 64,
          "time": 137.11772002499958,
          "velocity": 0.48031496062992124,
          "duration": 0.09999990000000025
        },
        {
          "name": "D#6",
          "midi": 87,
          "time": 137.11772002499958,
          "velocity": 0.5748031496062992,
          "duration": 0.2241069187500102
        },
        {
          "name": "B5",
          "midi": 83,
          "time": 137.12218430624958,
          "velocity": 0.5196850393700787,
          "duration": 0.22321406250000564
        },
        {
          "name": "F#4",
          "midi": 66,
          "time": 137.23379133749958,
          "velocity": 0.49606299212598426,
          "duration": 0.11607131249999725
        },
        {
          "name": "C#6",
          "midi": 85,
          "time": 137.34986264999958,
          "velocity": 0.5511811023622047,
          "duration": 0.0955356187499774
        },
        {
          "name": "A5",
          "midi": 81,
          "time": 137.35343407499957,
          "velocity": 0.4330708661417323,
          "duration": 0.1839283874999751
        },
        {
          "name": "A4",
          "midi": 69,
          "time": 137.35789835624956,
          "velocity": 0.4645669291338583,
          "duration": 0.13214272499999424
        },
        {
          "name": "C#5",
          "midi": 73,
          "time": 137.47396966874956,
          "velocity": 0.5039370078740157,
          "duration": 0.1401784312499501
        },
        {
          "name": "E5",
          "midi": 76,
          "time": 137.60164811249953,
          "velocity": 0.5039370078740157,
          "duration": 0.1758926812499908
        },
        {
          "name": "B5",
          "midi": 83,
          "time": 137.60611239374953,
          "velocity": 0.5433070866141733,
          "duration": 0.3758924812499913
        },
        {
          "name": "G#5",
          "midi": 80,
          "time": 137.60968381874952,
          "velocity": 0.49606299212598426,
          "duration": 0.37232105625000145
        },
        {
          "name": "F#5",
          "midi": 78,
          "time": 137.76593366249952,
          "velocity": 0.5196850393700787,
          "duration": 0.10357132499999011
        },
        {
          "name": "E5",
          "midi": 76,
          "time": 137.8855763999995,
          "velocity": 0.44881889763779526,
          "duration": 0.09999990000000025
        },
        {
          "name": "C#5",
          "midi": 73,
          "time": 137.99361200624952,
          "velocity": 0.49606299212598426,
          "duration": 0.10446418124999468
        },
        {
          "name": "A5",
          "midi": 81,
          "time": 138.00164771249953,
          "velocity": 0.5196850393700787,
          "duration": 0.3517853624999816
        },
        {
          "name": "F#5",
          "midi": 78,
          "time": 138.00611199374953,
          "velocity": 0.5118110236220472,
          "duration": 0.36339249374998417
        },
        {
          "name": "A4",
          "midi": 69,
          "time": 138.10968331874952,
          "velocity": 0.4409448818897638,
          "duration": 0.11249988750000739
        },
        {
          "name": "F#4",
          "midi": 66,
          "time": 138.22218320624953,
          "velocity": 0.5196850393700787,
          "duration": 0.09553561875000582
        },
        {
          "name": "E4",
          "midi": 64,
          "time": 138.33379023749953,
          "velocity": 0.5196850393700787,
          "duration": 0.09999989999997183
        },
        {
          "name": "F#4",
          "midi": 66,
          "time": 138.4373615624995,
          "velocity": 0.5118110236220472,
          "duration": 0.08482134375000783
        },
        {
          "name": "E4",
          "midi": 64,
          "time": 138.5498614499995,
          "velocity": 0.44881889763779526,
          "duration": 0.11607131249999725
        },
        {
          "name": "G#5",
          "midi": 80,
          "time": 138.5498614499995,
          "velocity": 0.5669291338582677,
          "duration": 0.21160693125000307
        },
        {
          "name": "E5",
          "midi": 76,
          "time": 138.5534328749995,
          "velocity": 0.5196850393700787,
          "duration": 0.21249978750000764
        },
        {
          "name": "C#4",
          "midi": 61,
          "time": 138.65789705624948,
          "velocity": 0.5039370078740157,
          "duration": 0.10803560625001296
        },
        {
          "name": "A3",
          "midi": 57,
          "time": 138.7739683687495,
          "velocity": 0.4330708661417323,
          "duration": 0.12410701875000996
        },
        {
          "name": "F#5",
          "midi": 78,
          "time": 138.7775397937495,
          "velocity": 0.49606299212598426,
          "duration": 0.0964284750000104
        },
        {
          "name": "D#5",
          "midi": 75,
          "time": 138.7855754999995,
          "velocity": 0.5118110236220472,
          "duration": 0.10446418124999468
        },
        {
          "name": "F#3",
          "midi": 54,
          "time": 138.9016468124995,
          "velocity": 0.48031496062992124,
          "duration": 0.05982136874999355
        },
        {
          "name": "F#2",
          "midi": 42,
          "time": 139.0739680687495,
          "velocity": 0.5433070866141733,
          "duration": 0.3919638937499883
        },
        {
          "name": "C#5",
          "midi": 73,
          "time": 139.1221823062495,
          "velocity": 0.44881889763779526,
          "duration": 0.367856775000007
        },
        {
          "name": "E5",
          "midi": 76,
          "time": 139.1221823062495,
          "velocity": 0.5275590551181102,
          "duration": 0.3919638937499883
        },
        {
          "name": "C#3",
          "midi": 49,
          "time": 139.3614677812495,
          "velocity": 0.5039370078740157,
          "duration": 0.14821413749999124
        },
        {
          "name": "D#5",
          "midi": 75,
          "time": 139.49807478749952,
          "velocity": 0.44881889763779526,
          "duration": 0.22410691874995337
        },
        {
          "name": "B4",
          "midi": 71,
          "time": 139.5016462124995,
          "velocity": 0.47244094488188976,
          "duration": 0.2205354937499635
        },
        {
          "name": "E3",
          "midi": 52,
          "time": 139.5061104937495,
          "velocity": 0.4015748031496063,
          "duration": 0.08392848749997484
        },
        {
          "name": "F#3",
          "midi": 54,
          "time": 139.61771752499948,
          "velocity": 0.3937007874015748,
          "duration": 0.10803560624998454
        },
        {
          "name": "C#5",
          "midi": 73,
          "time": 139.73378883749947,
          "velocity": 0.44881889763779526,
          "duration": 0.08839276874999769
        },
        {
          "name": "A3",
          "midi": 57,
          "time": 139.73736026249946,
          "velocity": 0.44881889763779526,
          "duration": 0.13214272500002266
        },
        {
          "name": "A4",
          "midi": 69,
          "time": 139.73736026249946,
          "velocity": 0.44881889763779526,
          "duration": 0.18839266875002636
        },
        {
          "name": "C#4",
          "midi": 61,
          "time": 139.84539586874948,
          "velocity": 0.48031496062992124,
          "duration": 0.12410701875000996
        },
        {
          "name": "E4",
          "midi": 64,
          "time": 139.97396716874948,
          "velocity": 0.4566929133858268,
          "duration": 0.0955356187499774
        },
        {
          "name": "G#4",
          "midi": 68,
          "time": 139.97753859374947,
          "velocity": 0.44881889763779526,
          "duration": 0.21607121249996908
        },
        {
          "name": "B4",
          "midi": 71,
          "time": 139.97753859374947,
          "velocity": 0.47244094488188976,
          "duration": 0.21607121249996908
        },
        {
          "name": "C#4",
          "midi": 61,
          "time": 140.09003848124945,
          "velocity": 0.49606299212598426,
          "duration": 0.11607131249999725
        },
        {
          "name": "A3",
          "midi": 57,
          "time": 140.20968121874944,
          "velocity": 0.4251968503937008,
          "duration": 0.14017843125003537
        },
        {
          "name": "F#4",
          "midi": 66,
          "time": 140.21771692499945,
          "velocity": 0.4645669291338583,
          "duration": 0.2482140375000199
        },
        {
          "name": "A4",
          "midi": 69,
          "time": 140.21771692499945,
          "velocity": 0.4566929133858268,
          "duration": 0.2562497437500326
        },
        {
          "name": "F#3",
          "midi": 54,
          "time": 140.34182394374946,
          "velocity": 0.4409448818897638,
          "duration": 0.04821423750001941
        },
        {
          "name": "E3",
          "midi": 52,
          "time": 140.47396666874948,
          "velocity": 0.4094488188976378,
          "duration": 0.17589268125001922
        },
        {
          "name": "E4",
          "midi": 64,
          "time": 140.4820023749995,
          "velocity": 0.3858267716535433,
          "duration": 0.16785697500000651
        },
        {
          "name": "G#4",
          "midi": 68,
          "time": 140.4820023749995,
          "velocity": 0.4409448818897638,
          "duration": 0.45535668750000013
        },
        {
          "name": "C#3",
          "midi": 49,
          "time": 140.6337879374995,
          "velocity": 0.3937007874015748,
          "duration": 0.1758926812499908
        },
        {
          "name": "F#2",
          "midi": 42,
          "time": 140.8141448999995,
          "velocity": 0.3858267716535433,
          "duration": 0.17946410625000908
        },
        {
          "name": "A3",
          "midi": 57,
          "time": 140.8141448999995,
          "velocity": 0.3858267716535433,
          "duration": 0.8839276875000053
        },
        {
          "name": "C#3",
          "midi": 49,
          "time": 140.9855732999995,
          "velocity": 0.3700787401574803,
          "duration": 0.14017843125000695
        },
        {
          "name": "F#2",
          "midi": 42,
          "time": 141.1257517312495,
          "velocity": 0.31496062992125984,
          "duration": 0.1678569749999781
        },
        {
          "name": "F#4",
          "midi": 66,
          "time": 141.1337874374995,
          "velocity": 0.4094488188976378,
          "duration": 0.2562497437499758
        },
        {
          "name": "D#4",
          "midi": 63,
          "time": 141.1373588624995,
          "velocity": 0.2755905511811024,
          "duration": 0.14821413749999124
        },
        {
          "name": "C#3",
          "midi": 49,
          "time": 141.29003728124948,
          "velocity": 0.33858267716535434,
          "duration": 0.17142839999999637
        },
        {
          "name": "F#2",
          "midi": 42,
          "time": 141.4578942562495,
          "velocity": 0.28346456692913385,
          "duration": 0.16428554999998823
        },
        {
          "name": "E4",
          "midi": 64,
          "time": 141.46146568124948,
          "velocity": 0.28346456692913385,
          "duration": 0.2080355062500132
        },
        {
          "name": "C#4",
          "midi": 61,
          "time": 141.46592996249947,
          "velocity": 0.31496062992125984,
          "duration": 0.16339269375001209
        },
        {
          "name": "C#3",
          "midi": 49,
          "time": 141.6418226437495,
          "velocity": 0.25196850393700787,
          "duration": 0.21160693125000307
        },
        {
          "name": "F#3",
          "midi": 54,
          "time": 141.9141437999995,
          "velocity": 0.3858267716535433,
          "duration": 0.5919636937499604
        },
        {
          "name": "G#2",
          "midi": 44,
          "time": 141.9293223562495,
          "velocity": 0.30708661417322836,
          "duration": 0.36428534999998874
        },
        {
          "name": "C#4",
          "midi": 61,
          "time": 141.9293223562495,
          "velocity": 0.30708661417322836,
          "duration": 0.9928561499999944
        },
        {
          "name": "D#4",
          "midi": 63,
          "time": 141.9293223562495,
          "velocity": 0.28346456692913385,
          "duration": 1.0321418249999965
        },
        {
          "name": "D#3",
          "midi": 51,
          "time": 142.26592916249948,
          "velocity": 0.25984251968503935,
          "duration": 0.17946410624998066
        },
        {
          "name": "G#2",
          "midi": 44,
          "time": 142.42575043124947,
          "velocity": 0.30708661417322836,
          "duration": 0.1839283875000035
        },
        {
          "name": "D#3",
          "midi": 51,
          "time": 142.58557169999946,
          "velocity": 0.2992125984251969,
          "duration": 0.12410701875000996
        },
        {
          "name": "G#2",
          "midi": 44,
          "time": 142.72575013124947,
          "velocity": 0.2992125984251969,
          "duration": 0.14017843125000695
        },
        {
          "name": "G#3",
          "midi": 56,
          "time": 142.72932155624946,
          "velocity": 0.3858267716535433,
          "duration": 0.2803568625000139
        },
        {
          "name": "D#3",
          "midi": 51,
          "time": 142.85789285624946,
          "velocity": 0.29133858267716534,
          "duration": 0.15178556250000952
        },
        {
          "name": "A#3",
          "midi": 58,
          "time": 143.0016427124995,
          "velocity": 0.4330708661417323,
          "duration": 0.5357137500000135
        },
        {
          "name": "G#2",
          "midi": 44,
          "time": 143.00610699374948,
          "velocity": 0.2755905511811024,
          "duration": 0.13928557500000238
        },
        {
          "name": "D#3",
          "midi": 51,
          "time": 143.13735686249947,
          "velocity": 0.33070866141732286,
          "duration": 0.11607131250002567
        },
        {
          "name": "G#2",
          "midi": 44,
          "time": 143.2659281624995,
          "velocity": 0.3228346456692913,
          "duration": 0.13214272499999424
        },
        {
          "name": "D#3",
          "midi": 51,
          "time": 143.3980708874995,
          "velocity": 0.29133858267716534,
          "duration": 0.11160703125000282
        },
        {
          "name": "G#2",
          "midi": 44,
          "time": 143.5337850374995,
          "velocity": 0.2992125984251969,
          "duration": 0.1517855624999811
        },
        {
          "name": "C#4",
          "midi": 61,
          "time": 143.5373564624995,
          "velocity": 0.4566929133858268,
          "duration": 0.0803570625000134
        },
        {
          "name": "D#3",
          "midi": 51,
          "time": 143.6819991749995,
          "velocity": 0.36220472440944884,
          "duration": 0.14732128124998667
        },
        {
          "name": "G#2",
          "midi": 44,
          "time": 143.8453918687495,
          "velocity": 0.31496062992125984,
          "duration": 0.17232125625002936
        },
        {
          "name": "C4",
          "midi": 60,
          "time": 143.8453918687495,
          "velocity": 0.3543307086614173,
          "duration": 0.3642853500000456
        },
        {
          "name": "F#4",
          "midi": 66,
          "time": 143.8453918687495,
          "velocity": 0.3779527559055118,
          "duration": 0.40803530625004214
        },
        {
          "name": "D#4",
          "midi": 63,
          "time": 143.8578918562495,
          "velocity": 0.25196850393700787,
          "duration": 0.38392818750003244
        },
        {
          "name": "D#3",
          "midi": 51,
          "time": 144.00610599374951,
          "velocity": 0.2992125984251969,
          "duration": 0.13571415000001252
        },
        {
          "name": "G#2",
          "midi": 44,
          "time": 144.14985584999954,
          "velocity": 0.28346456692913385,
          "duration": 0.1598212687499938
        },
        {
          "name": "D#3",
          "midi": 51,
          "time": 144.29806998749953,
          "velocity": 0.2440944881889764,
          "duration": 0.12767844374999981
        },
        {
          "name": "G#2",
          "midi": 44,
          "time": 144.45342697499953,
          "velocity": 0.25984251968503935,
          "duration": 0.18839266874999794
        },
        {
          "name": "A#4",
          "midi": 70,
          "time": 144.45789125624952,
          "velocity": 0.31496062992125984,
          "duration": 0.10357132500001853
        },
        {
          "name": "D#4",
          "midi": 63,
          "time": 144.46592696249954,
          "velocity": 0.25196850393700787,
          "duration": 0.09999990000000025
        },
        {
          "name": "F#4",
          "midi": 66,
          "time": 144.46592696249954,
          "velocity": 0.2440944881889764,
          "duration": 0.11160703125000282
        },
        {
          "name": "D#3",
          "midi": 51,
          "time": 144.64985534999954,
          "velocity": 0.23622047244094488,
          "duration": 0.15178556250000952
        },
        {
          "name": "F#3",
          "midi": 54,
          "time": 144.83735516249956,
          "velocity": 0.3464566929133858,
          "duration": 0.6241065187499544
        },
        {
          "name": "C#4",
          "midi": 61,
          "time": 144.84181944374956,
          "velocity": 0.33070866141732286,
          "duration": 0.9839275874999203
        },
        {
          "name": "D#4",
          "midi": 63,
          "time": 144.84539086874955,
          "velocity": 0.29133858267716534,
          "duration": 1.5803555624999603
        },
        {
          "name": "G#2",
          "midi": 44,
          "time": 144.84985514999954,
          "velocity": 0.3228346456692913,
          "duration": 0.27946400625000933
        },
        {
          "name": "D#3",
          "midi": 51,
          "time": 145.12217630624954,
          "velocity": 0.2204724409448819,
          "duration": 0.1437498562499968
        },
        {
          "name": "G#2",
          "midi": 44,
          "time": 145.26592616249954,
          "velocity": 0.2677165354330709,
          "duration": 0.1357141499999841
        },
        {
          "name": "D#3",
          "midi": 51,
          "time": 145.39806888749953,
          "velocity": 0.2992125984251969,
          "duration": 0.1437498562499968
        },
        {
          "name": "G#2",
          "midi": 44,
          "time": 145.54539016874952,
          "velocity": 0.2755905511811024,
          "duration": 0.13660700624998867
        },
        {
          "name": "G#3",
          "midi": 56,
          "time": 145.54985444999951,
          "velocity": 0.41732283464566927,
          "duration": 0.2562497437499758
        },
        {
          "name": "D#3",
          "midi": 51,
          "time": 145.6855685999995,
          "velocity": 0.2677165354330709,
          "duration": 0.12053559374999168
        },
        {
          "name": "G#2",
          "midi": 44,
          "time": 145.8221756062495,
          "velocity": 0.29133858267716534,
          "duration": 0.1357141499999841
        },
        {
          "name": "A#3",
          "midi": 58,
          "time": 145.8221756062495,
          "velocity": 0.4330708661417323,
          "duration": 0.5517851625000105
        },
        {
          "name": "D#3",
          "midi": 51,
          "time": 145.95788975624947,
          "velocity": 0.31496062992125984,
          "duration": 0.11607131249999725
        },
        {
          "name": "G#2",
          "midi": 44,
          "time": 146.09003248124947,
          "velocity": 0.29133858267716534,
          "duration": 0.14374985625002523
        },
        {
          "name": "D#3",
          "midi": 51,
          "time": 146.22574663124948,
          "velocity": 0.2992125984251969,
          "duration": 0.11964273750001553
        },
        {
          "name": "C#4",
          "midi": 61,
          "time": 146.3578893562495,
          "velocity": 0.3858267716535433,
          "duration": 0.13571415000001252
        },
        {
          "name": "G#2",
          "midi": 44,
          "time": 146.3614607812495,
          "velocity": 0.2992125984251969,
          "duration": 0.14821413750004808
        },
        {
          "name": "D#3",
          "midi": 51,
          "time": 146.50163921249953,
          "velocity": 0.3228346456692913,
          "duration": 0.14374985625002523
        },
        {
          "name": "F#4",
          "midi": 66,
          "time": 146.67396046874956,
          "velocity": 0.4094488188976378,
          "duration": 0.3633924937500126
        },
        {
          "name": "G#2",
          "midi": 44,
          "time": 146.68199617499957,
          "velocity": 0.2755905511811024,
          "duration": 0.14374985625002523
        },
        {
          "name": "C4",
          "midi": 60,
          "time": 146.68199617499957,
          "velocity": 0.31496062992125984,
          "duration": 0.33571395000001303
        },
        {
          "name": "D#4",
          "midi": 63,
          "time": 146.69003188124958,
          "velocity": 0.2283464566929134,
          "duration": 0.33214252499999475
        },
        {
          "name": "D#3",
          "midi": 51,
          "time": 146.82931745624958,
          "velocity": 0.30708661417322836,
          "duration": 0.12410701875000996
        },
        {
          "name": "G#2",
          "midi": 44,
          "time": 146.9694958874996,
          "velocity": 0.28346456692913385,
          "duration": 0.16428554999998823
        },
        {
          "name": "D#3",
          "midi": 51,
          "time": 147.13378143749958,
          "velocity": 0.2440944881889764,
          "duration": 0.17232125625000094
        },
        {
          "name": "A#4",
          "midi": 70,
          "time": 147.30610269374958,
          "velocity": 0.30708661417322836,
          "duration": 0.30803540624998504
        },
        {
          "name": "G#2",
          "midi": 44,
          "time": 147.31770982499958,
          "velocity": 0.2755905511811024,
          "duration": 0.18839266874999794
        },
        {
          "name": "F#4",
          "midi": 66,
          "time": 147.31770982499958,
          "velocity": 0.2677165354330709,
          "duration": 0.3196425374999876
        },
        {
          "name": "D#4",
          "midi": 63,
          "time": 147.32931695624958,
          "velocity": 0.1889763779527559,
          "duration": 0.2687497312499829
        },
        {
          "name": "D#3",
          "midi": 51,
          "time": 147.52217390624958,
          "velocity": 0.2992125984251969,
          "duration": 0.13124986874998967
        },
        {
          "name": "C#4",
          "midi": 61,
          "time": 147.74538796874955,
          "velocity": 0.3858267716535433,
          "duration": 0.19642837500001065
        },
        {
          "name": "G#2",
          "midi": 44,
          "time": 147.76145938124955,
          "velocity": 0.30708661417322836,
          "duration": 0.2562497437500326
        },
        {
          "name": "D#2",
          "midi": 39,
          "time": 148.00967341874957,
          "velocity": 0.3858267716535433,
          "duration": 0.20446408125002336
        },
        {
          "name": "G#2",
          "midi": 44,
          "time": 148.1980660874996,
          "velocity": 0.29133858267716534,
          "duration": 0.1437498562499968
        },
        {
          "name": "G#4",
          "midi": 68,
          "time": 148.1980660874996,
          "velocity": 0.4015748031496063,
          "duration": 0.10357132499999011
        },
        {
          "name": "F5",
          "midi": 77,
          "time": 148.1980660874996,
          "velocity": 0.4094488188976378,
          "duration": 0.08392848750000326
        },
        {
          "name": "C5",
          "midi": 72,
          "time": 148.2016375124996,
          "velocity": 0.3779527559055118,
          "duration": 0.07589278125001897
        },
        {
          "name": "D#3",
          "midi": 51,
          "time": 148.3534230749996,
          "velocity": 0.3543307086614173,
          "duration": 0.11249988750000739
        },
        {
          "name": "D#5",
          "midi": 75,
          "time": 148.4980657874996,
          "velocity": 0.4251968503937008,
          "duration": 0.0714284999999677
        },
        {
          "name": "G#2",
          "midi": 44,
          "time": 148.5016372124996,
          "velocity": 0.30708661417322836,
          "duration": 0.1357141499999841
        },
        {
          "name": "F#4",
          "midi": 66,
          "time": 148.5016372124996,
          "velocity": 0.4094488188976378,
          "duration": 0.08392848749997484
        },
        {
          "name": "A#4",
          "midi": 70,
          "time": 148.5016372124996,
          "velocity": 0.3937007874015748,
          "duration": 0.06428564999998798
        },
        {
          "name": "D#3",
          "midi": 51,
          "time": 148.64181564374957,
          "velocity": 0.3779527559055118,
          "duration": 0.15624984375000395
        },
        {
          "name": "C#4",
          "midi": 61,
          "time": 148.79360120624958,
          "velocity": 0.3858267716535433,
          "duration": 0.12410701874998153
        },
        {
          "name": "G#4",
          "midi": 68,
          "time": 148.79360120624958,
          "velocity": 0.4015748031496063,
          "duration": 0.5999994000000299
        },
        {
          "name": "A#4",
          "midi": 70,
          "time": 148.79360120624958,
          "velocity": 0.3700787401574803,
          "duration": 0.6044636812500244
        },
        {
          "name": "G#3",
          "midi": 56,
          "time": 148.79806548749957,
          "velocity": 0.33858267716535434,
          "duration": 0.1437498562499968
        },
        {
          "name": "D#3",
          "midi": 51,
          "time": 148.92931535624956,
          "velocity": 0.36220472440944884,
          "duration": 0.09999990000000025
        },
        {
          "name": "A#3",
          "midi": 58,
          "time": 149.06949378749957,
          "velocity": 0.3937007874015748,
          "duration": 0.25267831875001434
        },
        {
          "name": "G#3",
          "midi": 56,
          "time": 149.07752949374958,
          "velocity": 0.2992125984251969,
          "duration": 0.14017843125000695
        },
        {
          "name": "D#4",
          "midi": 63,
          "time": 149.20967221874957,
          "velocity": 0.36220472440944884,
          "duration": 0.11964273750001553
        },
        {
          "name": "C#4",
          "midi": 61,
          "time": 149.3534220749996,
          "velocity": 0.3858267716535433,
          "duration": 0.15267841874998567
        },
        {
          "name": "G#3",
          "midi": 56,
          "time": 149.3578863562496,
          "velocity": 0.33070866141732286,
          "duration": 0.12767844374999981
        },
        {
          "name": "D#3",
          "midi": 51,
          "time": 149.5016362124996,
          "velocity": 0.3543307086614173,
          "duration": 0.08392848750000326
        },
        {
          "name": "F#4",
          "midi": 66,
          "time": 149.6659217624996,
          "velocity": 0.3464566929133858,
          "duration": 0.3919638937500167
        },
        {
          "name": "A#3",
          "midi": 58,
          "time": 149.67395746874962,
          "velocity": 0.30708661417322836,
          "duration": 0.16339269374998366
        },
        {
          "name": "G#3",
          "midi": 56,
          "time": 149.6775288937496,
          "velocity": 0.33070866141732286,
          "duration": 0.14821413749999124
        },
        {
          "name": "G#4",
          "midi": 68,
          "time": 149.6775288937496,
          "velocity": 0.3228346456692913,
          "duration": 0.6598207687499951
        },
        {
          "name": "D#3",
          "midi": 51,
          "time": 149.8337787374996,
          "velocity": 0.29133858267716534,
          "duration": 0.1437498562499968
        },
        {
          "name": "C4",
          "midi": 60,
          "time": 149.9775285937496,
          "velocity": 0.33070866141732286,
          "duration": 0.33214252499999475
        },
        {
          "name": "G#2",
          "midi": 44,
          "time": 149.98556429999962,
          "velocity": 0.30708661417322836,
          "duration": 0.13214272499999424
        },
        {
          "name": "D#3",
          "midi": 51,
          "time": 150.13377843749961,
          "velocity": 0.3228346456692913,
          "duration": 0.1598212687499938
        },
        {
          "name": "G#2",
          "midi": 44,
          "time": 150.30609969374962,
          "velocity": 0.2440944881889764,
          "duration": 0.16785697500000651
        },
        {
          "name": "D#4",
          "midi": 63,
          "time": 150.3141353999996,
          "velocity": 0.30708661417322836,
          "duration": 0.10357132500001853
        },
        {
          "name": "D#2",
          "midi": 39,
          "time": 150.48199237499963,
          "velocity": 0.25984251968503935,
          "duration": 0.13571415000001252
        },
        {
          "name": "A#4",
          "midi": 70,
          "time": 150.68556359999965,
          "velocity": 0.5039370078740157,
          "duration": 0.22857120000000464
        },
        {
          "name": "G#2",
          "midi": 44,
          "time": 150.69359930624967,
          "velocity": 0.31496062992125984,
          "duration": 0.23571405000001278
        },
        {
          "name": "C#4",
          "midi": 61,
          "time": 150.69359930624967,
          "velocity": 0.3228346456692913,
          "duration": 0.1598212687499938
        },
        {
          "name": "F#4",
          "midi": 66,
          "time": 150.69359930624967,
          "velocity": 0.4015748031496063,
          "duration": 0.19642837499998222
        },
        {
          "name": "D#2",
          "midi": 39,
          "time": 150.92217050624967,
          "velocity": 0.4015748031496063,
          "duration": 0.17946410625000908
        },
        {
          "name": "G#4",
          "midi": 68,
          "time": 151.0694917874997,
          "velocity": 0.4409448818897638,
          "duration": 0.10803560624998454
        },
        {
          "name": "F5",
          "midi": 77,
          "time": 151.0694917874997,
          "velocity": 0.44881889763779526,
          "duration": 0.08392848750000326
        },
        {
          "name": "G#2",
          "midi": 44,
          "time": 151.0819917749997,
          "velocity": 0.28346456692913385,
          "duration": 0.1196427374999871
        },
        {
          "name": "C5",
          "midi": 72,
          "time": 151.08556319999968,
          "velocity": 0.29133858267716534,
          "duration": 0.07232135625000069
        },
        {
          "name": "D#3",
          "midi": 51,
          "time": 151.2141344999997,
          "velocity": 0.33070866141732286,
          "duration": 0.10803560625001296
        },
        {
          "name": "F#4",
          "midi": 66,
          "time": 151.3373486624997,
          "velocity": 0.4330708661417323,
          "duration": 0.08839276874996926
        },
        {
          "name": "D#5",
          "midi": 75,
          "time": 151.3418129437497,
          "velocity": 0.41732283464566927,
          "duration": 0.06428564999998798
        },
        {
          "name": "G#2",
          "midi": 44,
          "time": 151.34538436874968,
          "velocity": 0.23622047244094488,
          "duration": 0.14464271249997296
        },
        {
          "name": "A#4",
          "midi": 70,
          "time": 151.34538436874968,
          "velocity": 0.4015748031496063,
          "duration": 0.06428564999998798
        },
        {
          "name": "D#3",
          "midi": 51,
          "time": 151.48556279999966,
          "velocity": 0.3779527559055118,
          "duration": 0.38839246874999844
        },
        {
          "name": "A#4",
          "midi": 70,
          "time": 151.63734836249964,
          "velocity": 0.4409448818897638,
          "duration": 0.5446423125000308
        },
        {
          "name": "G#3",
          "midi": 56,
          "time": 151.64538406874965,
          "velocity": 0.3700787401574803,
          "duration": 0.14017843125000695
        },
        {
          "name": "C#4",
          "midi": 61,
          "time": 151.64538406874965,
          "velocity": 0.2283464566929134,
          "duration": 0.13214272499999424
        },
        {
          "name": "G#4",
          "midi": 68,
          "time": 151.64538406874965,
          "velocity": 0.36220472440944884,
          "duration": 0.540178031250008
        },
        {
          "name": "D#3",
          "midi": 51,
          "time": 151.77395536874965,
          "velocity": 0.33858267716535434,
          "duration": 0.09999990000000025
        },
        {
          "name": "A#3",
          "midi": 58,
          "time": 151.91413379999966,
          "velocity": 0.3937007874015748,
          "duration": 0.3151782562499932
        },
        {
          "name": "G#3",
          "midi": 56,
          "time": 151.92574093124966,
          "velocity": 0.25196850393700787,
          "duration": 0.09999990000000025
        },
        {
          "name": "D#4",
          "midi": 63,
          "time": 152.04181224374966,
          "velocity": 0.25984251968503935,
          "duration": 0.10803560625001296
        },
        {
          "name": "C#4",
          "midi": 61,
          "time": 152.19002638124965,
          "velocity": 0.33070866141732286,
          "duration": 0.11607131249999725
        },
        {
          "name": "G#3",
          "midi": 56,
          "time": 152.19359780624964,
          "velocity": 0.25196850393700787,
          "duration": 0.1437498562499968
        },
        {
          "name": "D#3",
          "midi": 51,
          "time": 152.33734766249964,
          "velocity": 0.25984251968503935,
          "duration": 0.10446418124999468
        },
        {
          "name": "G#3",
          "midi": 56,
          "time": 152.49002608124962,
          "velocity": 0.2677165354330709,
          "duration": 0.19553551874997765
        },
        {
          "name": "A#3",
          "midi": 58,
          "time": 152.4935975062496,
          "velocity": 0.25984251968503935,
          "duration": 0.2241069187499818
        },
        {
          "name": "F#4",
          "midi": 66,
          "time": 152.4935975062496,
          "velocity": 0.30708661417322836,
          "duration": 0.5357137499999567
        },
        {
          "name": "G#4",
          "midi": 68,
          "time": 152.4980617874996,
          "velocity": 0.2755905511811024,
          "duration": 0.8919633937499611
        },
        {
          "name": "D#3",
          "midi": 51,
          "time": 152.6534187749996,
          "velocity": 0.2440944881889764,
          "duration": 0.16428554999998823
        },
        {
          "name": "C4",
          "midi": 60,
          "time": 152.8293114562496,
          "velocity": 0.33070866141732286,
          "duration": 0.35267821874998617
        },
        {
          "name": "G#3",
          "midi": 56,
          "time": 152.8337757374996,
          "velocity": 0.2204724409448819,
          "duration": 0.1678569749999781
        },
        {
          "name": "D#3",
          "midi": 51,
          "time": 152.99806128749958,
          "velocity": 0.2283464566929134,
          "duration": 0.17142839999999637
        },
        {
          "name": "G#3",
          "midi": 56,
          "time": 153.18198967499958,
          "velocity": 0.2125984251968504,
          "duration": 0.24017833124997878
        },
        {
          "name": "D#4",
          "midi": 63,
          "time": 153.18198967499958,
          "velocity": 0.2992125984251969,
          "duration": 0.20357122499999036
        },
        {
          "name": "D#3",
          "midi": 51,
          "time": 153.40609659374957,
          "velocity": 0.2283464566929134,
          "duration": 0.08749991249999312
        },
        {
          "name": "D#5",
          "midi": 75,
          "time": 153.69806058749955,
          "velocity": 0.4645669291338583,
          "duration": 1.8035696249999376
        },
        {
          "name": "F#3",
          "midi": 54,
          "time": 153.70163201249954,
          "velocity": 0.28346456692913385,
          "duration": 1.683926887499922
        },
        {
          "name": "C#4",
          "midi": 61,
          "time": 153.70163201249954,
          "velocity": 0.2992125984251969,
          "duration": 0.5517851624999821
        },
        {
          "name": "D#4",
          "midi": 63,
          "time": 153.99359600624953,
          "velocity": 0.30708661417322836,
          "duration": 0.2160712124999975
        },
        {
          "name": "F#4",
          "midi": 66,
          "time": 154.16145298124954,
          "velocity": 0.28346456692913385,
          "duration": 0.11249988749997897
        },
        {
          "name": "A#4",
          "midi": 70,
          "time": 154.30163141249952,
          "velocity": 0.30708661417322836,
          "duration": 0.09999990000000025
        },
        {
          "name": "G#3",
          "midi": 56,
          "time": 154.4337741374995,
          "velocity": 0.3779527559055118,
          "duration": 0.32410681874998204
        },
        {
          "name": "F#4",
          "midi": 66,
          "time": 154.4373455624995,
          "velocity": 0.33070866141732286,
          "duration": 0.09196419374998754
        },
        {
          "name": "D#4",
          "midi": 63,
          "time": 154.5739525687495,
          "velocity": 0.3779527559055118,
          "duration": 0.1839283875000035
        },
        {
          "name": "A#3",
          "midi": 58,
          "time": 154.7177024249995,
          "velocity": 0.3779527559055118,
          "duration": 0.6116065312499757
        },
        {
          "name": "D#4",
          "midi": 63,
          "time": 154.8659165624995,
          "velocity": 0.3779527559055118,
          "duration": 0.14821413749999124
        },
        {
          "name": "F#4",
          "midi": 66,
          "time": 155.0177021249995,
          "velocity": 0.31496062992125984,
          "duration": 0.11607131249999725
        },
        {
          "name": "A#4",
          "midi": 70,
          "time": 155.1453805687495,
          "velocity": 0.28346456692913385,
          "duration": 0.13660700624998867
        },
        {
          "name": "F#4",
          "midi": 66,
          "time": 155.28555899999947,
          "velocity": 0.2992125984251969,
          "duration": 0.18035696250001365
        },
        {
          "name": "C#4",
          "midi": 61,
          "time": 155.29805898749947,
          "velocity": 0.2992125984251969,
          "duration": 0.2357140500000412
        },
        {
          "name": "D#4",
          "midi": 63,
          "time": 155.46591596249948,
          "velocity": 0.29133858267716534,
          "duration": 0.04374995625002498
        },
        {
          "name": "C4",
          "midi": 60,
          "time": 155.67752289374954,
          "velocity": 0.3464566929133858,
          "duration": 0.6446422125000026
        },
        {
          "name": "F#5",
          "midi": 78,
          "time": 155.67752289374954,
          "velocity": 0.4330708661417323,
          "duration": 0.6321422249999955
        },
        {
          "name": "D#4",
          "midi": 63,
          "time": 155.84537986874955,
          "velocity": 0.30708661417322836,
          "duration": 0.399999600000001
        },
        {
          "name": "F#4",
          "midi": 66,
          "time": 155.98555829999955,
          "velocity": 0.33858267716535434,
          "duration": 0.29196399374998805
        },
        {
          "name": "A#4",
          "midi": 70,
          "time": 156.14180814374956,
          "velocity": 0.29133858267716534,
          "duration": 0.10803560624998454
        },
        {
          "name": "A#5",
          "midi": 82,
          "time": 156.32216510624954,
          "velocity": 0.28346456692913385,
          "duration": 0.21517835624999293
        },
        {
          "name": "C5",
          "midi": 72,
          "time": 156.33377223749955,
          "velocity": 0.2677165354330709,
          "duration": 0.1999998000000005
        },
        {
          "name": "D#5",
          "midi": 75,
          "time": 156.53734346249954,
          "velocity": 0.2440944881889764,
          "duration": 0.048214237499990986
        },
        {
          "name": "F#3",
          "midi": 54,
          "time": 156.76591466249954,
          "velocity": 0.3228346456692913,
          "duration": 1.6401769312499823
        },
        {
          "name": "D#5",
          "midi": 75,
          "time": 156.76591466249954,
          "velocity": 0.4251968503937008,
          "duration": 1.7562482437499796
        },
        {
          "name": "C#4",
          "midi": 61,
          "time": 156.76948608749953,
          "velocity": 0.31496062992125984,
          "duration": 0.5999994000000015
        },
        {
          "name": "D#4",
          "midi": 63,
          "time": 157.0534143749995,
          "velocity": 0.33070866141732286,
          "duration": 0.2241069187500102
        },
        {
          "name": "F#4",
          "midi": 66,
          "time": 157.20609279374952,
          "velocity": 0.3228346456692913,
          "duration": 0.09999990000000025
        },
        {
          "name": "A#4",
          "midi": 70,
          "time": 157.34180694374953,
          "velocity": 0.33070866141732286,
          "duration": 0.10357132499999011
        },
        {
          "name": "G#3",
          "midi": 56,
          "time": 157.47394966874953,
          "velocity": 0.44881889763779526,
          "duration": 0.2401783312500072
        },
        {
          "name": "F#4",
          "midi": 66,
          "time": 157.48555679999953,
          "velocity": 0.3464566929133858,
          "duration": 0.07232135625000069
        },
        {
          "name": "D#4",
          "midi": 63,
          "time": 157.60609239374952,
          "velocity": 0.3858267716535433,
          "duration": 0.12767844374999981
        },
        {
          "name": "A#3",
          "midi": 58,
          "time": 157.74537796874952,
          "velocity": 0.47244094488188976,
          "duration": 0.6285707999999772
        },
        {
          "name": "D#4",
          "midi": 63,
          "time": 157.88555639999953,
          "velocity": 0.4015748031496063,
          "duration": 0.1437498562499968
        },
        {
          "name": "F#4",
          "midi": 66,
          "time": 158.02573483124954,
          "velocity": 0.33070866141732286,
          "duration": 0.14017843124997853
        },
        {
          "name": "A#4",
          "midi": 70,
          "time": 158.1694846874995,
          "velocity": 0.30708661417322836,
          "duration": 0.1758926812499908
        },
        {
          "name": "F#4",
          "midi": 66,
          "time": 158.3141273999995,
          "velocity": 0.31496062992125984,
          "duration": 0.1714284000000248
        },
        {
          "name": "C#4",
          "midi": 61,
          "time": 158.3293059562495,
          "velocity": 0.31496062992125984,
          "duration": 0.22053549375002035
        },
        {
          "name": "D#4",
          "midi": 63,
          "time": 158.49002008124953,
          "velocity": 0.3228346456692913,
          "duration": 0.03928567500000213
        },
        {
          "name": "C4",
          "midi": 60,
          "time": 158.69359130624952,
          "velocity": 0.36220472440944884,
          "duration": 1.0517846625000118
        },
        {
          "name": "F#5",
          "midi": 78,
          "time": 158.69359130624952,
          "velocity": 0.44881889763779526,
          "duration": 0.6598207687500235
        },
        {
          "name": "D#4",
          "midi": 63,
          "time": 158.84984114999952,
          "velocity": 0.2992125984251969,
          "duration": 0.8723205562500027
        },
        {
          "name": "F#4",
          "midi": 66,
          "time": 159.00162671249953,
          "velocity": 0.2992125984251969,
          "duration": 0.7321421249999958
        },
        {
          "name": "A#4",
          "midi": 70,
          "time": 159.15787655624953,
          "velocity": 0.2047244094488189,
          "duration": 0.5678565749999791
        },
        {
          "name": "A#5",
          "midi": 82,
          "time": 159.35341207499954,
          "velocity": 0.29133858267716534,
          "duration": 0.3919638937499883
        },
        {
          "name": "C5",
          "midi": 72,
          "time": 159.36144778124955,
          "velocity": 0.2440944881889764,
          "duration": 0.26785687499997834
        },
        {
          "name": "D#5",
          "midi": 75,
          "time": 159.59805468749954,
          "velocity": 0.2440944881889764,
          "duration": 0.1437498562499968
        },
        {
          "name": "F#4",
          "midi": 66,
          "time": 159.88198297499952,
          "velocity": 0.33858267716535434,
          "duration": 0.8080349062500147
        },
        {
          "name": "D#6",
          "midi": 87,
          "time": 159.9293043562495,
          "velocity": 0.4881889763779528,
          "duration": 3.440175131249987
        },
        {
          "name": "A#4",
          "midi": 70,
          "time": 160.3418039437495,
          "velocity": 0.3700787401574803,
          "duration": 0.31964253750001603
        },
        {
          "name": "C#5",
          "midi": 73,
          "time": 160.52573233124951,
          "velocity": 0.3779527559055118,
          "duration": 0.3116068312500033
        },
        {
          "name": "D#5",
          "midi": 75,
          "time": 160.67394646874953,
          "velocity": 0.4409448818897638,
          "duration": 0.20357122499999036
        },
        {
          "name": "F#5",
          "midi": 78,
          "time": 160.83733916249952,
          "velocity": 0.3858267716535433,
          "duration": 0.12410701875000996
        },
        {
          "name": "A#5",
          "midi": 82,
          "time": 160.94983904999953,
          "velocity": 0.4015748031496063,
          "duration": 0.12410701875000996
        },
        {
          "name": "F#4",
          "midi": 66,
          "time": 161.08198177499955,
          "velocity": 0.4015748031496063,
          "duration": 0.32410681875001046
        },
        {
          "name": "A#4",
          "midi": 70,
          "time": 161.22216020624955,
          "velocity": 0.36220472440944884,
          "duration": 0.24732118125001534
        },
        {
          "name": "C#5",
          "midi": 73,
          "time": 161.35787435624957,
          "velocity": 0.3543307086614173,
          "duration": 0.25982116874999406
        },
        {
          "name": "D#5",
          "midi": 75,
          "time": 161.50162421249956,
          "velocity": 0.30708661417322836,
          "duration": 0.3437496562499689
        },
        {
          "name": "F#5",
          "midi": 78,
          "time": 161.63733836249955,
          "velocity": 0.3543307086614173,
          "duration": 0.15267841874998567
        },
        {
          "name": "C6",
          "midi": 84,
          "time": 161.76948108749954,
          "velocity": 0.3858267716535433,
          "duration": 0.47589238124996314
        },
        {
          "name": "F#4",
          "midi": 66,
          "time": 161.93733806249952,
          "velocity": 0.3228346456692913,
          "duration": 0.34464251249997346
        },
        {
          "name": "A#4",
          "midi": 70,
          "time": 162.1016236124995,
          "velocity": 0.23622047244094488,
          "duration": 0.25982116874999406
        },
        {
          "name": "C#5",
          "midi": 73,
          "time": 162.2337663374995,
          "velocity": 0.30708661417322836,
          "duration": 0.29999970000000076
        },
        {
          "name": "D#5",
          "midi": 75,
          "time": 162.3775161937495,
          "velocity": 0.3543307086614173,
          "duration": 0.42053529374999243
        },
        {
          "name": "F#5",
          "midi": 78,
          "time": 162.5578731562495,
          "velocity": 0.2755905511811024,
          "duration": 0.2080355062499848
        },
        {
          "name": "A#5",
          "midi": 82,
          "time": 162.7453729687495,
          "velocity": 0.28346456692913385,
          "duration": 0.18035696249998523
        },
        {
          "name": "F#4",
          "midi": 66,
          "time": 162.89001568124948,
          "velocity": 0.33858267716535434,
          "duration": 0.6080351062500142
        },
        {
          "name": "A4",
          "midi": 69,
          "time": 163.0578726562495,
          "velocity": 0.30708661417322836,
          "duration": 0.4517852625000103
        },
        {
          "name": "C#5",
          "midi": 73,
          "time": 163.2257296312495,
          "velocity": 0.30708661417322836,
          "duration": 0.4357138500000133
        },
        {
          "name": "D#5",
          "midi": 75,
          "time": 163.4141222999995,
          "velocity": 0.31496062992125984,
          "duration": 0.3794639062500096
        },
        {
          "name": "F#5",
          "midi": 78,
          "time": 163.6221578062495,
          "velocity": 0.3464566929133858,
          "duration": 0.29196399374998805
        },
        {
          "name": "A5",
          "midi": 81,
          "time": 163.8373361624995,
          "velocity": 0.2677165354330709,
          "duration": 0.2482140374999915
        },
        {
          "name": "F#4",
          "midi": 66,
          "time": 164.04537166874948,
          "velocity": 0.3228346456692913,
          "duration": 1.136606006250048
        },
        {
          "name": "C#6",
          "midi": 85,
          "time": 164.0578716562495,
          "velocity": 0.3779527559055118,
          "duration": 1.1714274000000273
        },
        {
          "name": "A4",
          "midi": 69,
          "time": 164.3060856937495,
          "velocity": 0.33858267716535434,
          "duration": 0.8517848625000113
        },
        {
          "name": "C#5",
          "midi": 73,
          "time": 164.5060854937495,
          "velocity": 0.28346456692913385,
          "duration": 0.7714277999999979
        },
        {
          "name": "D#5",
          "midi": 75,
          "time": 164.7453709687495,
          "velocity": 0.2677165354330709,
          "duration": 0.9687490312500131
        },
        {
          "name": "F#5",
          "midi": 78,
          "time": 165.0060849937495,
          "velocity": 0.25196850393700787,
          "duration": 0.7160707125000272
        },
        {
          "name": "B5",
          "midi": 83,
          "time": 165.29001328124951,
          "velocity": 0.30708661417322836,
          "duration": 0.3794639062500096
        },
        {
          "name": "F#4",
          "midi": 66,
          "time": 165.57394156874952,
          "velocity": 0.25984251968503935,
          "duration": 1.8035696249999944
        },
        {
          "name": "D#6",
          "midi": 87,
          "time": 165.6060843937495,
          "velocity": 0.33070866141732286,
          "duration": 1.4794628062500124
        },
        {
          "name": "A4",
          "midi": 69,
          "time": 165.93376263749954,
          "velocity": 0.1732283464566929,
          "duration": 1.4276771437499747
        },
        {
          "name": "C#5",
          "midi": 73,
          "time": 166.25340517499953,
          "velocity": 0.1968503937007874,
          "duration": 1.1919630937499903
        },
        {
          "name": "D#5",
          "midi": 75,
          "time": 166.55340487499953,
          "velocity": 0.2677165354330709,
          "duration": 0.4526781187499864
        },
        {
          "name": "F#5",
          "midi": 78,
          "time": 166.90608309374952,
          "velocity": 0.28346456692913385,
          "duration": 0.5598208687499948
        },
        {
          "name": "A5",
          "midi": 81,
          "time": 167.5980466874995,
          "velocity": 0.1889763779527559,
          "duration": 0.5160709124999983
        },
        {
          "name": "F4",
          "midi": 65,
          "time": 168.57750999374952,
          "velocity": 0.3779527559055118,
          "duration": 0.47589238124999156
        },
        {
          "name": "G#4",
          "midi": 68,
          "time": 168.9534024749995,
          "velocity": 0.3543307086614173,
          "duration": 0.1999998000000005
        },
        {
          "name": "C5",
          "midi": 72,
          "time": 169.1453665687495,
          "velocity": 0.3858267716535433,
          "duration": 0.0964284750000104
        },
        {
          "name": "F5",
          "midi": 77,
          "time": 169.3016164124995,
          "velocity": 0.29133858267716534,
          "duration": 0.09999990000000025
        },
        {
          "name": "G#5",
          "midi": 80,
          "time": 169.4659019624995,
          "velocity": 0.36220472440944884,
          "duration": 0.6678564750000078
        },
        {
          "name": "C6",
          "midi": 84,
          "time": 169.63733036249948,
          "velocity": 0.3779527559055118,
          "duration": 0.5526780187500151
        },
        {
          "name": "G#6",
          "midi": 92,
          "time": 169.9453657687495,
          "velocity": 0.3937007874015748,
          "duration": 0.98839186875
        },
        {
          "name": "F6",
          "midi": 89,
          "time": 169.9739371687495,
          "velocity": 0.2440944881889764,
          "duration": 0.8874991124999951
        },
        {
          "name": "F6",
          "midi": 89,
          "time": 171.42572143124949,
          "velocity": 0.33070866141732286,
          "duration": 0.7999991999999736
        },
        {
          "name": "F4",
          "midi": 65,
          "time": 171.42929285624948,
          "velocity": 0.25196850393700787,
          "duration": 0.4526781187499864
        },
        {
          "name": "F4",
          "midi": 65,
          "time": 172.58554169999945,
          "velocity": 0.4015748031496063,
          "duration": 0.3437496562499973
        },
        {
          "name": "A4",
          "midi": 69,
          "time": 172.85786285624945,
          "velocity": 0.25984251968503935,
          "duration": 0.15624984375000395
        },
        {
          "name": "C5",
          "midi": 72,
          "time": 173.01411269999946,
          "velocity": 0.3700787401574803,
          "duration": 0.16785697500000651
        },
        {
          "name": "C6",
          "midi": 84,
          "time": 173.02929125624945,
          "velocity": 0.30708661417322836,
          "duration": 0.22053549375002035
        },
        {
          "name": "D#6",
          "midi": 87,
          "time": 173.02929125624945,
          "velocity": 0.33070866141732286,
          "duration": 0.22857120000003306
        },
        {
          "name": "D#5",
          "midi": 75,
          "time": 173.18196967499946,
          "velocity": 0.3779527559055118,
          "duration": 0.21607121250002592
        },
        {
          "name": "F6",
          "midi": 89,
          "time": 173.32929095624948,
          "velocity": 0.3858267716535433,
          "duration": 0.3205353937499922
        },
        {
          "name": "C#6",
          "midi": 85,
          "time": 173.3373266624995,
          "velocity": 0.25196850393700787,
          "duration": 0.2241069187499818
        },
        {
          "name": "F5",
          "midi": 77,
          "time": 173.3614337812495,
          "velocity": 0.3228346456692913,
          "duration": 0.6401779312499514
        },
        {
          "name": "A5",
          "midi": 81,
          "time": 173.52929075624948,
          "velocity": 0.1968503937007874,
          "duration": 0.5803565624999862
        },
        {
          "name": "C6",
          "midi": 84,
          "time": 173.72214770624947,
          "velocity": 0.25984251968503935,
          "duration": 1.4553556875000027
        },
        {
          "name": "D#6",
          "midi": 87,
          "time": 173.72571913124946,
          "velocity": 0.30708661417322836,
          "duration": 1.6437483562500006
        },
        {
          "name": "F4",
          "midi": 65,
          "time": 174.93375363749948,
          "velocity": 0.33070866141732286,
          "duration": 0.21160693125000307
        },
        {
          "name": "F4",
          "midi": 65,
          "time": 176.13375243749948,
          "velocity": 0.3779527559055118,
          "duration": 0.25178546249998135
        },
        {
          "name": "G#4",
          "midi": 68,
          "time": 176.39000218124946,
          "velocity": 0.3228346456692913,
          "duration": 0.20357122500001879
        },
        {
          "name": "C#6",
          "midi": 85,
          "time": 176.55785915624946,
          "velocity": 0.4094488188976378,
          "duration": 0.21964263750001578
        },
        {
          "name": "A#4",
          "midi": 70,
          "time": 176.56589486249948,
          "velocity": 0.3700787401574803,
          "duration": 0.056249943750003695
        },
        {
          "name": "A#5",
          "midi": 82,
          "time": 176.56589486249948,
          "velocity": 0.30708661417322836,
          "duration": 0.25178546250000977
        },
        {
          "name": "C#5",
          "midi": 73,
          "time": 176.70964471874947,
          "velocity": 0.3858267716535433,
          "duration": 0.10803560625001296
        },
        {
          "name": "D#6",
          "midi": 87,
          "time": 176.8694659874995,
          "velocity": 0.4409448818897638,
          "duration": 0.2642854500000169
        },
        {
          "name": "C6",
          "midi": 84,
          "time": 176.8900016812495,
          "velocity": 0.33070866141732286,
          "duration": 0.20357122500001879
        },
        {
          "name": "F5",
          "midi": 77,
          "time": 176.9016088124995,
          "velocity": 0.29133858267716534,
          "duration": 0.7883920687499995
        },
        {
          "name": "G#5",
          "midi": 80,
          "time": 177.0694657874995,
          "velocity": 0.3858267716535433,
          "duration": 0.572320856250002
        },
        {
          "name": "A#5",
          "midi": 82,
          "time": 177.3060726937495,
          "velocity": 0.3543307086614173,
          "duration": 0.2633925937499839
        },
        {
          "name": "C#6",
          "midi": 85,
          "time": 177.3096441187495,
          "velocity": 0.41732283464566927,
          "duration": 0.3839281874999756
        },
        {
          "name": "C#6",
          "midi": 85,
          "time": 177.96142918124949,
          "velocity": 0.4015748031496063,
          "duration": 0.5839279875000329
        },
        {
          "name": "F6",
          "midi": 89,
          "time": 177.9694648874995,
          "velocity": 0.4015748031496063,
          "duration": 0.524106618750011
        },
        {
          "name": "F4",
          "midi": 65,
          "time": 178.6774998937495,
          "velocity": 0.33858267716535434,
          "duration": 0.480356662499986
        },
        {
          "name": "C#6",
          "midi": 85,
          "time": 179.6614274812495,
          "velocity": 0.30708661417322836,
          "duration": 0.8080349062500147
        },
        {
          "name": "A#5",
          "midi": 82,
          "time": 179.7221417062495,
          "velocity": 0.18110236220472442,
          "duration": 0.7955349187500076
        },
        {
          "name": "D#4",
          "midi": 63,
          "time": 180.19356980624949,
          "velocity": 0.3858267716535433,
          "duration": 0.3044639812500236
        },
        {
          "name": "F#4",
          "midi": 66,
          "time": 180.4337481374995,
          "velocity": 0.3779527559055118,
          "duration": 0.18035696250001365
        },
        {
          "name": "G#4",
          "midi": 68,
          "time": 180.5980336874995,
          "velocity": 0.4251968503937008,
          "duration": 0.11607131249999725
        },
        {
          "name": "C6",
          "midi": 84,
          "time": 180.6453550687495,
          "velocity": 0.3779527559055118,
          "duration": 0.26071402500002705
        },
        {
          "name": "G#5",
          "midi": 80,
          "time": 180.6578550562495,
          "velocity": 0.2677165354330709,
          "duration": 0.23571405000001278
        },
        {
          "name": "C5",
          "midi": 72,
          "time": 180.77749779374952,
          "velocity": 0.3464566929133858,
          "duration": 0.14821413749999124
        },
        {
          "name": "D#5",
          "midi": 75,
          "time": 180.93374763749952,
          "velocity": 0.3858267716535433,
          "duration": 0.24374975624999706
        },
        {
          "name": "C#6",
          "midi": 85,
          "time": 180.96589046249952,
          "velocity": 0.3779527559055118,
          "duration": 0.2241069187500102
        },
        {
          "name": "A#5",
          "midi": 82,
          "time": 180.97749759374952,
          "velocity": 0.2204724409448819,
          "duration": 0.2883925687499982
        },
        {
          "name": "F#5",
          "midi": 78,
          "time": 181.1257117312495,
          "velocity": 0.30708661417322836,
          "duration": 0.30803540625001347
        },
        {
          "name": "C6",
          "midi": 84,
          "time": 181.3417829437495,
          "velocity": 0.3779527559055118,
          "duration": 1.0401775312500092
        },
        {
          "name": "G#5",
          "midi": 80,
          "time": 181.34981864999952,
          "velocity": 0.25196850393700787,
          "duration": 1.1196417374999896
        },
        {
          "name": "D#4",
          "midi": 63,
          "time": 182.31767482499953,
          "velocity": 0.3700787401574803,
          "duration": 0.44374955624996915
        },
        {
          "name": "C#4",
          "midi": 61,
          "time": 183.3498166499995,
          "velocity": 0.4251968503937008,
          "duration": 0.31607111249999775
        },
        {
          "name": "D#4",
          "midi": 63,
          "time": 183.6221378062495,
          "velocity": 0.3464566929133858,
          "duration": 0.1999998000000005
        },
        {
          "name": "A#5",
          "midi": 82,
          "time": 183.7819590749995,
          "velocity": 0.4251968503937008,
          "duration": 0.29196399374998805
        },
        {
          "name": "F#4",
          "midi": 66,
          "time": 183.7899947812495,
          "velocity": 0.4015748031496063,
          "duration": 0.12410701874998153
        },
        {
          "name": "F#5",
          "midi": 78,
          "time": 183.7899947812495,
          "velocity": 0.3700787401574803,
          "duration": 0.2392854749999742
        },
        {
          "name": "A#4",
          "midi": 70,
          "time": 183.96142318124947,
          "velocity": 0.3858267716535433,
          "duration": 0.15624984375000395
        },
        {
          "name": "G#5",
          "midi": 80,
          "time": 184.08999448124948,
          "velocity": 0.4409448818897638,
          "duration": 0.29999970000000076
        },
        {
          "name": "C6",
          "midi": 84,
          "time": 184.09356590624947,
          "velocity": 0.44881889763779526,
          "duration": 0.3205353937500206
        },
        {
          "name": "C#5",
          "midi": 73,
          "time": 184.13374443749947,
          "velocity": 0.4015748031496063,
          "duration": 0.24374975624999706
        },
        {
          "name": "D#5",
          "midi": 75,
          "time": 184.30160141249948,
          "velocity": 0.41732283464566927,
          "duration": 0.23214262500002292
        },
        {
          "name": "F#5",
          "midi": 78,
          "time": 184.4658869624995,
          "velocity": 0.44881889763779526,
          "duration": 1.011606131250005
        },
        {
          "name": "A#5",
          "midi": 82,
          "time": 184.4774940937495,
          "velocity": 0.44881889763779526,
          "duration": 0.42857100000000514
        },
        {
          "name": "D#6",
          "midi": 87,
          "time": 184.9337436374995,
          "velocity": 0.5354330708661418,
          "duration": 0.37232105625000145
        },
        {
          "name": "A#5",
          "midi": 82,
          "time": 185.3292789562495,
          "velocity": 0.44881889763779526,
          "duration": 0.5482137375000207
        },
        {
          "name": "C4",
          "midi": 60,
          "time": 185.5498144499995,
          "velocity": 0.30708661417322836,
          "duration": 0.13571415000001252
        },
        {
          "name": "D#4",
          "midi": 63,
          "time": 185.6292786562495,
          "velocity": 0.3700787401574803,
          "duration": 0.17232125625002936
        },
        {
          "name": "F4",
          "midi": 65,
          "time": 185.74177854374952,
          "velocity": 0.2992125984251969,
          "duration": 0.08749991250002154
        },
        {
          "name": "G#4",
          "midi": 68,
          "time": 185.83374273749953,
          "velocity": 0.33070866141732286,
          "duration": 0.10803560624998454
        },
        {
          "name": "G#5",
          "midi": 80,
          "time": 185.93731406249952,
          "velocity": 0.3779527559055118,
          "duration": 0.5285709000000054
        },
        {
          "name": "F5",
          "midi": 77,
          "time": 185.94981404999953,
          "velocity": 0.28346456692913385,
          "duration": 0.6642850500000179
        },
        {
          "name": "C5",
          "midi": 72,
          "time": 186.00606399374954,
          "velocity": 0.36220472440944884,
          "duration": 0.5553565875000004
        },
        {
          "name": "A#5",
          "midi": 82,
          "time": 186.48195637499953,
          "velocity": 0.33858267716535434,
          "duration": 0.491963793750017
        },
        {
          "name": "G#5",
          "midi": 80,
          "time": 186.94534876874954,
          "velocity": 0.3937007874015748,
          "duration": 0.8044634812500249
        },
        {
          "name": "C3",
          "midi": 48,
          "time": 187.44534826874954,
          "velocity": 0.4094488188976378,
          "duration": 0.26071402500002705
        },
        {
          "name": "D#3",
          "midi": 51,
          "time": 187.68195517499956,
          "velocity": 0.3543307086614173,
          "duration": 0.2080355062499848
        },
        {
          "name": "F#3",
          "midi": 54,
          "time": 187.86945498749955,
          "velocity": 0.3228346456692913,
          "duration": 0.12410701874998153
        },
        {
          "name": "F#5",
          "midi": 78,
          "time": 187.88195497499956,
          "velocity": 0.3937007874015748,
          "duration": 0.2553568874999712
        },
        {
          "name": "D#5",
          "midi": 75,
          "time": 187.88552639999955,
          "velocity": 0.29133858267716534,
          "duration": 0.25982116874999406
        },
        {
          "name": "A#3",
          "midi": 58,
          "time": 188.03731196249953,
          "velocity": 0.3543307086614173,
          "duration": 0.10803560625001296
        },
        {
          "name": "C4",
          "midi": 60,
          "time": 188.22213320624954,
          "velocity": 0.3858267716535433,
          "duration": 0.1437498562499968
        },
        {
          "name": "G#5",
          "midi": 80,
          "time": 188.23731176249953,
          "velocity": 0.33858267716535434,
          "duration": 0.3999995999999726
        },
        {
          "name": "F5",
          "midi": 77,
          "time": 188.24981174999954,
          "velocity": 0.3228346456692913,
          "duration": 0.3839281874999756
        },
        {
          "name": "D#4",
          "midi": 63,
          "time": 188.41409729999953,
          "velocity": 0.36220472440944884,
          "duration": 0.36339249374998417
        },
        {
          "name": "F#5",
          "midi": 78,
          "time": 188.6855255999995,
          "velocity": 0.33070866141732286,
          "duration": 0.3124996875000363
        },
        {
          "name": "D#5",
          "midi": 75,
          "time": 188.6935613062495,
          "velocity": 0.25984251968503935,
          "duration": 0.23571405000001278
        },
        {
          "name": "F#4",
          "midi": 66,
          "time": 188.7096327187495,
          "velocity": 0.3543307086614173,
          "duration": 0.17589268125001922
        },
        {
          "name": "A4",
          "midi": 69,
          "time": 189.52213190624954,
          "velocity": 0.2755905511811024,
          "duration": 1.275891581250022
        },
        {
          "name": "F5",
          "midi": 77,
          "time": 189.52927475624955,
          "velocity": 0.3228346456692913,
          "duration": 1.5044627812500266
        },
        {
          "name": "D#4",
          "midi": 63,
          "time": 189.53731046249956,
          "velocity": 0.1889763779527559,
          "duration": 1.3999986000000035
        },
        {
          "name": "C4",
          "midi": 60,
          "time": 189.55338187499956,
          "velocity": 0.25984251968503935,
          "duration": 1.2526773187500169
        },
        {
          "name": "F3",
          "midi": 53,
          "time": 189.62213180624957,
          "velocity": 0.1732283464566929,
          "duration": 1.199998800000003
        },
        {
          "name": "G#3",
          "midi": 56,
          "time": 191.5096299187496,
          "velocity": 0.3700787401574803,
          "duration": 0.38839246875002686
        },
        {
          "name": "A#3",
          "midi": 58,
          "time": 191.78552249999962,
          "velocity": 0.3779527559055118,
          "duration": 0.2321426249999945
        },
        {
          "name": "C#4",
          "midi": 61,
          "time": 191.96945088749962,
          "velocity": 0.3937007874015748,
          "duration": 0.12410701874998153
        },
        {
          "name": "C#5",
          "midi": 73,
          "time": 191.9739151687496,
          "velocity": 0.33858267716535434,
          "duration": 0.2714282999999966
        },
        {
          "name": "F5",
          "midi": 77,
          "time": 191.9739151687496,
          "velocity": 0.4015748031496063,
          "duration": 0.25982116874999406
        },
        {
          "name": "F4",
          "midi": 65,
          "time": 192.1337364374996,
          "velocity": 0.3543307086614173,
          "duration": 0.13571415000001252
        },
        {
          "name": "G#4",
          "midi": 68,
          "time": 192.28552199999962,
          "velocity": 0.3700787401574803,
          "duration": 0.35624964375000445
        },
        {
          "name": "F#5",
          "midi": 78,
          "time": 192.28552199999962,
          "velocity": 0.4015748031496063,
          "duration": 0.3205353937499922
        },
        {
          "name": "D#5",
          "midi": 75,
          "time": 192.29802198749962,
          "velocity": 0.3464566929133858,
          "duration": 0.3357139499999846
        },
        {
          "name": "A#4",
          "midi": 70,
          "time": 192.47391466874961,
          "velocity": 0.36220472440944884,
          "duration": 0.5160709124999983
        },
        {
          "name": "F5",
          "midi": 77,
          "time": 192.6614144812496,
          "velocity": 0.44881889763779526,
          "duration": 0.508035206250014
        },
        {
          "name": "C#5",
          "midi": 73,
          "time": 192.66945018749962,
          "velocity": 0.3700787401574803,
          "duration": 1.044641812500032
        },
        {
          "name": "A#5",
          "midi": 82,
          "time": 193.18194967499963,
          "velocity": 0.4251968503937008,
          "duration": 0.4035710250000193
        },
        {
          "name": "F5",
          "midi": 77,
          "time": 193.54980644999964,
          "velocity": 0.4330708661417323,
          "duration": 0.3116068312500033
        },
        {
          "name": "F#3",
          "midi": 54,
          "time": 193.77391336874965,
          "velocity": 0.2440944881889764,
          "duration": 1.0482132374999935
        },
        {
          "name": "A#3",
          "midi": 58,
          "time": 193.86587756249963,
          "velocity": 0.2047244094488189,
          "duration": 0.924106218750012
        },
        {
          "name": "C#4",
          "midi": 61,
          "time": 193.92927035624962,
          "velocity": 0.28346456692913385,
          "duration": 0.8241063187500401
        },
        {
          "name": "C#5",
          "midi": 73,
          "time": 193.98194887499963,
          "velocity": 0.30708661417322836,
          "duration": 1.1633916937499862
        },
        {
          "name": "D#4",
          "midi": 63,
          "time": 193.98998458124964,
          "velocity": 0.30708661417322836,
          "duration": 0.735713550000014
        },
        {
          "name": "D#5",
          "midi": 75,
          "time": 193.99355600624963,
          "velocity": 0.30708661417322836,
          "duration": 0.4642852500000174
        },
        {
          "name": "F5",
          "midi": 77,
          "time": 194.46944838749965,
          "velocity": 0.2677165354330709,
          "duration": 0.528570899999977
        },
        {
          "name": "D#5",
          "midi": 75,
          "time": 194.94980504999964,
          "velocity": 0.30708661417322836,
          "duration": 0.3276782437499719
        },
        {
          "name": "F3",
          "midi": 53,
          "time": 195.5980186874996,
          "velocity": 0.3700787401574803,
          "duration": 0.25178546250000977
        },
        {
          "name": "G#3",
          "midi": 56,
          "time": 195.8533755749996,
          "velocity": 0.3543307086614173,
          "duration": 0.2482140375000199
        },
        {
          "name": "A#3",
          "midi": 58,
          "time": 196.0774824937496,
          "velocity": 0.25196850393700787,
          "duration": 0.11607131249999725
        },
        {
          "name": "A#4",
          "midi": 70,
          "time": 196.0819467749996,
          "velocity": 0.2992125984251969,
          "duration": 0.26785687500000677
        },
        {
          "name": "C#5",
          "midi": 73,
          "time": 196.08998248124962,
          "velocity": 0.30708661417322836,
          "duration": 0.2633925937499839
        },
        {
          "name": "C#4",
          "midi": 61,
          "time": 196.23373233749962,
          "velocity": 0.33070866141732286,
          "duration": 0.12767844374999981
        },
        {
          "name": "D#5",
          "midi": 75,
          "time": 196.45783925624963,
          "velocity": 0.3228346456692913,
          "duration": 0.49553521875000683
        },
        {
          "name": "F4",
          "midi": 65,
          "time": 196.46141068124962,
          "velocity": 0.30708661417322836,
          "duration": 0.9241062187500404
        },
        {
          "name": "C5",
          "midi": 72,
          "time": 196.47391066874962,
          "velocity": 0.2677165354330709,
          "duration": 0.5035709250000195
        },
        {
          "name": "G#4",
          "midi": 68,
          "time": 196.70962471874964,
          "velocity": 0.28346456692913385,
          "duration": 0.4964280750000114
        },
        {
          "name": "A#4",
          "midi": 70,
          "time": 197.14980284999965,
          "velocity": 0.25196850393700787,
          "duration": 0.6276779437500011
        },
        {
          "name": "C#5",
          "midi": 73,
          "time": 197.14980284999965,
          "velocity": 0.3228346456692913,
          "duration": 0.8196420374999889
        },
        {
          "name": "D#3",
          "midi": 51,
          "time": 198.35337307499964,
          "velocity": 0.2677165354330709,
          "duration": 0.6562493437500052
        },
        {
          "name": "F#3",
          "midi": 54,
          "time": 198.35337307499964,
          "velocity": 0.28346456692913385,
          "duration": 0.5964279750000117
        },
        {
          "name": "C4",
          "midi": 60,
          "time": 198.35337307499964,
          "velocity": 0.29133858267716534,
          "duration": 0.416071012499998
        },
        {
          "name": "G#4",
          "midi": 68,
          "time": 198.35337307499964,
          "velocity": 0.2125984251968504,
          "duration": 1.7321411249999983
        },
        {
          "name": "C5",
          "midi": 72,
          "time": 198.35783735624963,
          "velocity": 0.3937007874015748,
          "duration": 1.7999982000000045
        },
        {
          "name": "G#2",
          "midi": 44,
          "time": 199.51408619999964,
          "velocity": 0.3543307086614173,
          "duration": 0.49999950000000126
        },
        {
          "name": "G#2",
          "midi": 44,
          "time": 200.68551359999964,
          "velocity": 0.4251968503937008,
          "duration": 0.5839279875000045
        },
        {
          "name": "C#2",
          "midi": 37,
          "time": 200.70158501249963,
          "velocity": 0.3858267716535433,
          "duration": 0.5482137375000207
        },
        {
          "name": "F3",
          "midi": 53,
          "time": 201.37390576874964,
          "velocity": 0.4330708661417323,
          "duration": 0.1999998000000005
        },
        {
          "name": "G#3",
          "midi": 56,
          "time": 201.38551289999964,
          "velocity": 0.4409448818897638,
          "duration": 0.1999998000000005
        },
        {
          "name": "G#4",
          "midi": 68,
          "time": 201.79354820624965,
          "velocity": 0.4094488188976378,
          "duration": 1.9642837499999644
        },
        {
          "name": "F4",
          "midi": 65,
          "time": 201.79801248749965,
          "velocity": 0.4094488188976378,
          "duration": 2.0196408374999635
        },
        {
          "name": "G#5",
          "midi": 80,
          "time": 202.19801208749965,
          "velocity": 0.44881889763779526,
          "duration": 1.047320381249989
        },
        {
          "name": "B3",
          "midi": 59,
          "time": 202.20604779374966,
          "velocity": 0.3858267716535433,
          "duration": 1.6160698124999442
        },
        {
          "name": "F5",
          "midi": 77,
          "time": 202.20961921874965,
          "velocity": 0.4015748031496063,
          "duration": 0.9482133374999933
        },
        {
          "name": "C#5",
          "midi": 73,
          "time": 203.60961781874963,
          "velocity": 0.30708661417322836,
          "duration": 0.7758920812499923
        },
        {
          "name": "F5",
          "midi": 77,
          "time": 203.60961781874963,
          "velocity": 0.30708661417322836,
          "duration": 1.1196417374999896
        },
        {
          "name": "C#3",
          "midi": 49,
          "time": 204.79354520624963,
          "velocity": 0.4015748031496063,
          "duration": 0.1999998000000005
        },
        {
          "name": "F#2",
          "midi": 42,
          "time": 204.80158091249965,
          "velocity": 0.36220472440944884,
          "duration": 0.18839266874999794
        },
        {
          "name": "C#4",
          "midi": 61,
          "time": 205.40158031249965,
          "velocity": 0.30708661417322836,
          "duration": 1.5883912687500015
        },
        {
          "name": "C#3",
          "midi": 49,
          "time": 205.40604459374964,
          "velocity": 0.25984251968503935,
          "duration": 1.7598196687500263
        },
        {
          "name": "A#3",
          "midi": 58,
          "time": 205.41408029999965,
          "velocity": 0.33070866141732286,
          "duration": 1.5633912937499872
        },
        {
          "name": "D#5",
          "midi": 75,
          "time": 205.41765172499964,
          "velocity": 0.41732283464566927,
          "duration": 0.47589238124999156
        },
        {
          "name": "F#4",
          "midi": 66,
          "time": 205.42211600624964,
          "velocity": 0.3779527559055118,
          "duration": 1.9874980125000263
        },
        {
          "name": "F#3",
          "midi": 54,
          "time": 205.43372313749964,
          "velocity": 0.25196850393700787,
          "duration": 1.5642841500000202
        },
        {
          "name": "A#4",
          "midi": 70,
          "time": 205.44533026874964,
          "velocity": 0.31496062992125984,
          "duration": 1.9607123250000313
        },
        {
          "name": "F5",
          "midi": 77,
          "time": 205.89800838749963,
          "velocity": 0.4015748031496063,
          "duration": 0.3312496687500186
        },
        {
          "name": "D#5",
          "midi": 75,
          "time": 206.22211520624964,
          "velocity": 0.4094488188976378,
          "duration": 1.1919630937500187
        },
        {
          "name": "G#2",
          "midi": 44,
          "time": 207.98193487499967,
          "velocity": 0.4251968503937008,
          "duration": 0.14017843124997853
        },
        {
          "name": "C#4",
          "midi": 61,
          "time": 208.40604159374965,
          "velocity": 0.4566929133858268,
          "duration": 0.10803560625001296
        },
        {
          "name": "C#5",
          "midi": 73,
          "time": 208.40961301874964,
          "velocity": 0.4251968503937008,
          "duration": 0.14017843125003537
        },
        {
          "name": "F3",
          "midi": 53,
          "time": 208.41764872499965,
          "velocity": 0.3937007874015748,
          "duration": 0.0964284750000104
        },
        {
          "name": "G#3",
          "midi": 56,
          "time": 208.41764872499965,
          "velocity": 0.3858267716535433,
          "duration": 0.14821413750001966
        },
        {
          "name": "G#4",
          "midi": 68,
          "time": 208.42568443124966,
          "velocity": 0.4094488188976378,
          "duration": 0.40357102499999087
        },
        {
          "name": "D#5",
          "midi": 75,
          "time": 208.76943408749966,
          "velocity": 0.49606299212598426,
          "duration": 0.10803560624998454
        },
        {
          "name": "D#4",
          "midi": 63,
          "time": 208.77389836874966,
          "velocity": 0.48031496062992124,
          "duration": 0.05982136874999355
        },
        {
          "name": "G#4",
          "midi": 68,
          "time": 209.21407649999963,
          "velocity": 0.3464566929133858,
          "duration": 0.751784962500011
        },
        {
          "name": "G#5",
          "midi": 80,
          "time": 209.22211220624965,
          "velocity": 0.48031496062992124,
          "duration": 0.6919635937499891
        },
        {
          "name": "B3",
          "midi": 59,
          "time": 209.22568363124964,
          "velocity": 0.3937007874015748,
          "duration": 1.8401767312500112
        },
        {
          "name": "C#4",
          "midi": 61,
          "time": 209.22568363124964,
          "velocity": 0.3700787401574803,
          "duration": 1.0839274875000058
        },
        {
          "name": "F5",
          "midi": 77,
          "time": 209.22568363124964,
          "velocity": 0.4094488188976378,
          "duration": 0.6357136499999854
        },
        {
          "name": "F4",
          "midi": 65,
          "time": 209.24175504374963,
          "velocity": 0.29133858267716534,
          "duration": 0.8437491562499986
        },
        {
          "name": "F4",
          "midi": 65,
          "time": 210.54175374374964,
          "velocity": 0.2755905511811024,
          "duration": 1.324105818750013
        },
        {
          "name": "C#5",
          "midi": 73,
          "time": 210.54175374374964,
          "velocity": 0.2677165354330709,
          "duration": 1.3196415375000186
        },
        {
          "name": "C#4",
          "midi": 61,
          "time": 210.54532516874963,
          "velocity": 0.2992125984251969,
          "duration": 0.4964280750000114
        },
        {
          "name": "F5",
          "midi": 77,
          "time": 210.54532516874963,
          "velocity": 0.3700787401574803,
          "duration": 1.1999988000000315
        },
        {
          "name": "A#2",
          "midi": 46,
          "time": 211.60157411249966,
          "velocity": 0.41732283464566927,
          "duration": 0.13214272499999424
        },
        {
          "name": "D#5",
          "midi": 75,
          "time": 212.12568073124964,
          "velocity": 0.4094488188976378,
          "duration": 0.41160673124997516
        },
        {
          "name": "D#4",
          "midi": 63,
          "time": 212.12925215624963,
          "velocity": 0.2755905511811024,
          "duration": 1.3526772187499603
        },
        {
          "name": "F4",
          "midi": 65,
          "time": 212.12925215624963,
          "velocity": 0.3464566929133858,
          "duration": 2.6366045062499666
        },
        {
          "name": "F3",
          "midi": 53,
          "time": 212.14175214374964,
          "velocity": 0.2992125984251969,
          "duration": 2.18749781249997
        },
        {
          "name": "A#3",
          "midi": 58,
          "time": 212.14175214374964,
          "velocity": 0.30708661417322836,
          "duration": 2.2919619937499647
        },
        {
          "name": "A#4",
          "midi": 70,
          "time": 212.14532356874963,
          "velocity": 0.30708661417322836,
          "duration": 2.144640712499978
        },
        {
          "name": "F5",
          "midi": 77,
          "time": 212.53728746249962,
          "velocity": 0.4015748031496063,
          "duration": 0.35267821874998617
        },
        {
          "name": "D#5",
          "midi": 75,
          "time": 212.9372870624996,
          "velocity": 0.3858267716535433,
          "duration": 1.0285704000000067
        },
        {
          "name": "C#5",
          "midi": 73,
          "time": 214.0096074187496,
          "velocity": 0.29133858267716534,
          "duration": 0.751784962500011
        },
        {
          "name": "C#4",
          "midi": 61,
          "time": 214.0337145374996,
          "velocity": 0.23622047244094488,
          "duration": 0.3116068312500033
        },
        {
          "name": "F2",
          "midi": 41,
          "time": 215.4337131374996,
          "velocity": 0.3858267716535433,
          "duration": 2.3196405374999927
        },
        {
          "name": "G#3",
          "midi": 56,
          "time": 215.7899627812496,
          "velocity": 0.3700787401574803,
          "duration": 0.3758924812499913
        },
        {
          "name": "C#4",
          "midi": 61,
          "time": 215.7935342062496,
          "velocity": 0.4094488188976378,
          "duration": 0.37232105625000145
        },
        {
          "name": "D#4",
          "midi": 63,
          "time": 216.1337124374996,
          "velocity": 0.44881889763779526,
          "duration": 0.08839276874999769
        },
        {
          "name": "A#4",
          "midi": 70,
          "time": 216.5372834624996,
          "velocity": 0.4251968503937008,
          "duration": 0.5321423250000237
        },
        {
          "name": "C#4",
          "midi": 61,
          "time": 216.5533548749996,
          "velocity": 0.30708661417322836,
          "duration": 0.5803565625000147
        },
        {
          "name": "F4",
          "midi": 65,
          "time": 216.5658548624996,
          "velocity": 0.30708661417322836,
          "duration": 0.27946400625000933
        },
        {
          "name": "F4",
          "midi": 65,
          "time": 217.5774609937496,
          "velocity": 0.2677165354330709,
          "duration": 0.5678565749999791
        },
        {
          "name": "G#3",
          "midi": 56,
          "time": 217.5935324062496,
          "velocity": 0.1968503937007874,
          "duration": 0.3758924812499913
        },
        {
          "name": "C#4",
          "midi": 61,
          "time": 217.5935324062496,
          "velocity": 0.23622047244094488,
          "duration": 0.5321423249999953
        },
        {
          "name": "D#2",
          "midi": 39,
          "time": 218.5694242874996,
          "velocity": 0.4645669291338583,
          "duration": 0.383928187500004
        },
        {
          "name": "A#3",
          "midi": 58,
          "time": 218.9578167562496,
          "velocity": 0.3779527559055118,
          "duration": 0.40357102499999087
        },
        {
          "name": "F#4",
          "midi": 66,
          "time": 218.9613881812496,
          "velocity": 0.4015748031496063,
          "duration": 0.399999600000001
        },
        {
          "name": "C#4",
          "midi": 61,
          "time": 218.9774595937496,
          "velocity": 0.31496062992125984,
          "duration": 0.40446388124999544
        },
        {
          "name": "G#4",
          "midi": 68,
          "time": 219.3176378249996,
          "velocity": 0.44881889763779526,
          "duration": 0.08839276874999769
        },
        {
          "name": "D#3",
          "midi": 51,
          "time": 219.79799448749958,
          "velocity": 0.3700787401574803,
          "duration": 0.4874995124999941
        },
        {
          "name": "F#4",
          "midi": 66,
          "time": 219.79799448749958,
          "velocity": 0.29133858267716534,
          "duration": 0.6357136499999854
        },
        {
          "name": "A#4",
          "midi": 70,
          "time": 219.79799448749958,
          "velocity": 0.29133858267716534,
          "duration": 0.6357136499999854
        },
        {
          "name": "C#5",
          "midi": 73,
          "time": 219.80156591249957,
          "velocity": 0.48031496062992124,
          "duration": 0.6321422249999955
        },
        {
          "name": "A#4",
          "midi": 70,
          "time": 220.93370763749957,
          "velocity": 0.4094488188976378,
          "duration": 0.7160707124999988
        },
        {
          "name": "C#4",
          "midi": 61,
          "time": 220.96138618124957,
          "velocity": 0.23622047244094488,
          "duration": 0.3205353937499922
        },
        {
          "name": "D#4",
          "midi": 63,
          "time": 220.96138618124957,
          "velocity": 0.23622047244094488,
          "duration": 0.3205353937499922
        },
        {
          "name": "F#4",
          "midi": 66,
          "time": 220.96585046249956,
          "velocity": 0.2992125984251969,
          "duration": 0.5955351187500071
        },
        {
          "name": "G#2",
          "midi": 44,
          "time": 222.04977794999957,
          "velocity": 0.4566929133858268,
          "duration": 0.5517851625000105
        },
        {
          "name": "A#4",
          "midi": 70,
          "time": 222.37388476874958,
          "velocity": 0.49606299212598426,
          "duration": 0.5482137374999922
        },
        {
          "name": "C4",
          "midi": 60,
          "time": 222.3819204749996,
          "velocity": 0.47244094488188976,
          "duration": 0.4553566874999717
        },
        {
          "name": "F#4",
          "midi": 66,
          "time": 222.3819204749996,
          "velocity": 0.47244094488188976,
          "duration": 0.5473208812499877
        },
        {
          "name": "D#3",
          "midi": 51,
          "time": 222.61763452499957,
          "velocity": 0.4409448818897638,
          "duration": 0.09999990000000025
        },
        {
          "name": "C5",
          "midi": 72,
          "time": 222.86584856249956,
          "velocity": 0.5196850393700787,
          "duration": 0.17946410625000908
        },
        {
          "name": "G#4",
          "midi": 68,
          "time": 223.57388356874958,
          "velocity": 0.3464566929133858,
          "duration": 0.70357072500002
        },
        {
          "name": "F5",
          "midi": 77,
          "time": 223.57388356874958,
          "velocity": 0.36220472440944884,
          "duration": 0.6714279000000261
        },
        {
          "name": "G#5",
          "midi": 80,
          "time": 223.58549069999958,
          "velocity": 0.41732283464566927,
          "duration": 0.3205353937500206
        },
        {
          "name": "C5",
          "midi": 72,
          "time": 223.5979906874996,
          "velocity": 0.3228346456692913,
          "duration": 0.6357136500000138
        },
        {
          "name": "G#3",
          "midi": 56,
          "time": 224.9819178749996,
          "velocity": 0.23622047244094488,
          "duration": 0.37946390624998116
        },
        {
          "name": "G#4",
          "midi": 68,
          "time": 224.9819178749996,
          "velocity": 0.25984251968503935,
          "duration": 0.7714277999999979
        },
        {
          "name": "F#4",
          "midi": 66,
          "time": 224.98548929999959,
          "velocity": 0.25196850393700787,
          "duration": 0.556249443750005
        },
        {
          "name": "C4",
          "midi": 60,
          "time": 224.98995358124958,
          "velocity": 0.2125984251968504,
          "duration": 0.5160709124999983
        },
        {
          "name": "C#2",
          "midi": 37,
          "time": 226.8372731624996,
          "velocity": 0.3543307086614173,
          "duration": 0.480356662499986
        },
        {
          "name": "G#2",
          "midi": 44,
          "time": 227.38191547499957,
          "velocity": 0.29133858267716534,
          "duration": 0.26785687500000677
        },
        {
          "name": "C#3",
          "midi": 49,
          "time": 227.6176295249996,
          "velocity": 0.29133858267716534,
          "duration": 0.34017823124997904
        },
        {
          "name": "F3",
          "midi": 53,
          "time": 227.81405789999957,
          "velocity": 0.14173228346456693,
          "duration": 0.27589258124999105
        },
        {
          "name": "G#3",
          "midi": 56,
          "time": 227.97745059374955,
          "velocity": 0.2992125984251969,
          "duration": 0.16785697500000651
        },
        {
          "name": "C#4",
          "midi": 61,
          "time": 228.12209330624955,
          "velocity": 0.3543307086614173,
          "duration": 0.10357132500001853
        },
        {
          "name": "F2",
          "midi": 41,
          "time": 228.27745029374958,
          "velocity": 0.25984251968503935,
          "duration": 0.2883925687499982
        },
        {
          "name": "C3",
          "midi": 48,
          "time": 228.41405729999957,
          "velocity": 0.29133858267716534,
          "duration": 0.28749971250002204
        },
        {
          "name": "F3",
          "midi": 53,
          "time": 228.5738785687496,
          "velocity": 0.3464566929133858,
          "duration": 0.13571415000001252
        },
        {
          "name": "G#3",
          "midi": 56,
          "time": 228.69352130624958,
          "velocity": 0.30708661417322836,
          "duration": 0.18839266875002636
        },
        {
          "name": "C4",
          "midi": 60,
          "time": 228.8533425749996,
          "velocity": 0.3779527559055118,
          "duration": 0.14017843125000695
        },
        {
          "name": "F4",
          "midi": 65,
          "time": 229.03369953749961,
          "velocity": 0.30708661417322836,
          "duration": 0.21964263750001578
        },
        {
          "name": "C#2",
          "midi": 37,
          "time": 229.11405659999963,
          "velocity": 0.3937007874015748,
          "duration": 0.15535698749999938
        },
        {
          "name": "G#2",
          "midi": 44,
          "time": 229.27387786874962,
          "velocity": 0.31496062992125984,
          "duration": 0.17589268125001922
        },
        {
          "name": "C#3",
          "midi": 49,
          "time": 229.39798488749963,
          "velocity": 0.4094488188976378,
          "duration": 0.23124976875001835
        },
        {
          "name": "F3",
          "midi": 53,
          "time": 229.53369903749964,
          "velocity": 0.3937007874015748,
          "duration": 0.2241069187499818
        },
        {
          "name": "G#3",
          "midi": 56,
          "time": 229.66584176249964,
          "velocity": 0.3543307086614173,
          "duration": 0.1839283874999751
        },
        {
          "name": "C#4",
          "midi": 61,
          "time": 229.80155591249962,
          "velocity": 0.4330708661417323,
          "duration": 0.12053559374999168
        },
        {
          "name": "F2",
          "midi": 41,
          "time": 229.95780575624963,
          "velocity": 0.4094488188976378,
          "duration": 0.22410691875003863
        },
        {
          "name": "C3",
          "midi": 48,
          "time": 230.09351990624964,
          "velocity": 0.4015748031496063,
          "duration": 0.18839266875002636
        },
        {
          "name": "F3",
          "midi": 53,
          "time": 230.24173404374966,
          "velocity": 0.3700787401574803,
          "duration": 0.1999998000000005
        },
        {
          "name": "G#3",
          "midi": 56,
          "time": 230.35780535624966,
          "velocity": 0.3858267716535433,
          "duration": 0.1678569749999781
        },
        {
          "name": "C4",
          "midi": 60,
          "time": 230.50601949374965,
          "velocity": 0.3937007874015748,
          "duration": 0.1437498562499968
        },
        {
          "name": "F4",
          "midi": 65,
          "time": 230.65334077499963,
          "velocity": 0.41732283464566927,
          "duration": 0.08392848750000326
        },
        {
          "name": "G#2",
          "midi": 44,
          "time": 230.84976914999964,
          "velocity": 0.3858267716535433,
          "duration": 1.9794623062499852
        },
        {
          "name": "B4",
          "midi": 71,
          "time": 230.91762622499965,
          "velocity": 0.44881889763779526,
          "duration": 0.556249443750005
        },
        {
          "name": "G#4",
          "midi": 68,
          "time": 230.92566193124966,
          "velocity": 0.4015748031496063,
          "duration": 0.44374955624999757
        },
        {
          "name": "E3",
          "midi": 52,
          "time": 231.08548319999966,
          "velocity": 0.4330708661417323,
          "duration": 1.6758911812499662
        },
        {
          "name": "G#3",
          "midi": 56,
          "time": 231.23369733749965,
          "velocity": 0.4015748031496063,
          "duration": 1.5678555749999816
        },
        {
          "name": "B3",
          "midi": 59,
          "time": 231.40601859374965,
          "velocity": 0.3779527559055118,
          "duration": 0.2080355062499848
        },
        {
          "name": "E4",
          "midi": 64,
          "time": 231.59351840624964,
          "velocity": 0.3779527559055118,
          "duration": 1.328570099999979
        },
        {
          "name": "F#4",
          "midi": 66,
          "time": 231.76941108749963,
          "velocity": 0.3700787401574803,
          "duration": 1.1642845499999908
        },
        {
          "name": "E4",
          "midi": 64,
          "time": 232.12923215624963,
          "velocity": 0.2440944881889764,
          "duration": 0.7928563499999939
        },
        {
          "name": "G#4",
          "midi": 68,
          "time": 232.12923215624963,
          "velocity": 0.30708661417322836,
          "duration": 0.7928563499999939
        },
        {
          "name": "C#5",
          "midi": 73,
          "time": 232.12923215624963,
          "velocity": 0.3779527559055118,
          "duration": 0.7928563499999939
        },
        {
          "name": "C#3",
          "midi": 49,
          "time": 233.58994498124963,
          "velocity": 0.3464566929133858,
          "duration": 0.26785687500000677
        },
        {
          "name": "G#3",
          "midi": 56,
          "time": 233.85333757499964,
          "velocity": 0.33858267716535434,
          "duration": 0.16071412499999838
        },
        {
          "name": "C#4",
          "midi": 61,
          "time": 234.01405169999964,
          "velocity": 0.3937007874015748,
          "duration": 0.29196399375001647
        },
        {
          "name": "F4",
          "midi": 65,
          "time": 234.16583726249965,
          "velocity": 0.33070866141732286,
          "duration": 0.2241069187500102
        },
        {
          "name": "G#4",
          "midi": 68,
          "time": 234.31405139999967,
          "velocity": 0.3779527559055118,
          "duration": 0.1839283874999751
        },
        {
          "name": "C#5",
          "midi": 73,
          "time": 234.46137268124966,
          "velocity": 0.3228346456692913,
          "duration": 0.11249988749997897
        },
        {
          "name": "F3",
          "midi": 53,
          "time": 234.59797968749965,
          "velocity": 0.36220472440944884,
          "duration": 0.19553551875000608
        },
        {
          "name": "C4",
          "midi": 60,
          "time": 234.72208670624966,
          "velocity": 0.3779527559055118,
          "duration": 0.2678568750000352
        },
        {
          "name": "F4",
          "midi": 65,
          "time": 234.87387226874966,
          "velocity": 0.3543307086614173,
          "duration": 0.11964273750001553
        },
        {
          "name": "G#4",
          "midi": 68,
          "time": 234.98190787499968,
          "velocity": 0.3700787401574803,
          "duration": 0.16785697500000651
        },
        {
          "name": "C5",
          "midi": 72,
          "time": 235.1336934374997,
          "velocity": 0.3700787401574803,
          "duration": 0.15178556250000952
        },
        {
          "name": "F5",
          "midi": 77,
          "time": 235.2854789999997,
          "velocity": 0.2992125984251969,
          "duration": 0.2723211562500012
        },
        {
          "name": "C#3",
          "midi": 49,
          "time": 235.3935146062497,
          "velocity": 0.4015748031496063,
          "duration": 0.1437498562499968
        },
        {
          "name": "G#3",
          "midi": 56,
          "time": 235.5256573312497,
          "velocity": 0.3700787401574803,
          "duration": 0.1517855624999811
        },
        {
          "name": "C#4",
          "midi": 61,
          "time": 235.64976434999969,
          "velocity": 0.3779527559055118,
          "duration": 0.2482140374999915
        },
        {
          "name": "F4",
          "midi": 65,
          "time": 235.76583566249968,
          "velocity": 0.4015748031496063,
          "duration": 0.21160693125000307
        },
        {
          "name": "G#4",
          "midi": 68,
          "time": 235.9336926374997,
          "velocity": 0.33070866141732286,
          "duration": 0.16428554999998823
        },
        {
          "name": "C#5",
          "midi": 73,
          "time": 236.0497639499997,
          "velocity": 0.3779527559055118,
          "duration": 0.12767844374999981
        },
        {
          "name": "F3",
          "midi": 53,
          "time": 236.21404949999967,
          "velocity": 0.31496062992125984,
          "duration": 0.2714282999999966
        },
        {
          "name": "C4",
          "midi": 60,
          "time": 236.34529936874966,
          "velocity": 0.3464566929133858,
          "duration": 0.2241069187500102
        },
        {
          "name": "F4",
          "midi": 65,
          "time": 236.50958491874968,
          "velocity": 0.3779527559055118,
          "duration": 0.21249978749997922
        },
        {
          "name": "G#4",
          "midi": 68,
          "time": 236.64529906874967,
          "velocity": 0.3779527559055118,
          "duration": 0.16428554999998823
        },
        {
          "name": "C5",
          "midi": 72,
          "time": 236.79351320624966,
          "velocity": 0.41732283464566927,
          "duration": 0.16428554999998823
        },
        {
          "name": "F5",
          "midi": 77,
          "time": 236.95779875624964,
          "velocity": 0.4015748031496063,
          "duration": 0.08749991249999312
        },
        {
          "name": "G#3",
          "midi": 56,
          "time": 237.19797708749962,
          "velocity": 0.3700787401574803,
          "duration": 1.875890981249995
        },
        {
          "name": "B5",
          "midi": 83,
          "time": 237.19797708749962,
          "velocity": 0.4015748031496063,
          "duration": 0.7714277999999979
        },
        {
          "name": "G#5",
          "midi": 80,
          "time": 237.20601279374964,
          "velocity": 0.3543307086614173,
          "duration": 0.7874992124999949
        },
        {
          "name": "B3",
          "midi": 59,
          "time": 237.41404829999962,
          "velocity": 0.2677165354330709,
          "duration": 1.583926987500007
        },
        {
          "name": "E4",
          "midi": 64,
          "time": 237.60958381874963,
          "velocity": 0.2283464566929134,
          "duration": 1.511605631249978
        },
        {
          "name": "G#4",
          "midi": 68,
          "time": 237.74976224999963,
          "velocity": 0.28346456692913385,
          "duration": 1.4598199687499687
        },
        {
          "name": "B4",
          "midi": 71,
          "time": 237.92119064999963,
          "velocity": 0.2677165354330709,
          "duration": 1.3642843499999628
        },
        {
          "name": "E5",
          "midi": 76,
          "time": 238.09797618749963,
          "velocity": 0.2440944881889764,
          "duration": 1.175891681249965
        },
        {
          "name": "C#6",
          "midi": 85,
          "time": 238.45333297499963,
          "velocity": 0.3464566929133858,
          "duration": 0.46071382499999913
        },
        {
          "name": "G#3",
          "midi": 56,
          "time": 239.6140460999996,
          "velocity": 0.3543307086614173,
          "duration": 1.4071414500000117
        },
        {
          "name": "G#5",
          "midi": 80,
          "time": 239.6211889499996,
          "velocity": 0.3228346456692913,
          "duration": 0.756249243749977
        },
        {
          "name": "B5",
          "midi": 83,
          "time": 239.6372603624996,
          "velocity": 0.2440944881889764,
          "duration": 0.5803565624999862
        },
        {
          "name": "B3",
          "midi": 59,
          "time": 239.85779585624962,
          "velocity": 0.3700787401574803,
          "duration": 1.0517846624999834
        },
        {
          "name": "E4",
          "midi": 64,
          "time": 240.0372599624996,
          "velocity": 0.3543307086614173,
          "duration": 0.86428484999999
        },
        {
          "name": "G#4",
          "midi": 68,
          "time": 240.2015455124996,
          "velocity": 0.33858267716535434,
          "duration": 0.6517850624999824
        },
        {
          "name": "B4",
          "midi": 71,
          "time": 240.3899381812496,
          "velocity": 0.2047244094488189,
          "duration": 0.27589258124999105
        },
        {
          "name": "E5",
          "midi": 76,
          "time": 240.53725946249958,
          "velocity": 0.2992125984251969,
          "duration": 0.3767853375000243
        },
        {
          "name": "C#6",
          "midi": 85,
          "time": 240.86583056249958,
          "velocity": 0.3858267716535433,
          "duration": 0.5794637062500385
        },
        {
          "name": "E6",
          "midi": 88,
          "time": 242.0979721874996,
          "velocity": 0.3937007874015748,
          "duration": 0.8196420375000173
        },
        {
          "name": "G#2",
          "midi": 44,
          "time": 242.1211864499996,
          "velocity": 0.2440944881889764,
          "duration": 0.940177631250009
        },
        {
          "name": "C#2",
          "midi": 37,
          "time": 243.5256493312496,
          "velocity": 0.33858267716535434,
          "duration": 0.459820968750023
        },
        {
          "name": "G#6",
          "midi": 92,
          "time": 243.5256493312496,
          "velocity": 0.4251968503937008,
          "duration": 2.616068812500032
        },
        {
          "name": "F6",
          "midi": 89,
          "time": 243.53368503749962,
          "velocity": 0.3858267716535433,
          "duration": 2.5758902812500253
        },
        {
          "name": "G#2",
          "midi": 44,
          "time": 243.98189887499964,
          "velocity": 0.4251968503937008,
          "duration": 0.29553541875000633
        },
        {
          "name": "C#3",
          "midi": 49,
          "time": 244.24172004374964,
          "velocity": 0.4094488188976378,
          "duration": 0.1999998000000005
        },
        {
          "name": "F3",
          "midi": 53,
          "time": 244.44529126874963,
          "velocity": 0.3937007874015748,
          "duration": 0.12857130000000438
        },
        {
          "name": "G#3",
          "midi": 56,
          "time": 244.64171964374964,
          "velocity": 0.44881889763779526,
          "duration": 0.14821413749999124
        },
        {
          "name": "C#4",
          "midi": 61,
          "time": 244.86939798749964,
          "velocity": 0.4330708661417323,
          "duration": 0.21249978750000764
        },
        {
          "name": "F4",
          "midi": 65,
          "time": 245.10957631874965,
          "velocity": 0.3700787401574803,
          "duration": 0.2321426249999945
        },
        {
          "name": "G#4",
          "midi": 68,
          "time": 245.43368313749963,
          "velocity": 0.3464566929133858,
          "duration": 0.4357138500000133
        },
        {
          "name": "C#5",
          "midi": 73,
          "time": 245.83368273749963,
          "velocity": 0.36220472440944884,
          "duration": 1.1517845625000405
        },
        {
          "name": "F5",
          "midi": 77,
          "time": 246.27743229374965,
          "velocity": 0.30708661417322836,
          "duration": 0.6241065187500112
        },
        {
          "name": "G#5",
          "midi": 80,
          "time": 246.79350320624965,
          "velocity": 0.30708661417322836,
          "duration": 0.7723206562500309
        },
        {
          "name": "C#6",
          "midi": 85,
          "time": 247.48189537499968,
          "velocity": 0.28346456692913385,
          "duration": 0.6714278999999976
        },
        {
          "name": "C#4",
          "midi": 61,
          "time": 248.1336804374997,
          "velocity": 0.30708661417322836,
          "duration": 0.11607131249996883
        },
        {
          "name": "G#4",
          "midi": 68,
          "time": 248.26135888124966,
          "velocity": 0.30708661417322836,
          "duration": 0.12857130000000438
        },
        {
          "name": "C#5",
          "midi": 73,
          "time": 248.36939448749968,
          "velocity": 0.36220472440944884,
          "duration": 0.19642837499998222
        },
        {
          "name": "F5",
          "midi": 77,
          "time": 248.50153721249967,
          "velocity": 0.3779527559055118,
          "duration": 1.167855975000009
        },
        {
          "name": "G#5",
          "midi": 80,
          "time": 248.59350140624966,
          "velocity": 0.30708661417322836,
          "duration": 1.9124980875000404
        },
        {
          "name": "C#6",
          "midi": 85,
          "time": 248.67385846874967,
          "velocity": 0.30708661417322836,
          "duration": 1.6714269000000286
        },
        {
          "name": "F6",
          "midi": 89,
          "time": 248.75778695624967,
          "velocity": 0.25196850393700787,
          "duration": 1.5794627062500126
        },
        {
          "name": "G#6",
          "midi": 92,
          "time": 248.84171544374968,
          "velocity": 0.3858267716535433,
          "duration": 1.5241056187500135
        }
      ],
      "controlChanges": {
        "7": [
          {
            "number": 7,
            "time": 0.8607134250000001,
            "value": 0.7874015748031497
          }
        ],
        "10": [
          {
            "number": 10,
            "time": 0.8616062812500002,
            "value": 0.5039370078740157
          }
        ],
        "11": [
          {
            "number": 11,
            "time": 0.8624991375000002,
            "value": 1
          }
        ],
        "32": [
          {
            "number": 32,
            "time": 0.8589277125000001,
            "value": 0.8818897637795275
          }
        ],
        "64": [
          {
            "number": 64,
            "time": 1.9098195187500004,
            "value": 1
          },
          {
            "number": 64,
            "time": 5.3017804125,
            "value": 0
          },
          {
            "number": 64,
            "time": 5.582137275,
            "value": 1
          },
          {
            "number": 64,
            "time": 6.64552906875,
            "value": 0
          },
          {
            "number": 64,
            "time": 7.05802865625,
            "value": 1
          },
          {
            "number": 64,
            "time": 8.241956043750003,
            "value": 0
          },
          {
            "number": 64,
            "time": 8.558027156250002,
            "value": 1
          },
          {
            "number": 64,
            "time": 9.409812018750003,
            "value": 0
          },
          {
            "number": 64,
            "time": 10.485703800000003,
            "value": 1
          },
          {
            "number": 64,
            "time": 10.845524868750003,
            "value": 0
          },
          {
            "number": 64,
            "time": 11.153560275000002,
            "value": 1
          },
          {
            "number": 64,
            "time": 11.929452356250003,
            "value": 0
          },
          {
            "number": 64,
            "time": 12.153559275000003,
            "value": 1
          },
          {
            "number": 64,
            "time": 13.069629787500004,
            "value": 0
          },
          {
            "number": 64,
            "time": 13.482129375000003,
            "value": 1
          },
          {
            "number": 64,
            "time": 14.633913937500003,
            "value": 0
          },
          {
            "number": 64,
            "time": 14.917842225000003,
            "value": 1
          },
          {
            "number": 64,
            "time": 15.933912637500004,
            "value": 0
          },
          {
            "number": 64,
            "time": 16.261590881250008,
            "value": 1
          },
          {
            "number": 64,
            "time": 16.83391173750001,
            "value": 0
          },
          {
            "number": 64,
            "time": 17.19016138125001,
            "value": 1
          },
          {
            "number": 64,
            "time": 17.993732006250006,
            "value": 0
          },
          {
            "number": 64,
            "time": 18.358017356250006,
            "value": 1
          },
          {
            "number": 64,
            "time": 19.006230993750005,
            "value": 0
          },
          {
            "number": 64,
            "time": 19.758015956250006,
            "value": 1
          },
          {
            "number": 64,
            "time": 19.949980050000004,
            "value": 0
          },
          {
            "number": 64,
            "time": 20.182122675000006,
            "value": 1
          },
          {
            "number": 64,
            "time": 20.645515068750008,
            "value": 0
          },
          {
            "number": 64,
            "time": 20.966050462500007,
            "value": 1
          },
          {
            "number": 64,
            "time": 22.133906437500006,
            "value": 0
          },
          {
            "number": 64,
            "time": 22.461584681250006,
            "value": 1
          },
          {
            "number": 64,
            "time": 23.34997665000001,
            "value": 0
          },
          {
            "number": 64,
            "time": 23.74551196875001,
            "value": 1
          },
          {
            "number": 64,
            "time": 24.198190087500006,
            "value": 0
          },
          {
            "number": 64,
            "time": 24.606225393750005,
            "value": 1
          },
          {
            "number": 64,
            "time": 25.42586743125001,
            "value": 0
          },
          {
            "number": 64,
            "time": 25.758009956250007,
            "value": 1
          },
          {
            "number": 64,
            "time": 26.27408086875001,
            "value": 0
          },
          {
            "number": 64,
            "time": 27.22586563125001,
            "value": 1
          },
          {
            "number": 64,
            "time": 27.949972050000007,
            "value": 0
          },
          {
            "number": 64,
            "time": 28.158007556250002,
            "value": 1
          },
          {
            "number": 64,
            "time": 29.8374701625,
            "value": 0
          },
          {
            "number": 64,
            "time": 30.07407706875,
            "value": 1
          },
          {
            "number": 64,
            "time": 34.385679899999985,
            "value": 0
          },
          {
            "number": 64,
            "time": 34.633893937499984,
            "value": 1
          },
          {
            "number": 64,
            "time": 36.03746396249997,
            "value": 0
          },
          {
            "number": 64,
            "time": 36.24192804374997,
            "value": 1
          },
          {
            "number": 64,
            "time": 37.29014128124997,
            "value": 0
          },
          {
            "number": 64,
            "time": 37.429426856249975,
            "value": 1
          },
          {
            "number": 64,
            "time": 41.106208893749944,
            "value": 0
          },
          {
            "number": 64,
            "time": 41.33388723749994,
            "value": 1
          },
          {
            "number": 64,
            "time": 43.67406346874993,
            "value": 0
          },
          {
            "number": 64,
            "time": 44.06602736249993,
            "value": 1
          },
          {
            "number": 64,
            "time": 44.92941935624993,
            "value": 0
          },
          {
            "number": 64,
            "time": 45.066026362499926,
            "value": 1
          },
          {
            "number": 64,
            "time": 46.157989556249916,
            "value": 0
          },
          {
            "number": 64,
            "time": 46.298167987499916,
            "value": 1
          },
          {
            "number": 64,
            "time": 48.801736912499905,
            "value": 0
          },
          {
            "number": 64,
            "time": 48.99370100624991,
            "value": 1
          },
          {
            "number": 64,
            "time": 51.117806024999915,
            "value": 0
          },
          {
            "number": 64,
            "time": 51.31423439999991,
            "value": 1
          },
          {
            "number": 64,
            "time": 54.4776240937499,
            "value": 0
          },
          {
            "number": 64,
            "time": 54.729409556249905,
            "value": 1
          },
          {
            "number": 64,
            "time": 59.617797524999865,
            "value": 0
          },
          {
            "number": 64,
            "time": 59.745475968749865,
            "value": 1
          },
          {
            "number": 64,
            "time": 60.91779622499983,
            "value": 0
          },
          {
            "number": 64,
            "time": 61.02940325624983,
            "value": 1
          },
          {
            "number": 64,
            "time": 61.64993834999983,
            "value": 0
          },
          {
            "number": 64,
            "time": 61.78565249999983,
            "value": 1
          },
          {
            "number": 64,
            "time": 63.02582983124983,
            "value": 0
          },
          {
            "number": 64,
            "time": 63.22136534999982,
            "value": 1
          },
          {
            "number": 64,
            "time": 67.66600376249977,
            "value": 0
          },
          {
            "number": 64,
            "time": 67.79368220624977,
            "value": 1
          },
          {
            "number": 64,
            "time": 68.44993154999975,
            "value": 0
          },
          {
            "number": 64,
            "time": 68.56153858124974,
            "value": 1
          },
          {
            "number": 64,
            "time": 69.77760879374975,
            "value": 0
          },
          {
            "number": 64,
            "time": 69.92135864999975,
            "value": 1
          },
          {
            "number": 64,
            "time": 70.76600066249974,
            "value": 0
          },
          {
            "number": 64,
            "time": 70.96153618124974,
            "value": 1
          },
          {
            "number": 64,
            "time": 74.74188954374972,
            "value": 0
          },
          {
            "number": 64,
            "time": 74.92581793124972,
            "value": 1
          },
          {
            "number": 64,
            "time": 76.93385163749966,
            "value": 0
          },
          {
            "number": 64,
            "time": 77.08563719999965,
            "value": 1
          },
          {
            "number": 64,
            "time": 78.16152898124966,
            "value": 0
          },
          {
            "number": 64,
            "time": 78.22581463124965,
            "value": 1
          },
          {
            "number": 64,
            "time": 80.31777682499971,
            "value": 0
          },
          {
            "number": 64,
            "time": 80.41420529999971,
            "value": 1
          },
          {
            "number": 64,
            "time": 81.72938255624972,
            "value": 0
          },
          {
            "number": 64,
            "time": 81.92581093124971,
            "value": 1
          },
          {
            "number": 64,
            "time": 84.04188024374965,
            "value": 0
          },
          {
            "number": 64,
            "time": 84.18563009999964,
            "value": 1
          },
          {
            "number": 64,
            "time": 85.06598636249964,
            "value": 0
          },
          {
            "number": 64,
            "time": 85.22937905624966,
            "value": 1
          },
          {
            "number": 64,
            "time": 88.24544746874962,
            "value": 0
          },
          {
            "number": 64,
            "time": 88.39009018124962,
            "value": 1
          },
          {
            "number": 64,
            "time": 90.65794505624956,
            "value": 0
          },
          {
            "number": 64,
            "time": 90.75794495624956,
            "value": 1
          },
          {
            "number": 64,
            "time": 91.71776542499956,
            "value": 0
          },
          {
            "number": 64,
            "time": 91.92222950624955,
            "value": 1
          },
          {
            "number": 64,
            "time": 93.68204917499956,
            "value": 0
          },
          {
            "number": 64,
            "time": 93.80615619374956,
            "value": 1
          },
          {
            "number": 64,
            "time": 95.27758329374954,
            "value": 0
          },
          {
            "number": 64,
            "time": 95.60169011249955,
            "value": 1
          },
          {
            "number": 64,
            "time": 97.47758109374952,
            "value": 0
          },
          {
            "number": 64,
            "time": 97.73383083749951,
            "value": 1
          },
          {
            "number": 64,
            "time": 100.1695426874995,
            "value": 0
          },
          {
            "number": 64,
            "time": 100.49007808124951,
            "value": 1
          },
          {
            "number": 64,
            "time": 101.68561259999952,
            "value": 0
          },
          {
            "number": 64,
            "time": 101.82579103124951,
            "value": 1
          },
          {
            "number": 64,
            "time": 102.54186174374951,
            "value": 0
          },
          {
            "number": 64,
            "time": 102.6740044687495,
            "value": 1
          },
          {
            "number": 64,
            "time": 103.57757499374948,
            "value": 0
          },
          {
            "number": 64,
            "time": 103.71418199999947,
            "value": 1
          },
          {
            "number": 64,
            "time": 104.60168111249948,
            "value": 0
          },
          {
            "number": 64,
            "time": 104.74185954374948,
            "value": 1
          },
          {
            "number": 64,
            "time": 105.40614459374949,
            "value": 0
          },
          {
            "number": 64,
            "time": 105.53382303749949,
            "value": 1
          },
          {
            "number": 64,
            "time": 106.41417929999952,
            "value": 0
          },
          {
            "number": 64,
            "time": 106.52935775624952,
            "value": 1
          },
          {
            "number": 64,
            "time": 108.9257839312495,
            "value": 0
          },
          {
            "number": 64,
            "time": 109.05792665624949,
            "value": 1
          },
          {
            "number": 64,
            "time": 110.66596076249948,
            "value": 0
          },
          {
            "number": 64,
            "time": 110.79006778124948,
            "value": 1
          },
          {
            "number": 64,
            "time": 111.4498885499995,
            "value": 0
          },
          {
            "number": 64,
            "time": 111.5222099062495,
            "value": 1
          },
          {
            "number": 64,
            "time": 111.7775667937495,
            "value": 0
          },
          {
            "number": 64,
            "time": 111.91417379999949,
            "value": 1
          },
          {
            "number": 64,
            "time": 112.66595876249949,
            "value": 0
          },
          {
            "number": 64,
            "time": 112.7900657812495,
            "value": 1
          },
          {
            "number": 64,
            "time": 113.46952938749949,
            "value": 0
          },
          {
            "number": 64,
            "time": 113.54988644999948,
            "value": 1
          },
          {
            "number": 64,
            "time": 114.34184994374947,
            "value": 0
          },
          {
            "number": 64,
            "time": 114.46149268124947,
            "value": 1
          },
          {
            "number": 64,
            "time": 115.12220630624945,
            "value": 0
          },
          {
            "number": 64,
            "time": 115.23738476249946,
            "value": 1
          },
          {
            "number": 64,
            "time": 115.89809838749949,
            "value": 0
          },
          {
            "number": 64,
            "time": 115.98202687499949,
            "value": 1
          },
          {
            "number": 64,
            "time": 116.99363300624952,
            "value": 0
          },
          {
            "number": 64,
            "time": 117.09809718749952,
            "value": 1
          },
          {
            "number": 64,
            "time": 119.12577373124948,
            "value": 0
          },
          {
            "number": 64,
            "time": 119.19809508749948,
            "value": 1
          },
          {
            "number": 64,
            "time": 119.50613049374948,
            "value": 0
          },
          {
            "number": 64,
            "time": 119.59809468749948,
            "value": 1
          },
          {
            "number": 64,
            "time": 120.36595106249949,
            "value": 0
          },
          {
            "number": 64,
            "time": 120.4614866812495,
            "value": 1
          },
          {
            "number": 64,
            "time": 121.1141645999995,
            "value": 0
          },
          {
            "number": 64,
            "time": 121.2177359249995,
            "value": 1
          },
          {
            "number": 64,
            "time": 122.29362770624948,
            "value": 0
          },
          {
            "number": 64,
            "time": 122.42219900624949,
            "value": 1
          },
          {
            "number": 64,
            "time": 123.3980908874995,
            "value": 0
          },
          {
            "number": 64,
            "time": 123.5061264937495,
            "value": 1
          },
          {
            "number": 64,
            "time": 124.2454114687495,
            "value": 0
          },
          {
            "number": 64,
            "time": 124.35791135624949,
            "value": 1
          },
          {
            "number": 64,
            "time": 125.18558909999949,
            "value": 0
          },
          {
            "number": 64,
            "time": 125.29362470624947,
            "value": 1
          },
          {
            "number": 64,
            "time": 126.04183824374947,
            "value": 0
          },
          {
            "number": 64,
            "time": 126.13737386249946,
            "value": 1
          },
          {
            "number": 64,
            "time": 126.79005178124946,
            "value": 0
          },
          {
            "number": 64,
            "time": 126.86148028124946,
            "value": 1
          },
          {
            "number": 64,
            "time": 127.72933655624946,
            "value": 0
          },
          {
            "number": 64,
            "time": 127.83380073749946,
            "value": 1
          },
          {
            "number": 64,
            "time": 128.52219290624947,
            "value": 0
          },
          {
            "number": 64,
            "time": 128.56951428749946,
            "value": 1
          },
          {
            "number": 64,
            "time": 129.25790645624946,
            "value": 0
          },
          {
            "number": 64,
            "time": 129.31415639999946,
            "value": 1
          },
          {
            "number": 64,
            "time": 130.05790565624955,
            "value": 0
          },
          {
            "number": 64,
            "time": 130.16147698124956,
            "value": 1
          },
          {
            "number": 64,
            "time": 130.92933335624957,
            "value": 0
          },
          {
            "number": 64,
            "time": 130.99808328749958,
            "value": 1
          },
          {
            "number": 64,
            "time": 131.61772552499966,
            "value": 0
          },
          {
            "number": 64,
            "time": 131.69361830624965,
            "value": 1
          },
          {
            "number": 64,
            "time": 132.2016535124996,
            "value": 0
          },
          {
            "number": 64,
            "time": 132.26593916249962,
            "value": 1
          },
          {
            "number": 64,
            "time": 132.9177242249996,
            "value": 0
          },
          {
            "number": 64,
            "time": 132.9855812999996,
            "value": 1
          },
          {
            "number": 64,
            "time": 133.5900449812496,
            "value": 0
          },
          {
            "number": 64,
            "time": 133.62575923124962,
            "value": 1
          },
          {
            "number": 64,
            "time": 134.3695084874996,
            "value": 0
          },
          {
            "number": 64,
            "time": 134.4695083874996,
            "value": 1
          },
          {
            "number": 64,
            "time": 135.2775432937496,
            "value": 0
          },
          {
            "number": 64,
            "time": 135.36593606249963,
            "value": 1
          },
          {
            "number": 64,
            "time": 135.83379273749964,
            "value": 0
          },
          {
            "number": 64,
            "time": 135.89807838749962,
            "value": 1
          },
          {
            "number": 64,
            "time": 136.7257561312496,
            "value": 0
          },
          {
            "number": 64,
            "time": 136.8373631624996,
            "value": 1
          },
          {
            "number": 64,
            "time": 139.1659322624995,
            "value": 0
          },
          {
            "number": 64,
            "time": 139.2614678812495,
            "value": 1
          },
          {
            "number": 64,
            "time": 140.8221806062495,
            "value": 0
          },
          {
            "number": 64,
            "time": 140.9141447999995,
            "value": 1
          },
          {
            "number": 64,
            "time": 141.9293223562495,
            "value": 0
          },
          {
            "number": 64,
            "time": 142.09003648124948,
            "value": 1
          },
          {
            "number": 64,
            "time": 143.8819989749995,
            "value": 0
          },
          {
            "number": 64,
            "time": 143.9659274624995,
            "value": 1
          },
          {
            "number": 64,
            "time": 144.84181944374956,
            "value": 0
          },
          {
            "number": 64,
            "time": 144.96949788749953,
            "value": 1
          },
          {
            "number": 64,
            "time": 147.75788795624956,
            "value": 0
          },
          {
            "number": 64,
            "time": 147.90163781249956,
            "value": 1
          },
          {
            "number": 64,
            "time": 149.7141359999996,
            "value": 0
          },
          {
            "number": 64,
            "time": 149.8096716187496,
            "value": 1
          },
          {
            "number": 64,
            "time": 150.69806358749966,
            "value": 0
          },
          {
            "number": 64,
            "time": 150.79806348749966,
            "value": 1
          },
          {
            "number": 64,
            "time": 152.5293117562496,
            "value": 0
          },
          {
            "number": 64,
            "time": 152.6293116562496,
            "value": 1
          },
          {
            "number": 64,
            "time": 153.70163201249954,
            "value": 0
          },
          {
            "number": 64,
            "time": 153.83377473749954,
            "value": 1
          },
          {
            "number": 64,
            "time": 154.7293095562495,
            "value": 0
          },
          {
            "number": 64,
            "time": 154.7980594874995,
            "value": 1
          },
          {
            "number": 64,
            "time": 155.26591616249948,
            "value": 0
          },
          {
            "number": 64,
            "time": 155.34538036874946,
            "value": 1
          },
          {
            "number": 64,
            "time": 155.66948718749953,
            "value": 0
          },
          {
            "number": 64,
            "time": 155.74537996874955,
            "value": 1
          },
          {
            "number": 64,
            "time": 156.75787895624953,
            "value": 0
          },
          {
            "number": 64,
            "time": 156.86145028124952,
            "value": 1
          },
          {
            "number": 64,
            "time": 158.3293059562495,
            "value": 0
          },
          {
            "number": 64,
            "time": 158.3980558874995,
            "value": 1
          },
          {
            "number": 64,
            "time": 158.6819841749995,
            "value": 0
          },
          {
            "number": 64,
            "time": 158.77394836874953,
            "value": 1
          },
          {
            "number": 64,
            "time": 159.98198287499952,
            "value": 0
          },
          {
            "number": 64,
            "time": 160.2534111749995,
            "value": 1
          },
          {
            "number": 64,
            "time": 164.1096573187495,
            "value": 0
          },
          {
            "number": 64,
            "time": 164.2900142812495,
            "value": 1
          },
          {
            "number": 64,
            "time": 165.78197707499953,
            "value": 0
          },
          {
            "number": 64,
            "time": 166.08197677499953,
            "value": 1
          },
          {
            "number": 64,
            "time": 168.6534027749995,
            "value": 0
          },
          {
            "number": 64,
            "time": 168.8694739874995,
            "value": 1
          },
          {
            "number": 64,
            "time": 172.62929165624945,
            "value": 0
          },
          {
            "number": 64,
            "time": 172.77750579374944,
            "value": 1
          },
          {
            "number": 64,
            "time": 176.09803818749947,
            "value": 0
          },
          {
            "number": 64,
            "time": 176.30964511874947,
            "value": 1
          },
          {
            "number": 64,
            "time": 180.2498197499995,
            "value": 0
          },
          {
            "number": 64,
            "time": 180.4337481374995,
            "value": 1
          },
          {
            "number": 64,
            "time": 183.3453523687495,
            "value": 0
          },
          {
            "number": 64,
            "time": 183.5221379062495,
            "value": 1
          },
          {
            "number": 64,
            "time": 185.6337429374995,
            "value": 0
          },
          {
            "number": 64,
            "time": 185.79356420624953,
            "value": 1
          },
          {
            "number": 64,
            "time": 187.46945538749955,
            "value": 0
          },
          {
            "number": 64,
            "time": 187.66588376249956,
            "value": 1
          },
          {
            "number": 64,
            "time": 189.59356040624957,
            "value": 0
          },
          {
            "number": 64,
            "time": 189.88195297499956,
            "value": 1
          },
          {
            "number": 64,
            "time": 191.47391566874958,
            "value": 0
          },
          {
            "number": 64,
            "time": 191.7221297062496,
            "value": 1
          },
          {
            "number": 64,
            "time": 193.91409179999962,
            "value": 0
          },
          {
            "number": 64,
            "time": 194.17391296874965,
            "value": 1
          },
          {
            "number": 64,
            "time": 195.60605439374962,
            "value": 0
          },
          {
            "number": 64,
            "time": 195.8256970312496,
            "value": 1
          },
          {
            "number": 64,
            "time": 198.36944448749963,
            "value": 0
          },
          {
            "number": 64,
            "time": 198.58194427499964,
            "value": 1
          },
          {
            "number": 64,
            "time": 200.73372783749963,
            "value": 0
          },
          {
            "number": 64,
            "time": 200.96944188749964,
            "value": 1
          },
          {
            "number": 64,
            "time": 204.74175954374962,
            "value": 0
          },
          {
            "number": 64,
            "time": 204.94533076874964,
            "value": 1
          },
          {
            "number": 64,
            "time": 207.92568493124966,
            "value": 0
          },
          {
            "number": 64,
            "time": 208.07389906874965,
            "value": 1
          },
          {
            "number": 64,
            "time": 211.52210990624965,
            "value": 0
          },
          {
            "number": 64,
            "time": 211.71407399999967,
            "value": 1
          },
          {
            "number": 64,
            "time": 215.4060345937496,
            "value": 0
          },
          {
            "number": 64,
            "time": 215.6613914812496,
            "value": 1
          },
          {
            "number": 64,
            "time": 218.5060314937496,
            "value": 0
          },
          {
            "number": 64,
            "time": 218.72210270624961,
            "value": 1
          },
          {
            "number": 64,
            "time": 221.98549229999958,
            "value": 0
          },
          {
            "number": 64,
            "time": 222.13370643749957,
            "value": 1
          },
          {
            "number": 64,
            "time": 226.8417374437496,
            "value": 0
          },
          {
            "number": 64,
            "time": 227.1578085562496,
            "value": 1
          },
          {
            "number": 64,
            "time": 229.10155661249962,
            "value": 0
          },
          {
            "number": 64,
            "time": 229.28548499999962,
            "value": 1
          },
          {
            "number": 64,
            "time": 230.00959141874964,
            "value": 0
          },
          {
            "number": 64,
            "time": 230.17387696874965,
            "value": 1
          },
          {
            "number": 64,
            "time": 230.82209060624965,
            "value": 0
          },
          {
            "number": 64,
            "time": 230.93726906249967,
            "value": 1
          },
          {
            "number": 64,
            "time": 233.65333777499964,
            "value": 0
          },
          {
            "number": 64,
            "time": 233.88994468124963,
            "value": 1
          },
          {
            "number": 64,
            "time": 235.4417288437497,
            "value": 0
          },
          {
            "number": 64,
            "time": 235.5095859187497,
            "value": 1
          },
          {
            "number": 64,
            "time": 236.24529946874966,
            "value": 0
          },
          {
            "number": 64,
            "time": 236.35779935624967,
            "value": 1
          },
          {
            "number": 64,
            "time": 237.14976284999963,
            "value": 0
          },
          {
            "number": 64,
            "time": 237.26583416249963,
            "value": 1
          },
          {
            "number": 64,
            "time": 239.6613674812496,
            "value": 0
          },
          {
            "number": 64,
            "time": 239.8613672812496,
            "value": 1
          },
          {
            "number": 64,
            "time": 243.5095779187496,
            "value": 0
          },
          {
            "number": 64,
            "time": 243.76939908749964,
            "value": 1
          },
          {
            "number": 64,
            "time": 248.15778755624967,
            "value": 0
          },
          {
            "number": 64,
            "time": 248.26939458749968,
            "value": 1
          },
          {
            "number": 64,
            "time": 252.1899263812497,
            "value": 0
          }
        ],
        "74": [
          {
            "number": 74,
            "time": 0.8633919937500002,
            "value": 0.48031496062992124
          }
        ],
        "91": [
          {
            "number": 91,
            "time": 0.8642848500000002,
            "value": 0.47244094488188976
          }
        ]
      },
      "id": 0,
      "name": "Clair de Lune",
      "instrumentNumber": 0,
      "instrument": "acoustic grand piano",
      "instrumentFamily": "piano",
      "channelNumber": 0,
      "isPercussion": false
    }
  ]
}